<svg width="248" height="248" viewBox="0 0 248 248" fill="none" xmlns="http://www.w3.org/2000/svg">
<g style="mix-blend-mode:darken">
<path d="M235.417 74.2307C201.217 63.0962 33.3987 130.196 28.127 167.281C27.3986 172.405 28.9782 178.127 31.2008 182.801C40.5983 202.563 89.9687 232.371 131.608 222.911C141.637 220.633 152.53 224.05 149.926 233.999C148.748 238.496 147.033 242.511 146.33 244.998C145.442 248.143 150.23 247.151 153.408 246.39C194.559 236.539 259.395 110.247 245.2 82.4389C243.27 78.6585 239.452 75.5447 235.417 74.2307Z" fill="#35D0B4"/>
</g>
<path d="M57.6058 179.05C89.3045 194.157 140.696 194.161 172.394 179.05C204.093 163.939 204.088 139.449 172.394 124.343C140.7 109.236 89.3045 109.236 57.6058 124.343C25.9072 139.449 25.9118 163.944 57.6058 179.05Z" fill="#F5F5F5"/>
<path d="M172.284 167.886C178.122 167.886 182.855 165.631 182.855 162.849C182.855 160.067 178.122 157.812 172.284 157.812C166.446 157.812 161.713 160.067 161.713 162.849C161.713 165.631 166.446 167.886 172.284 167.886Z" fill="#EBEBEB"/>
<path d="M55.2 163.571L58.9398 161.414C61.0278 159.71 62.617 157.474 63.5398 154.942C64.6944 151.759 64.5334 149.339 63.7054 148.125C62.6888 146.63 60.053 146.892 59.9472 150.038C59.7264 156.239 57.9186 160.54 55.2 163.571Z" fill="#35D0B4"/>
<path opacity="0.2" d="M55.2 163.571L58.9398 161.414C61.0278 159.71 62.617 157.474 63.5398 154.942C64.6944 151.759 64.5334 149.339 63.7054 148.125C62.6888 146.63 60.053 146.892 59.9472 150.038C59.7264 156.239 57.9186 160.54 55.2 163.571Z" fill="black"/>
<path d="M55.2 163.801C55.1513 163.801 55.104 163.785 55.065 163.756C55.026 163.726 54.9973 163.686 54.9829 163.639C54.9686 163.593 54.9695 163.543 54.9853 163.497C55.0012 163.451 55.0312 163.411 55.0712 163.383C63.7192 157.403 62.0448 149.063 62.0264 148.98C62.02 148.95 62.0197 148.919 62.0254 148.889C62.0311 148.858 62.0427 148.829 62.0596 148.803C62.0764 148.778 62.0982 148.755 62.1237 148.738C62.1492 148.72 62.1779 148.708 62.2081 148.702C62.2383 148.696 62.2694 148.695 62.2998 148.701C62.3301 148.707 62.359 148.718 62.3848 148.735C62.4107 148.752 62.433 148.774 62.4504 148.799C62.4678 148.825 62.48 148.853 62.4864 148.884C62.4864 148.971 64.2528 157.596 55.3472 163.76C55.3039 163.79 55.2522 163.804 55.2 163.801V163.801Z" fill="white"/>
<path d="M47.7066 167.9C47.7066 167.9 46.4048 166.842 46.7176 165.407C47.0304 163.972 47.8722 162.941 46.4324 161.092C44.9926 159.243 44.5924 156.777 46.3128 155.443C47.6238 154.408 49.6708 155.871 50.4068 153.143C50.9496 151.147 50.7656 146.726 53.3094 145.254C55.8532 143.782 57.4494 145.999 57.0492 148.999C56.6996 151.68 56.2028 154.261 56.5892 154.979C57.3344 156.359 58.6086 156.17 58.5488 158.691C58.4982 161.037 56.2764 162.978 56.2764 162.978L47.7066 167.9Z" fill="#35D0B4"/>
<path d="M51.98 165.651C51.9238 165.65 51.8696 165.629 51.8274 165.592C51.7852 165.555 51.7577 165.504 51.75 165.448C51.0922 159.997 52.67 150.586 53.958 147.789C53.9688 147.758 53.9862 147.729 54.0089 147.706C54.0316 147.682 54.0592 147.663 54.0897 147.651C54.1202 147.639 54.153 147.633 54.1858 147.635C54.2186 147.636 54.2507 147.645 54.28 147.66C54.3075 147.672 54.3322 147.69 54.3526 147.712C54.3731 147.734 54.389 147.76 54.3993 147.789C54.4096 147.817 54.4141 147.847 54.4126 147.877C54.411 147.907 54.4035 147.936 54.3904 147.964C53.1162 150.724 51.5936 160.163 52.2238 165.375C52.2303 165.435 52.2126 165.495 52.1747 165.543C52.1368 165.59 52.0817 165.621 52.0214 165.628L51.98 165.651Z" fill="white"/>
<path d="M51.8558 161.405C51.8206 161.407 51.7856 161.399 51.7546 161.382C50.1584 160.604 49.1464 157.831 49.105 157.702C49.0937 157.673 49.0883 157.643 49.0891 157.612C49.0898 157.581 49.0967 157.551 49.1094 157.523C49.122 157.495 49.1402 157.47 49.1627 157.449C49.1853 157.428 49.2118 157.412 49.2408 157.401C49.2697 157.391 49.3004 157.386 49.3311 157.388C49.3618 157.389 49.3919 157.397 49.4195 157.411C49.4472 157.424 49.4719 157.443 49.4921 157.466C49.5124 157.489 49.5278 157.516 49.5374 157.545C49.5374 157.573 50.5264 160.259 51.957 160.954C52.0039 160.977 52.0417 161.015 52.0642 161.062C52.0867 161.109 52.0926 161.162 52.0808 161.213C52.0691 161.264 52.0404 161.309 51.9995 161.341C51.9586 161.374 51.9079 161.391 51.8558 161.391V161.405Z" fill="white"/>
<path d="M51.8282 163.245C51.7821 163.245 51.7371 163.231 51.6993 163.204C51.6615 163.178 51.6326 163.141 51.6166 163.098C51.5937 163.041 51.5939 162.979 51.6172 162.923C51.6405 162.867 51.6849 162.822 51.7408 162.799C54.4272 161.722 56.1016 158.525 56.12 158.488C56.1481 158.434 56.1966 158.393 56.2548 158.375C56.313 158.356 56.3762 158.361 56.4305 158.39C56.4848 158.418 56.5257 158.466 56.5443 158.524C56.5628 158.582 56.5575 158.646 56.5294 158.7C56.4558 158.838 54.7584 162.086 51.9294 163.226C51.8979 163.241 51.863 163.248 51.8282 163.245V163.245Z" fill="white"/>
<path d="M145.728 138.497C145.728 138.497 143.718 135.24 143.52 131.703C143.322 128.165 144.1 126.693 145.167 126.27C146.234 125.847 146.317 127.149 146.864 127.917C147.412 128.685 148.529 128.248 148.943 125.851C149.357 123.455 150.866 119.411 154.003 118.625C157.453 117.769 155.604 121.817 154.735 123.395C153.865 124.973 153.194 127.126 153.764 127.71C154.335 128.294 155.222 127.213 156.064 128.216C157.09 129.426 153.902 133.782 152.071 134.835L145.728 138.497Z" fill="#35D0B4"/>
<path d="M148.483 137.131C148.453 137.129 148.423 137.122 148.396 137.11C148.369 137.097 148.344 137.079 148.323 137.057C148.303 137.035 148.287 137.009 148.276 136.98C148.266 136.952 148.261 136.922 148.263 136.891C148.574 131.201 150.349 125.687 153.415 120.883C153.432 120.858 153.454 120.837 153.48 120.821C153.506 120.805 153.535 120.794 153.565 120.789C153.595 120.785 153.626 120.786 153.655 120.793C153.685 120.801 153.712 120.814 153.737 120.833C153.785 120.869 153.817 120.922 153.826 120.981C153.836 121.04 153.822 121.101 153.787 121.15C150.776 125.884 149.033 131.313 148.727 136.914C148.725 136.945 148.718 136.974 148.704 137.001C148.691 137.029 148.673 137.053 148.65 137.073C148.627 137.093 148.601 137.109 148.572 137.118C148.544 137.128 148.514 137.132 148.483 137.131Z" fill="white"/>
<path d="M148.746 134.412C148.707 134.412 148.669 134.402 148.635 134.384C147.347 133.671 146.634 131.555 146.607 131.468C146.596 131.439 146.592 131.409 146.594 131.379C146.595 131.348 146.603 131.318 146.616 131.291C146.63 131.264 146.648 131.239 146.671 131.219C146.694 131.199 146.72 131.183 146.749 131.174C146.807 131.155 146.87 131.16 146.925 131.187C146.979 131.215 147.02 131.263 147.039 131.321C147.039 131.321 147.729 133.359 148.879 133.98C148.931 134.01 148.969 134.06 148.986 134.118C149.002 134.177 148.995 134.239 148.966 134.292C148.946 134.332 148.913 134.364 148.874 134.386C148.835 134.407 148.79 134.416 148.746 134.412Z" fill="white"/>
<path d="M148.971 133.018C148.92 133.018 148.871 133 148.831 132.969C148.791 132.937 148.762 132.893 148.75 132.843C148.743 132.814 148.741 132.784 148.745 132.754C148.749 132.725 148.76 132.696 148.775 132.671C148.79 132.645 148.811 132.623 148.835 132.605C148.859 132.587 148.887 132.574 148.916 132.567C152.237 131.726 153.387 129.987 153.396 129.968C153.413 129.943 153.434 129.92 153.459 129.903C153.484 129.886 153.512 129.873 153.541 129.867C153.571 129.86 153.602 129.859 153.632 129.864C153.662 129.87 153.69 129.881 153.716 129.897C153.742 129.913 153.764 129.935 153.781 129.959C153.799 129.984 153.811 130.012 153.818 130.042C153.824 130.072 153.825 130.103 153.82 130.133C153.815 130.162 153.804 130.191 153.787 130.217C153.737 130.295 152.541 132.121 149.031 133.014L148.971 133.018Z" fill="white"/>
<path d="M95.6799 131.348C95.6799 131.348 91.2685 130.272 91.0385 122.01C90.7947 113.096 92.1195 102.69 86.8985 101.849C81.6776 101.007 78.7795 107.369 78.8439 114.798C78.9037 121.302 81.5258 135.424 95.6615 138.193L95.6799 131.348Z" fill="#35D0B4"/>
<path opacity="0.2" d="M95.6799 131.348C95.6799 131.348 91.2685 130.272 91.0385 122.01C90.7947 113.096 92.1195 102.69 86.8985 101.849C81.6776 101.007 78.7795 107.369 78.8439 114.798C78.9037 121.302 81.5258 135.424 95.6615 138.193L95.6799 131.348Z" fill="black"/>
<path d="M95.6799 137.347H95.6385C92.4599 136.767 89.8701 135.015 87.9427 132.144C82.2295 123.62 84.0281 107.704 84.6215 104.926C84.6348 104.867 84.6705 104.815 84.7211 104.782C84.7717 104.748 84.8333 104.736 84.8929 104.747C84.9525 104.761 85.0043 104.798 85.0377 104.849C85.071 104.9 85.0835 104.962 85.0723 105.023C84.4881 107.783 82.6987 123.496 88.3245 131.887C89.1434 133.188 90.2238 134.305 91.4971 135.166C92.7705 136.028 94.2089 136.615 95.7213 136.891C95.7514 136.897 95.78 136.908 95.8055 136.925C95.8311 136.942 95.8531 136.963 95.8702 136.989C95.8873 137.014 95.8992 137.042 95.9053 137.072C95.9113 137.102 95.9113 137.133 95.9053 137.163C95.8956 137.215 95.8676 137.262 95.8263 137.296C95.785 137.33 95.7332 137.348 95.6799 137.347V137.347Z" fill="white"/>
<path d="M95.68 158.548C91.1214 159.165 83.72 159.155 79.4466 155.788C75.1732 152.421 76.0656 149.523 77.7078 148.313C79.35 147.103 80.776 145.723 77.9516 143.037C75.1272 140.351 70.5916 136.036 69.1196 129.564C67.6476 123.091 68.3744 119.043 71.2632 117.696C74.0646 116.389 74.8052 118.468 76.521 122.756C78.2368 127.043 82.0962 123.367 85.399 124.706C88.7018 126.045 88.5684 128.694 88.7754 130.971C88.9824 133.248 90.0726 133.878 91.9448 133.878C93.817 133.878 95.68 134.955 95.68 137.098V158.548Z" fill="#35D0B4"/>
<path d="M95.6799 151.032C95.6602 151.036 95.6398 151.036 95.6201 151.032C95.4223 150.977 90.7073 149.606 83.8395 143.299C76.5255 136.583 73.0755 126.509 73.0387 126.408C73.0211 126.35 73.0266 126.287 73.054 126.233C73.0814 126.179 73.1287 126.138 73.1859 126.118C73.2433 126.099 73.3058 126.103 73.3601 126.13C73.4143 126.157 73.4558 126.204 73.4757 126.261C73.5079 126.362 76.9257 136.326 84.1523 142.959C90.9235 149.183 95.6937 150.576 95.7443 150.59C95.7733 150.599 95.8004 150.613 95.8239 150.632C95.8475 150.651 95.8671 150.674 95.8816 150.7C95.8961 150.727 95.9053 150.756 95.9086 150.786C95.9118 150.816 95.9092 150.846 95.9007 150.875C95.8858 150.922 95.8562 150.962 95.8164 150.99C95.7766 151.019 95.7287 151.033 95.6799 151.032Z" fill="white"/>
<path d="M85.7578 144.9C85.7116 144.901 85.6663 144.887 85.6283 144.861C85.5904 144.834 85.5616 144.796 85.5462 144.753C84.0696 140.962 83.7338 132.853 83.7062 132.508C83.7049 132.447 83.7272 132.388 83.7684 132.343C83.8096 132.299 83.8664 132.272 83.927 132.268C83.9871 132.269 84.0447 132.292 84.0889 132.333C84.133 132.374 84.1606 132.429 84.1662 132.489C84.1662 132.572 84.5112 140.866 85.9602 144.587C85.9713 144.616 85.9766 144.646 85.9759 144.676C85.9752 144.707 85.9684 144.737 85.956 144.765C85.9436 144.792 85.9258 144.818 85.9036 144.838C85.8815 144.859 85.8553 144.876 85.8268 144.886C85.8046 144.894 85.7814 144.899 85.7578 144.9V144.9Z" fill="white"/>
<path d="M85.721 150.351C85.2969 150.354 84.8729 150.333 84.4514 150.287C84.4212 150.283 84.392 150.273 84.3655 150.259C84.3389 150.244 84.3156 150.224 84.2968 150.2C84.278 150.176 84.2641 150.148 84.2559 150.119C84.2477 150.09 84.2453 150.059 84.249 150.029C84.2526 149.999 84.2621 149.97 84.277 149.943C84.2919 149.917 84.3119 149.893 84.3358 149.874C84.3598 149.856 84.3872 149.842 84.4164 149.834C84.4457 149.825 84.4764 149.823 84.5066 149.827C84.548 149.827 88.8306 150.314 90.7948 148.313C90.8152 148.289 90.8404 148.269 90.8689 148.255C90.8973 148.241 90.9283 148.233 90.96 148.232C90.9917 148.23 91.0233 148.236 91.0529 148.247C91.0825 148.258 91.1094 148.276 91.1319 148.298C91.1545 148.32 91.1722 148.347 91.184 148.376C91.1958 148.406 91.2014 148.437 91.2004 148.469C91.1994 148.501 91.1918 148.532 91.1782 148.56C91.1646 148.589 91.1453 148.614 91.1214 148.635C89.7 150.103 87.2206 150.351 85.721 150.351Z" fill="white"/>
<path d="M82.409 63.2454L81.9122 60.3795L79.3546 62.0631C79.1209 61.6032 78.7896 61.1997 78.384 60.881L79.6076 57.5689L77.3076 57.0583L75.624 60.2783C75.0149 60.3811 74.4243 60.5733 73.8714 60.8487L73.14 58.4199L70.4076 60.5681L70.587 63.4201C70.0305 64.0434 69.5259 64.7111 69.0782 65.4166L66.8242 65.3016L65.2418 68.8481L67.1784 69.6762C66.9762 70.4097 66.8483 71.1618 66.7966 71.921L64.3356 74.1842L64.8278 77.0545L67.39 75.371C67.6223 75.8305 67.9538 76.2327 68.3606 76.5486L67.16 79.8651L69.46 80.3712L71.8704 78.0251C72.427 77.9377 72.289 76.889 72.8962 76.59L73.6276 79.0095L76.3554 76.866L76.2864 75.7436C76.8384 75.1272 78.9268 73.7702 79.3776 73.0618L79.9434 72.1418L81.5258 68.5951L80.7898 67.2612L79.971 65.5224L82.409 63.2454ZM74.06 72.68C71.9624 74.3268 71.3 74.6902 70.9458 72.4868C70.5916 70.2834 71.7922 66.9345 73.8898 65.2831C75.9874 63.6317 76.7878 63.5167 77.165 65.7156C77.5422 67.9144 76.1622 71.0516 74.06 72.68Z" fill="#E0E0E0"/>
<path d="M77.3259 57.0583L80.3113 58.7787L78.6277 61.9895L75.6423 60.2692L77.3259 57.0583Z" fill="#F5F5F5"/>
<path d="M84.8976 62.0999L82.34 63.7835L79.3546 62.0631L81.9122 60.3795L84.8976 62.0999Z" fill="#F5F5F5"/>
<path d="M84.4882 70.3017L82.5516 69.4783L79.5662 67.7579L81.5028 68.5813L84.4882 70.3017Z" fill="#E0E0E0"/>
<path d="M67.1554 79.8652L70.1408 81.581L71.3644 78.269L68.379 76.5486L67.1554 79.8652Z" fill="#E0E0E0"/>
<path d="M76.5854 80.73L73.6046 79.0096L72.8732 76.59L75.8586 78.3104L76.5854 80.73Z" fill="#E0E0E0"/>
<path d="M85.3898 64.9658L84.8976 62.1L82.34 63.7836C82.1046 63.3234 81.7718 62.92 81.3648 62.6014L82.5884 59.2894L80.3114 58.7788L78.6232 61.9988C78.014 62.1016 77.4235 62.2938 76.8706 62.5692L76.1438 60.1496L73.4114 62.2978L73.5908 65.1498C73.0337 65.7775 72.5291 66.4498 72.082 67.16L69.8234 67.045L68.241 70.5916L70.1776 71.4196C69.9772 72.1552 69.8493 72.9085 69.7958 73.669L67.3394 75.9L67.8316 78.7704L70.3892 77.0868C70.6246 77.5457 70.9574 77.9476 71.3644 78.2644L70.1408 81.5764L72.4408 82.087L74.1244 78.867C74.7358 78.7654 75.3283 78.5715 75.8816 78.292L76.6084 80.7116L79.3408 78.568L79.1614 75.716C79.7178 75.0927 80.2224 74.425 80.6702 73.7196L82.9288 73.83L84.5112 70.2834L82.547 69.46C82.7506 68.725 82.88 67.9714 82.9334 67.2106L85.3898 64.9658ZM77.05 74.4188C74.957 76.0656 72.9514 75.6194 72.5696 73.4206C72.1878 71.2218 73.5816 68.0984 75.6792 66.4516C77.7768 64.8048 79.7778 65.2556 80.1596 67.4544C80.5414 69.6532 79.1476 72.772 77.05 74.4188Z" fill="#EBEBEB"/>
<path d="M76.1438 60.1403L73.1584 58.4199L70.426 60.5681L73.4114 62.2885L76.1438 60.1403Z" fill="#F5F5F5"/>
<path d="M70.426 60.5681L70.6054 63.4201L73.5908 65.1405L73.4114 62.2885L70.426 60.5681Z" fill="#E0E0E0"/>
<path d="M72.0821 67.137L69.0967 65.4166L66.8427 65.3062L69.8234 67.0266L72.0821 67.137Z" fill="#F5F5F5"/>
<path d="M66.8425 65.3062L65.2601 68.8482L68.2409 70.5686L69.8233 67.0266L66.8425 65.3062Z" fill="#E0E0E0"/>
<path d="M69.7958 73.6413L66.815 71.9209L64.354 74.1841L67.3348 75.9045L69.7958 73.6413Z" fill="#F5F5F5"/>
<path d="M67.8316 78.7749L64.8462 77.0545L64.354 74.1841L67.3348 75.9045L67.8316 78.7749Z" fill="#E0E0E0"/>
<path d="M80.3114 58.7787L77.326 57.0583L79.6076 57.5689L82.5884 59.2893L80.3114 58.7787Z" fill="#F5F5F5"/>
<path d="M69.0414 50.2366V45.954L65.6328 47.4904C65.4522 46.7638 65.1405 46.0763 64.7128 45.4618L66.861 41.1332L64.239 39.6198L61.5618 43.6448C60.8157 43.5796 60.064 43.6529 59.3446 43.861L58.9674 40.1396L55.2598 42.2832L54.8872 46.4232C54.0803 47.1381 53.3383 47.9232 52.67 48.7692L49.9928 47.8492L47.3708 52.394L49.5144 54.234C49.1183 55.2356 48.8105 56.2699 48.5944 57.3252L45.1858 59.7218V64.0089L48.5944 62.4726C48.7749 63.1991 49.0867 63.8866 49.5144 64.5012L47.38 68.8344L50.002 70.3477L52.6792 66.3227C53.4253 66.3877 54.1769 66.3144 54.8964 66.1066L55.269 69.828L58.9766 67.6844L59.3538 63.5444C60.511 63.1221 61.5361 62.4017 62.3254 61.456L64.2482 62.1322L66.8702 57.5919L65.2602 56.212C65.6097 55.0612 65.7392 53.8549 65.642 52.6562L69.0414 50.2366ZM57.1136 60.9362C54.2708 62.5784 52.5136 61.3962 52.5136 58.1256C52.5136 54.855 54.8642 50.8116 57.7116 49.1694C60.559 47.5272 62.2794 48.7094 62.2794 52.0076C62.2794 55.3058 59.961 59.2894 57.1136 60.9362Z" fill="#E0E0E0"/>
<path d="M67.2198 41.3356L64.239 39.6198L61.5618 43.6448L64.5426 45.3652L67.2198 41.3356Z" fill="#F5F5F5"/>
<path d="M72.0268 47.6744L69.0414 45.954L65.6328 47.4904L68.6182 49.2108L72.0268 47.6744Z" fill="#F5F5F5"/>
<path d="M58.2406 71.5484L55.2598 69.828L54.8872 66.1066L57.868 67.827L58.2406 71.5484Z" fill="#E0E0E0"/>
<path d="M47.3662 68.8343L50.3516 70.5547L52.4998 66.2261L49.5144 64.5057L47.3662 68.8343Z" fill="#E0E0E0"/>
<path d="M72.0267 51.9799V47.6973L68.6181 49.2199C68.4395 48.4927 68.1276 47.8049 67.6981 47.1913L69.8463 42.8627L67.2243 41.3447L64.5471 45.3743C63.8011 45.3069 63.0489 45.3802 62.3299 45.5905L61.9527 41.8599L58.2451 44.0035L57.8679 48.1435C57.0622 48.8597 56.3203 49.6447 55.6507 50.4895L52.9735 49.5695L50.3515 54.1143L52.4997 55.9543C52.1016 56.9553 51.7937 57.9898 51.5797 59.0455L48.1711 61.4421V65.7293L51.5797 64.1929C51.7583 64.9202 52.0702 65.6081 52.4997 66.2215L50.3515 70.5501L52.9735 72.0635L55.6507 68.0385C56.3968 68.1037 57.1485 68.0304 57.8679 67.8223L58.2451 71.5437L61.9527 69.4001L62.3253 65.2601C63.1322 64.5451 63.8742 63.7601 64.5425 62.9141L67.2197 63.8341L69.8417 59.2939L67.6935 57.4539C68.0916 56.453 68.3995 55.4185 68.6135 54.3627L72.0267 51.9799ZM60.0989 62.6795C57.2515 64.3217 54.9423 62.9877 54.9423 59.7033C54.9423 56.4189 57.2423 52.4215 60.0989 50.7747C62.9555 49.1279 65.2509 50.4665 65.2509 53.7509C65.2509 57.0353 62.9417 61.0097 60.0989 62.6565V62.6795Z" fill="#EBEBEB"/>
<path d="M52.67 48.7784L55.6508 50.4988L52.9736 49.565L49.9928 47.84L52.67 48.7784Z" fill="#F0F0F0"/>
<path d="M49.9925 47.8447L47.3698 52.391L50.3542 54.1126L52.9769 49.5663L49.9925 47.8447Z" fill="#F5F5F5"/>
<path d="M47.3662 52.3848L50.3516 54.1052L52.4998 55.9544L49.5144 54.2386L47.3662 52.3848Z" fill="#E0E0E0"/>
<path d="M48.5944 57.3297L51.5798 59.0501L48.1712 61.4467L45.1858 59.7263L48.5944 57.3297Z" fill="#F5F5F5"/>
<path d="M45.1858 59.7263L48.1712 61.4467V65.7339L45.1858 64.0135V59.7263Z" fill="#E0E0E0"/>
<path d="M61.9528 41.8599L58.9674 40.1395L55.2598 42.2831L58.2406 44.0035L61.9528 41.8599Z" fill="#F5F5F5"/>
<path d="M100.225 164.703L143.465 139.734C143.56 139.701 143.643 139.638 143.701 139.556C143.759 139.474 143.791 139.375 143.791 139.274C143.791 139.173 143.759 139.075 143.701 138.992C143.643 138.91 143.56 138.848 143.465 138.814L139.467 136.514C139.22 136.39 138.946 136.325 138.669 136.325C138.392 136.325 138.119 136.39 137.871 136.514L94.6174 161.46C94.5221 161.493 94.4396 161.556 94.3812 161.638C94.3229 161.721 94.2915 161.819 94.2915 161.92C94.2915 162.021 94.3229 162.119 94.3812 162.202C94.4396 162.284 94.5221 162.346 94.6174 162.38L98.6286 164.68C98.8744 164.808 99.1468 164.877 99.424 164.881C99.7011 164.885 99.9754 164.824 100.225 164.703V164.703Z" fill="#E0E0E0"/>
<path d="M142.278 43.332L103.288 65.8444C102.709 66.2226 102.226 66.7321 101.88 67.3314C101.534 67.9308 101.334 68.6033 101.297 69.2944V161.787C101.297 163.056 102.189 163.571 103.288 162.937L142.278 140.424C142.858 140.047 143.341 139.537 143.687 138.938C144.034 138.338 144.233 137.665 144.27 136.974V44.482C144.27 43.2124 143.382 42.6972 142.278 43.332Z" fill="#455A64"/>
<path d="M103.288 65.8444L142.278 43.332C143.262 42.7616 144.077 43.1158 144.242 44.1048C144.15 43.483 143.928 42.8877 143.589 42.3581C143.25 41.8285 142.804 41.3765 142.278 41.032L140.659 40.112C140.041 39.7988 139.359 39.6356 138.667 39.6356C137.975 39.6356 137.292 39.7988 136.675 40.112L97.6809 62.606C97.0936 62.9743 96.6093 63.4855 96.2733 64.0918L101.881 67.3118C102.217 66.7103 102.701 66.205 103.288 65.8444V65.8444Z" fill="#37474F"/>
<path d="M95.6799 158.548C95.7177 159.239 95.9177 159.912 96.2637 160.511C96.6098 161.111 97.0921 161.62 97.6717 161.998L99.2955 162.918C99.8575 163.199 100.473 163.359 101.1 163.386C101.728 163.413 102.355 163.307 102.939 163.075C102.019 163.433 101.287 162.904 101.287 161.768V69.2944C101.31 68.6004 101.512 67.924 101.872 67.3302L96.2641 64.1102C95.9092 64.6995 95.7083 65.3687 95.6799 66.056V158.548Z" fill="#263238"/>
<path d="M104.36 78.1678L141.22 56.8928C141.882 56.5156 142.416 56.8238 142.416 57.5828V126.04C142.394 126.455 142.274 126.859 142.066 127.218C141.858 127.578 141.568 127.884 141.22 128.11L104.374 149.385C103.712 149.767 103.178 149.459 103.178 148.695V80.2378C103.199 79.8242 103.317 79.4213 103.522 79.0618C103.728 78.7022 104.015 78.3959 104.36 78.1678V78.1678Z" fill="white"/>
<path d="M122.783 58.0934C122.58 58.227 122.41 58.4064 122.289 58.6174C122.168 58.8283 122.097 59.0648 122.084 59.3078C122.084 59.7678 122.397 59.938 122.783 59.7126C122.987 59.5798 123.157 59.4006 123.279 59.1895C123.4 58.9784 123.47 58.7415 123.482 58.4982C123.482 58.052 123.17 57.8726 122.783 58.0934Z" fill="#37474F"/>
<path d="M122.783 142.02C121.979 142.546 121.31 143.255 120.831 144.087C120.351 144.92 120.074 145.854 120.023 146.814C120.023 148.575 121.261 149.293 122.783 148.41C123.587 147.883 124.256 147.175 124.735 146.343C125.215 145.51 125.492 144.576 125.543 143.617C125.552 141.855 124.31 141.137 122.783 142.02Z" fill="#37474F"/>
<path d="M116.164 65.2142C115.76 65.4826 115.424 65.8422 115.184 66.2641C114.945 66.686 114.807 67.1583 114.784 67.643C114.784 68.5354 115.409 68.8988 116.164 68.4526C116.572 68.1868 116.912 67.8283 117.156 67.4062C117.4 66.9842 117.541 66.5105 117.567 66.0238C117.567 65.1314 116.941 64.768 116.164 65.2142Z" fill="#37474F"/>
<path d="M119.6 64.9106C119.6 65.5086 120.06 65.734 120.598 65.4166L129.798 60.0944C130.083 59.9164 130.322 59.6737 130.496 59.3859C130.669 59.0982 130.772 58.7735 130.796 58.4384C130.796 57.845 130.336 57.6196 129.798 57.937L120.598 63.2592C120.314 63.4367 120.075 63.6787 119.902 63.9657C119.728 64.2526 119.625 64.5763 119.6 64.9106V64.9106Z" fill="#37474F"/>
<path d="M98.7895 81.1302C99.116 81.3428 99.3877 81.6294 99.5827 81.9667C99.7777 82.3039 99.8905 82.6824 99.912 83.0714C99.912 83.789 99.4105 84.0788 98.7895 83.72C98.4642 83.5066 98.1936 83.2197 97.9994 82.8825C97.8053 82.5454 97.693 82.1673 97.6718 81.7788C97.6718 81.0658 98.1731 80.776 98.7895 81.1302Z" fill="#37474F"/>
<path d="M98.7895 89.769C99.116 89.9816 99.3877 90.2682 99.5827 90.6055C99.7777 90.9427 99.8905 91.3212 99.912 91.7102C99.912 92.4232 99.4105 92.713 98.7895 92.3588C98.4642 92.1454 98.1936 91.8585 97.9994 91.5214C97.8053 91.1842 97.693 90.8061 97.6718 90.4176C97.6718 89.7 98.1731 89.4102 98.7895 89.769Z" fill="#37474F"/>
<path d="M98.44 81.305C98.7665 81.5176 99.0382 81.8042 99.2332 82.1415C99.4282 82.4787 99.541 82.8572 99.5624 83.2462C99.5624 83.9592 99.061 84.249 98.44 83.8948C98.1136 83.6822 97.8418 83.3956 97.6468 83.0583C97.4518 82.7211 97.339 82.3426 97.3176 81.9536C97.3222 81.236 97.8236 80.96 98.44 81.305Z" fill="#455A64"/>
<path d="M98.44 89.9392C98.7671 90.1523 99.0392 90.4396 99.2342 90.7777C99.4293 91.1158 99.5417 91.4952 99.5624 91.885C99.5624 92.598 99.061 92.8878 98.44 92.529C98.1128 92.3172 97.8405 92.0308 97.6454 91.6934C97.4503 91.3559 97.338 90.9771 97.3176 90.5878C97.3222 89.8748 97.8236 89.585 98.44 89.9392Z" fill="#455A64"/>
<path d="M149.877 59.7494C149.877 58.9858 149.344 58.6776 148.681 59.0594L144.27 61.6032L111.835 80.3344C111.487 80.5608 111.197 80.8663 110.989 81.226C110.781 81.5858 110.661 81.9896 110.639 82.4044V150.843C110.639 151.607 111.173 151.915 111.835 151.533L144.284 132.797L148.681 130.258C149.03 130.032 149.319 129.726 149.527 129.367C149.735 129.007 149.855 128.603 149.877 128.188V59.7494Z" fill="white"/>
<path d="M150.337 59.7493C150.366 59.5187 150.326 59.2846 150.223 59.0763C150.12 58.8681 149.957 58.695 149.756 58.5786C149.555 58.4623 149.323 58.4078 149.091 58.4222C148.859 58.4365 148.637 58.5189 148.451 58.6591L144.242 61.0925L111.605 79.9525C111.185 80.2178 110.836 80.5812 110.587 81.0116C110.339 81.4419 110.199 81.9262 110.179 82.4227V150.843C110.161 151.073 110.205 151.303 110.307 151.51C110.409 151.716 110.565 151.891 110.759 152.016C110.923 152.112 111.111 152.161 111.302 152.159C111.571 152.15 111.834 152.073 112.065 151.933L144.725 133.073L148.925 130.649C149.343 130.381 149.69 130.017 149.938 129.587C150.186 129.158 150.328 128.675 150.351 128.179L150.337 59.7493ZM144.251 132.287L143.874 132.508L111.624 151.128C111.569 151.17 111.507 151.199 111.44 151.213C111.373 151.228 111.304 151.227 111.237 151.211C111.177 151.174 111.118 151.046 111.118 150.834V82.4043C111.141 82.0703 111.241 81.7461 111.408 81.4561C111.575 81.166 111.806 80.9177 112.084 80.7299L144.302 62.0999L148.902 59.4365C148.956 59.3949 149.019 59.3659 149.086 59.3515C149.153 59.3372 149.222 59.338 149.288 59.3537C149.348 59.3905 149.408 59.5193 149.408 59.7309V128.188C149.384 128.522 149.285 128.846 149.117 129.136C148.95 129.426 148.719 129.675 148.442 129.863L144.242 132.287H144.251Z" fill="#35D0B4"/>
<path d="M130.258 75.6516C134.398 73.2688 137.733 75.1916 137.733 79.971C137.733 84.7504 134.384 90.551 130.258 92.9154C126.132 95.2798 122.783 93.3754 122.783 88.6006C122.783 83.8258 126.132 78.039 130.258 75.6516Z" fill="#35D0B4"/>
<path d="M130.258 79.4052C131.597 78.6324 132.682 79.258 132.682 80.7852C132.637 81.6265 132.394 82.4453 131.972 83.175C131.551 83.9047 130.964 84.5248 130.258 84.985C128.92 85.7578 127.834 85.1322 127.834 83.605C127.879 82.7637 128.123 81.9449 128.544 81.2152C128.965 80.4855 129.552 79.8654 130.258 79.4052V79.4052Z" fill="#35D0B4"/>
<path d="M134.982 87.6484C134.982 85.1092 133.202 84.0788 130.999 85.3484L129.619 86.1442C127.42 87.4138 125.635 90.505 125.635 93.0442V93.7296C126.909 94.1482 128.51 93.9228 130.235 92.9154C132.146 91.7367 133.762 90.1365 134.959 88.2372L134.982 87.6484Z" fill="#35D0B4"/>
<path opacity="0.7" d="M130.258 79.4052C131.597 78.6324 132.682 79.258 132.682 80.7852C132.637 81.6265 132.394 82.4453 131.972 83.175C131.551 83.9047 130.964 84.5248 130.258 84.985C128.92 85.7578 127.834 85.1322 127.834 83.605C127.879 82.7637 128.123 81.9449 128.544 81.2152C128.965 80.4855 129.552 79.8654 130.258 79.4052V79.4052Z" fill="white"/>
<path opacity="0.7" d="M134.982 87.6484C134.982 85.1092 133.202 84.0788 130.999 85.3484L129.619 86.1442C127.42 87.4138 125.635 90.505 125.635 93.0442V93.7296C126.909 94.1482 128.51 93.9228 130.235 92.9154C132.146 91.7367 133.762 90.1365 134.959 88.2372L134.982 87.6484Z" fill="white"/>
<path d="M115.796 103.426L125.414 97.8742C125.874 97.6212 126.21 97.8236 126.21 98.3342V98.6516C126.196 98.928 126.116 99.1971 125.978 99.4369C125.839 99.6768 125.646 99.8805 125.414 100.032L115.796 105.584C115.359 105.837 115 105.63 115 105.124V104.806C115.015 104.53 115.095 104.261 115.233 104.021C115.371 103.782 115.564 103.578 115.796 103.426V103.426Z" fill="#35D0B4"/>
<path opacity="0.1" d="M115.796 103.426L125.414 97.8742C125.874 97.6212 126.21 97.8236 126.21 98.3342V98.6516C126.196 98.928 126.116 99.1971 125.978 99.4369C125.839 99.6768 125.646 99.8805 125.414 100.032L115.796 105.584C115.359 105.837 115 105.63 115 105.124V104.806C115.015 104.53 115.095 104.261 115.233 104.021C115.371 103.782 115.564 103.578 115.796 103.426V103.426Z" fill="black"/>
<path d="M115.4 110.129L144.5 93.3294C144.716 93.2006 144.895 93.3018 144.895 93.5594V96.9542C144.887 97.092 144.847 97.226 144.779 97.3457C144.71 97.4654 144.615 97.5676 144.5 97.6442L115.4 114.443C115.179 114.572 115 114.466 115 114.213V110.819C115.008 110.68 115.048 110.546 115.118 110.426C115.187 110.306 115.284 110.204 115.4 110.129V110.129Z" fill="#35D0B4"/>
<path opacity="0.2" d="M115.4 110.129L144.5 93.3294C144.716 93.2006 144.895 93.3018 144.895 93.5594V96.9542C144.887 97.092 144.847 97.226 144.779 97.3457C144.71 97.4654 144.615 97.5676 144.5 97.6442L115.4 114.443C115.179 114.572 115 114.466 115 114.213V110.819C115.008 110.68 115.048 110.546 115.118 110.426C115.187 110.306 115.284 110.204 115.4 110.129V110.129Z" fill="white"/>
<path d="M115.796 118.528L125.414 112.976C125.874 112.723 126.21 112.93 126.21 113.436V113.753C126.196 114.03 126.116 114.299 125.978 114.539C125.84 114.779 125.647 114.983 125.414 115.133L115.796 120.686C115.359 120.943 115 120.736 115 120.226V119.908C115.016 119.632 115.096 119.363 115.234 119.124C115.372 118.884 115.565 118.68 115.796 118.528V118.528Z" fill="#35D0B4"/>
<path opacity="0.1" d="M115.796 118.528L125.414 112.976C125.874 112.723 126.21 112.93 126.21 113.436V113.753C126.196 114.03 126.116 114.299 125.978 114.539C125.84 114.779 125.647 114.983 125.414 115.133L115.796 120.686C115.359 120.943 115 120.736 115 120.226V119.908C115.016 119.632 115.096 119.363 115.234 119.124C115.372 118.884 115.565 118.68 115.796 118.528V118.528Z" fill="black"/>
<path d="M115.4 125.23L144.5 108.431C144.716 108.302 144.895 108.408 144.895 108.661V112.056C144.887 112.194 144.847 112.328 144.779 112.448C144.71 112.567 144.615 112.669 144.5 112.746L115.4 129.545C115.179 129.674 115 129.573 115 129.315V125.92C115.008 125.782 115.048 125.648 115.118 125.528C115.187 125.408 115.284 125.306 115.4 125.23V125.23Z" fill="#35D0B4"/>
<path opacity="0.2" d="M115.4 125.23L144.5 108.431C144.716 108.302 144.895 108.408 144.895 108.661V112.056C144.887 112.194 144.847 112.328 144.779 112.448C144.71 112.567 144.615 112.669 144.5 112.746L115.4 129.545C115.179 129.674 115 129.573 115 129.315V125.92C115.008 125.782 115.048 125.648 115.118 125.528C115.187 125.408 115.284 125.306 115.4 125.23V125.23Z" fill="white"/>
<path d="M127.006 127.158L138.506 120.529C138.966 120.272 139.306 120.479 139.306 120.989V124.54C139.291 124.817 139.211 125.087 139.072 125.326C138.933 125.566 138.739 125.77 138.506 125.92L127.006 132.554C126.546 132.807 126.21 132.6 126.21 132.094V128.538C126.226 128.262 126.306 127.993 126.445 127.754C126.583 127.514 126.775 127.31 127.006 127.158Z" fill="#35D0B4"/>
<path opacity="0.1" d="M127.006 127.158L138.506 120.529C138.966 120.272 139.306 120.479 139.306 120.989V124.54C139.291 124.817 139.211 125.087 139.072 125.326C138.933 125.566 138.739 125.77 138.506 125.92L127.006 132.554C126.546 132.807 126.21 132.6 126.21 132.094V128.538C126.226 128.262 126.306 127.993 126.445 127.754C126.583 127.514 126.775 127.31 127.006 127.158Z" fill="black"/>
<path d="M154.238 112.171C154.238 112.171 148.589 104.379 148.258 103.431C147.996 102.732 148.258 101.692 148.341 101.209C148.424 100.726 148.497 99.6498 148.58 99.3692C148.718 98.8448 148.042 98.9505 147.66 99.4289C147.278 99.9073 147.149 100.864 146.952 101.021C146.754 101.177 145.25 98.9828 144.463 97.9708C143.676 96.9588 143.184 96.3423 142.701 96.7195C142.356 96.9909 142.614 97.5797 143.184 98.4445C143.517 98.9102 143.824 99.394 144.104 99.8936C144.192 100.082 143.722 100.096 143.469 100.487C143.272 100.791 143.469 101.283 143.193 101.517C143.024 101.647 142.907 101.834 142.866 102.043C142.826 102.253 142.863 102.47 142.973 102.654C143.485 103.458 144.145 104.157 144.918 104.714C145.765 105.299 146.105 105.506 146.607 106.301C147.108 107.097 151.607 115.225 151.91 115.713C152.214 116.201 152.798 117.194 153.686 117.222C154.574 117.249 161.842 110.993 162.214 110.681C163.41 109.682 163.792 109.54 163.995 110.437C164.064 110.756 164.117 111.078 164.151 111.403C164.294 112.544 165.071 116.619 165.071 116.619C165.071 116.619 168.751 118.399 171.773 117.539C174.795 116.679 175.817 115.396 175.817 115.396L174.303 112.93C174.713 111.913 176.603 107.792 177.215 104.908L167.739 103.376C167.546 103.334 167.233 103.256 166.819 103.15C166.299 103.012 164.979 102.557 163.981 103.431C160.724 106.269 154.247 112.171 154.247 112.171" fill="#FFA8A7"/>
<path d="M173.024 159.983L171.327 162.343C172.098 162.703 172.941 162.884 173.792 162.872C175.315 162.927 175.734 162.412 175.789 162.311C176.046 161.759 175.646 160.765 175.536 159.91L173.024 159.983Z" fill="#37474F"/>
<path d="M171.424 161.212C171.424 161.212 169.363 161.078 167.941 160.903C166.52 160.729 165.393 161.419 165.724 162.003C166.055 162.587 166.842 163.075 168.066 163.484C169.11 163.838 170.366 164.091 171.451 164.404C172.537 164.717 173.291 165.126 173.921 164.905C174.625 164.662 174.929 164.381 174.869 163.866C174.715 163.133 174.525 162.408 174.299 161.695L171.424 161.212Z" fill="#37474F"/>
<path d="M175.789 157.614C175.789 157.614 175.531 159.758 175.513 160.218C175.495 160.678 173.42 160.825 173.024 159.983L172.96 157.361L175.789 157.614Z" fill="#F28F8F"/>
<path d="M173.701 158.93L174.441 162.187C174.441 162.187 174.51 162.582 172.817 162.835C171.125 163.088 168.466 161.948 168.01 161.718C167.555 161.488 167.504 161.023 169.17 161.115C170.835 161.207 171.424 161.212 171.424 161.212L170.881 159.772L173.701 158.93Z" fill="#FFA8A7"/>
<path d="M177.187 104.88L178.36 104.553C178.36 104.553 180.812 112.314 181.084 113.063C181.355 113.813 181.663 114.604 181.134 115.529C180.504 116.628 177.187 121.049 177.187 121.049L175.081 118.988L177.473 114.609L175.357 110.331L177.187 104.88Z" fill="#F28F8F"/>
<path d="M165.14 94.8014C164.865 94.2851 164.725 93.7076 164.734 93.1228C164.743 92.5379 164.9 91.9649 165.191 91.4572C166.359 89.2906 168.963 88.2372 172.063 88.6374C173.498 88.826 175.191 90.0174 176.116 91.7976C177.137 93.771 177.233 97.7454 177.496 99.2496L165.14 94.8014Z" fill="#37474F"/>
<path d="M165.057 95.6524C165.057 95.6524 164.321 97.0554 164.45 97.1842C164.641 97.2956 164.849 97.3734 165.066 97.4142L165.057 95.6524Z" fill="#FFA8A7"/>
<path d="M167.293 91.218C166.492 91.7378 165.112 92.6946 165.053 95.8456C164.988 99.0656 165.448 100.128 165.927 100.501C166.249 100.754 168.139 100.625 168.949 100.436C169.758 100.248 172.091 99.0932 172.932 97.3406C173.921 95.2798 173.719 92.2806 172.252 91.3606C171.505 90.9189 170.658 90.6742 169.791 90.6492C168.923 90.6243 168.064 90.82 167.293 91.218V91.218Z" fill="#FFA8A7"/>
<path d="M175.789 115.377C177.206 117.585 178.549 119.517 178.843 122.01C179.451 127.25 177.463 133.239 177.036 137.117C177.84 138.22 178.304 139.534 178.37 140.898C178.37 142.503 175.789 157.614 175.789 157.614C175.789 157.614 173.912 158.185 172.96 157.361L171.189 129.564L172.109 126.178L175.789 115.377Z" fill="#35D0B4"/>
<path opacity="0.2" d="M175.789 115.377C177.206 117.585 178.549 119.517 178.843 122.01C179.451 127.25 177.463 133.239 177.036 137.117C177.84 138.22 178.304 139.534 178.37 140.898C178.37 142.503 175.789 157.614 175.789 157.614C175.789 157.614 173.912 158.185 172.96 157.361L171.189 129.564L172.109 126.178L175.789 115.377Z" fill="black"/>
<path d="M171.189 129.564L172.109 126.178C173.87 125.714 175.569 125.039 177.169 124.168C177.169 124.168 176.212 125.911 173.461 126.868L172.04 131.215L171.92 141.174L171.189 129.564Z" fill="#35D0B4"/>
<path opacity="0.3" d="M171.189 129.564L172.109 126.178C173.87 125.714 175.569 125.039 177.169 124.168C177.169 124.168 176.212 125.911 173.461 126.868L172.04 131.215L171.92 141.174L171.189 129.564Z" fill="black"/>
<path d="M175.789 115.377C176.548 116.619 178.36 118.735 177.974 120.773C177.514 123.239 176.18 124.973 172.123 126.178L168.314 139.978C168.314 139.978 170.297 141.818 170.904 143.598C171.511 145.378 173.701 158.939 173.701 158.939C173.701 158.939 173.02 160.048 170.881 159.781C170.881 159.781 163.424 142.761 162.9 141.652C162.263 140.53 162.04 139.219 162.27 137.949C162.504 136.165 165.03 116.628 165.03 116.628L175.789 115.377Z" fill="#35D0B4"/>
<path opacity="0.2" d="M175.789 115.377C176.548 116.619 178.36 118.735 177.974 120.773C177.514 123.239 176.18 124.973 172.123 126.178L168.314 139.978C168.314 139.978 170.297 141.818 170.904 143.598C171.511 145.378 173.701 158.939 173.701 158.939C173.701 158.939 173.02 160.048 170.881 159.781C170.881 159.781 163.424 142.761 162.9 141.652C162.263 140.53 162.04 139.219 162.27 137.949C162.504 136.165 165.03 116.628 165.03 116.628L175.789 115.377Z" fill="black"/>
<path d="M177.187 104.88L167.711 103.348C167.518 103.307 167.205 103.229 166.791 103.123C166.791 103.123 166.387 109.066 163.953 110.428C164.013 110.713 164.064 111.03 164.11 111.394C164.252 112.534 165.03 116.61 165.03 116.61C165.03 116.61 168.71 118.39 171.732 117.53C174.754 116.67 175.775 115.386 175.775 115.386L174.262 112.921C174.685 111.895 176.589 107.773 177.187 104.88Z" fill="#35D0B4"/>
<path opacity="0.7" d="M177.187 104.88L167.711 103.348C167.518 103.307 167.205 103.229 166.791 103.123C166.791 103.123 166.387 109.066 163.953 110.428C164.013 110.713 164.064 111.03 164.11 111.394C164.252 112.534 165.03 116.61 165.03 116.61C165.03 116.61 168.71 118.39 171.732 117.53C174.754 116.67 175.775 115.386 175.775 115.386L174.262 112.921C174.685 111.895 176.589 107.773 177.187 104.88Z" fill="white"/>
<path d="M174.69 111.941C173.431 112.697 172.113 113.347 170.747 113.887C171.986 113.862 173.2 113.527 174.276 112.912L174.69 111.941Z" fill="#35D0B4"/>
<path d="M167.058 91.3743C167.058 91.3743 166.598 94.3644 167.684 96.1216C167.684 96.1216 168.089 94.9301 169.096 95.1555C170.103 95.3809 170.159 96.7103 169.45 97.4555C169.27 97.6646 169.035 97.8186 168.771 97.9C168.508 97.9813 168.226 97.9867 167.96 97.9155C167.96 97.9155 167.799 100.078 167.711 101.89C167.624 103.702 167.146 107.654 169.183 109.25C171.221 110.846 176.336 111.407 178.733 108.059C180.067 106.196 178.296 102.902 177.473 99.2081C176.714 95.8133 176.286 90.7809 172.684 89.9713C169.082 89.1617 167.058 91.3743 167.058 91.3743Z" fill="#37474F"/>
<path d="M180.274 50.5219L179.515 50.9819C179.579 50.7118 179.614 50.4359 179.621 50.1585C179.621 48.6175 178.54 47.9965 177.206 48.7785C176.8 49.0233 176.438 49.3343 176.134 49.6985V49.6985C176.134 47.6285 174.68 46.7867 172.886 47.8217C171.941 48.4382 171.154 49.2689 170.59 50.2463C170.026 51.2238 169.7 52.3205 169.639 53.4475C169.639 53.5533 169.639 53.6545 169.639 53.7557C169.177 53.6975 168.709 53.8051 168.319 54.0593C167.616 54.5173 167.031 55.1346 166.611 55.8612C166.191 56.5877 165.949 57.4029 165.904 58.2407C165.903 58.4354 165.923 58.6297 165.963 58.8203L165.559 59.0549C164.459 59.6897 163.567 60.9271 163.567 61.8149C163.567 62.7027 164.459 62.9143 165.559 62.2749L180.279 53.7879C181.378 53.1531 182.27 51.9157 182.27 51.0279C182.27 50.1401 181.373 49.8825 180.274 50.5219Z" fill="#EBEBEB"/>
</svg>
