<svg width="221" height="220" viewBox="0 0 221 220" fill="none" xmlns="http://www.w3.org/2000/svg">
<g style="mix-blend-mode:darken">
<path d="M208.417 46.2307C174.217 35.0962 6.39874 102.196 1.12699 139.281C0.398621 144.405 1.97823 150.127 4.20083 154.801C13.5983 174.563 62.9687 204.371 104.608 194.911C114.637 192.633 125.53 196.05 122.926 205.999C121.748 210.496 120.033 214.511 119.33 216.998C118.442 220.143 123.23 219.151 126.408 218.39C167.559 208.539 232.395 82.2474 218.2 54.4389C216.27 50.6585 212.452 47.5447 208.417 46.2307Z" fill="#35D0B4"/>
</g>
<path d="M39.1264 153.784C70.6314 170.242 121.707 170.242 153.212 153.784C184.717 137.326 184.714 110.646 153.212 94.188C121.711 77.7305 70.6314 77.7305 39.1264 94.188C7.62135 110.646 7.62511 137.326 39.1264 153.784Z" fill="#F5F5F5"/>
<path d="M153.645 113.221C159.785 113.221 164.763 110.849 164.763 107.923C164.763 104.997 159.785 102.625 153.645 102.625C147.504 102.625 142.526 104.997 142.526 107.923C142.526 110.849 147.504 113.221 153.645 113.221Z" fill="#E6E6E6"/>
<path d="M38.9309 144.215C44.5605 144.215 49.1243 142.04 49.1243 139.357C49.1243 136.674 44.5605 134.499 38.9309 134.499C33.3013 134.499 28.7375 136.674 28.7375 139.357C28.7375 142.04 33.3013 144.215 38.9309 144.215Z" fill="#E6E6E6"/>
<path d="M114.612 153.555C120.47 153.555 125.219 151.29 125.219 148.497C125.219 145.704 120.47 143.44 114.612 143.44C108.754 143.44 104.005 145.704 104.005 148.497C104.005 151.29 108.754 153.555 114.612 153.555Z" fill="#E6E6E6"/>
<path d="M61.9647 129.355C67.8228 129.355 72.5717 127.091 72.5717 124.298C72.5717 121.505 67.8228 119.241 61.9647 119.241C56.1066 119.241 51.3577 121.505 51.3577 124.298C51.3577 127.091 56.1066 129.355 61.9647 129.355Z" fill="#E6E6E6"/>
<path d="M124.384 95.5566C124.644 92.4396 131.788 80.746 133.972 78.9337C136.157 77.1213 140.015 72.5417 138.353 69.9397C136.691 67.3378 131.807 68.4959 127.219 76.6062C123.662 82.8967 122.557 96.8087 122.557 96.8087L124.384 95.5566Z" fill="#35D0B4"/>
<path d="M123.407 95.2634H123.377C123.352 95.2597 123.329 95.2512 123.308 95.2384C123.287 95.2256 123.269 95.2087 123.254 95.1887C123.24 95.1688 123.23 95.1461 123.224 95.1221C123.219 95.0981 123.218 95.0733 123.223 95.049C125.242 81.9943 129.532 73.8502 136.337 70.1503C136.381 70.1264 136.433 70.1209 136.481 70.135C136.505 70.142 136.527 70.1535 136.546 70.1691C136.565 70.1846 136.581 70.2038 136.593 70.2255C136.605 70.2473 136.612 70.2711 136.615 70.2957C136.618 70.3203 136.615 70.3452 136.608 70.3689C136.601 70.3927 136.59 70.4148 136.574 70.4341C136.559 70.4533 136.54 70.4694 136.518 70.4812C129.821 74.1209 125.595 82.1786 123.591 95.1092C123.583 95.1524 123.56 95.1914 123.527 95.2196C123.493 95.2477 123.451 95.2632 123.407 95.2634Z" fill="white"/>
<path d="M125.103 80.4339C125.103 80.4339 130.837 70.5226 135.585 65.9842C138.217 63.4688 139.834 61.8482 139.691 59.9457C139.586 58.5018 138.387 57.731 135.807 58.3665C130.667 59.6298 127.911 64.8374 126.137 70.6692C124.877 74.7751 125.103 80.4339 125.103 80.4339Z" fill="#35D0B4"/>
<path opacity="0.2" d="M125.103 80.4339C125.103 80.4339 130.837 70.5226 135.585 65.9842C138.217 63.4688 139.834 61.8482 139.691 59.9457C139.586 58.5018 138.387 57.731 135.807 58.3665C130.667 59.6298 127.911 64.8374 126.137 70.6692C124.877 74.7751 125.103 80.4339 125.103 80.4339Z" fill="black"/>
<path d="M125.768 78.8058H125.742C125.692 78.7975 125.648 78.77 125.618 78.7292C125.589 78.6884 125.576 78.6376 125.584 78.5878C127.625 65.706 135.386 60.8556 137.717 59.675C137.762 59.6527 137.813 59.6488 137.86 59.6643C137.908 59.6798 137.947 59.7134 137.969 59.7577C137.981 59.7796 137.988 59.8035 137.99 59.8282C137.992 59.8529 137.989 59.8777 137.981 59.9012C137.974 59.9247 137.961 59.9464 137.945 59.965C137.929 59.9837 137.909 59.9988 137.887 60.0096C135.597 61.1714 127.971 65.9391 125.956 78.6479C125.949 78.6924 125.926 78.7328 125.891 78.7618C125.857 78.7908 125.813 78.8064 125.768 78.8058Z" fill="white"/>
<path d="M47.3721 33.9528L44.7627 32.4488C43.7963 31.8735 42.3638 31.9863 40.762 32.9113C38.5474 34.1897 36.6523 37.2954 35.874 39.9011L34.0241 38.837C33.0728 38.1978 31.7681 38.085 30.328 38.9348C27.4215 40.6118 25.064 44.3266 25.064 47.2294C25.064 49.9854 26.7635 51.7414 28.8541 52.8694L30.9108 54.0575L30.9371 53.7642C31.3507 53.9034 31.7606 54.0274 32.1591 54.1402L35.5431 55.0351L38.9271 50.2223C42.157 45.6389 46.0035 39.3183 46.0035 35.1447C46.0035 34.9868 45.9959 34.8326 45.9809 34.6822L46.6953 35.0582L47.3721 33.9528Z" fill="#F28F8F"/>
<path d="M47.3721 33.9528L44.7627 32.4488C43.7963 31.8735 42.3638 31.9863 40.762 32.9113C38.5474 34.1897 36.6523 37.2954 35.874 39.9011L34.0241 38.837C33.0728 38.1978 31.7681 38.085 30.328 38.9348C27.4215 40.6118 25.064 44.3266 25.064 47.2294C25.064 49.9854 26.7635 51.7414 28.8541 52.8694L30.9108 54.0575L30.9371 53.7642C31.3507 53.9034 31.7606 54.0274 32.1591 54.1402L35.5431 55.0351L38.9271 50.2223C42.157 45.6389 46.0035 39.3183 46.0035 35.1447C46.0035 34.9868 45.9959 34.8326 45.9809 34.6822L46.6953 35.0582L47.3721 33.9528Z" fill="#E6E6E6"/>
<path d="M38.224 56.5692L34.84 55.6706C31.6027 54.8133 27.7411 52.922 27.7411 48.7747C27.7411 45.8683 30.0987 42.1534 33.0051 40.4764C35.6785 38.9311 37.8931 40.5817 38.2203 42.9731C38.5587 40.1982 40.7658 35.9945 43.4391 34.4529C46.3419 32.7759 48.7031 33.7723 48.7031 36.6751C48.7031 40.8111 44.8529 47.1692 41.6268 51.7564L38.224 56.5692Z" fill="#F0F0F0"/>
<path d="M71.1391 34.6559C71.1435 34.4674 71.1169 34.2793 71.0601 34.0994L73.0868 31.7795L70.4924 30.3206C70.248 30.1514 69.8945 30.1326 69.4208 30.4071L64.9088 33.0203L64.3034 33.37C64.4102 32.8489 64.4831 32.3214 64.5215 31.7908C64.5215 31.569 64.5403 31.3546 64.5403 31.1441L64.623 31.1892L66.127 29.4145L63.5552 27.9669C62.6866 27.3991 61.1826 28.4745 61.1826 28.8994C61.1826 29.4145 61.4044 32.0954 61.1826 32.8624C60.9608 33.6294 58.6446 38.9273 58.6446 38.9273V49.9742L67.1046 45.0862C68.2326 44.4394 68.9846 43.0708 68.9846 42.1421C68.997 41.727 68.92 41.3141 68.759 40.9314C69.4772 40.5178 70.1953 39.0175 70.1953 38.3783C70.1953 37.4158 69.8644 37.1676 69.8644 37.1676C70.2328 36.8543 70.5352 36.471 70.754 36.0398C70.9728 35.6086 71.1037 35.1382 71.1391 34.6559Z" fill="#FAFAFA"/>
<path d="M61.348 51.4782L58.6747 49.9328L58.6634 38.8897L61.3405 40.4351L61.348 51.4782Z" fill="#E6E6E6"/>
<path d="M72.9025 39.8748C72.9025 40.514 72.1881 42.0143 71.4699 42.4279C71.6263 42.8144 71.7006 43.2293 71.688 43.6461C71.688 44.5673 70.9172 45.9435 69.808 46.5827L61.348 51.4707V40.8975V40.4313C61.348 40.4313 63.6717 35.1297 63.8898 34.3627C64.1079 33.5956 63.8898 30.9185 63.8898 30.4034C63.8898 29.8883 65.9916 28.4895 66.6571 29.9559C67.3227 31.4223 67.3791 32.9188 66.9918 34.8665L72.1054 31.9111C73.1845 31.287 73.6094 32.1819 73.6094 32.8812C73.5753 33.6844 73.2869 34.4559 72.7859 35.0846C72.7859 35.0846 73.8049 34.7838 73.8049 36.1524C73.7762 36.6325 73.6512 37.102 73.4374 37.5328C73.2236 37.9637 72.9253 38.3471 72.5603 38.6603C72.5603 38.6603 72.9025 38.9198 72.9025 39.8748Z" fill="#F0F0F0"/>
<path d="M56.4374 55.8022L60.1335 53.6703L60.1222 40.8186L56.4374 42.9505V55.8022Z" fill="#F0F0F0"/>
<path d="M56.4375 55.8022L53.7604 54.2606V41.4051L56.4375 42.9505V55.8022Z" fill="#E6E6E6"/>
<path d="M57.4489 39.2732L60.1223 40.8186L56.4375 42.9505L53.7604 41.4051L57.4489 39.2732Z" fill="#F5F5F5"/>
<path d="M63.8785 34.3664C63.6604 35.1184 61.3367 40.435 61.3367 40.435L58.6671 38.931C58.6671 38.931 60.9833 33.6332 61.2051 32.8662C61.427 32.0991 61.2051 29.4182 61.2051 28.9031L63.8822 30.4071C63.8785 30.9222 64.1041 33.6031 63.8785 34.3664Z" fill="#E6E6E6"/>
<path d="M157.221 51.1774L155.98 48.8462L156.976 45.966V44.2026L153.923 45.966V47.7294L155.235 50.008C155.256 50.0436 155.287 50.0714 155.325 50.087L157.221 51.1774Z" fill="#35D0B4"/>
<path opacity="0.1" d="M157.221 51.1774L155.98 48.8462L156.976 45.966V44.2026L153.923 45.966V47.7294L155.235 50.008C155.256 50.0436 155.287 50.0714 155.325 50.087L157.221 51.1774Z" fill="black"/>
<path d="M150.137 40.232L158.544 35.344C158.828 35.2012 159.142 35.1268 159.46 35.1268C159.778 35.1268 160.091 35.2012 160.375 35.344L161.127 35.7764C161.395 35.9495 161.617 36.1836 161.777 36.4594C161.936 36.7352 162.028 37.0449 162.045 37.3631V44.1762C162.027 44.4942 161.935 44.8036 161.775 45.0792C161.616 45.3549 161.394 45.5892 161.127 45.763L152.712 50.651C152.428 50.7938 152.115 50.8682 151.797 50.8682C151.479 50.8682 151.165 50.7938 150.881 50.651L150.129 50.2186C149.863 50.0448 149.641 49.8105 149.482 49.5347C149.323 49.259 149.232 48.9496 149.215 48.6318V41.8112C149.235 41.4943 149.328 41.1863 149.488 40.912C149.648 40.6378 149.87 40.4049 150.137 40.232Z" fill="#35D0B4"/>
<path opacity="0.3" d="M150.137 40.232L158.544 35.344C158.828 35.2012 159.142 35.1268 159.46 35.1268C159.778 35.1268 160.091 35.2012 160.375 35.344L161.127 35.7764C161.395 35.9495 161.617 36.1836 161.777 36.4594C161.936 36.7352 162.028 37.0449 162.045 37.3631V44.1762C162.027 44.4942 161.935 44.8036 161.775 45.0792C161.616 45.3549 161.394 45.5892 161.127 45.763L152.712 50.651C152.428 50.7938 152.115 50.8682 151.797 50.8682C151.479 50.8682 151.165 50.7938 150.881 50.651L150.129 50.2186C149.863 50.0448 149.641 49.8105 149.482 49.5347C149.323 49.259 149.232 48.9496 149.215 48.6318V41.8112C149.235 41.4943 149.328 41.1863 149.488 40.912C149.648 40.6378 149.87 40.4049 150.137 40.232Z" fill="white"/>
<path d="M152.716 50.6434C152.208 50.9329 151.799 50.6998 151.799 50.1133V43.3001C151.816 42.9822 151.908 42.6728 152.068 42.3971C152.227 42.1215 152.449 41.8872 152.716 41.7134L161.131 36.8254C161.639 36.5321 162.048 36.769 162.048 37.3556V44.1687C162.031 44.4867 161.939 44.796 161.779 45.0717C161.62 45.3474 161.398 45.5816 161.131 45.7554" fill="#35D0B4"/>
<path d="M149.223 48.6243C149.239 48.9421 149.331 49.2514 149.49 49.5272C149.648 49.8029 149.87 50.0373 150.137 50.211L150.889 50.6434C151.147 50.773 151.429 50.8463 151.718 50.8586C152.006 50.8709 152.294 50.8219 152.562 50.7149C152.133 50.8803 151.81 50.6359 151.81 50.1133V43.3002C151.822 42.9813 151.915 42.6707 152.081 42.3978L149.501 40.8938C149.337 41.1671 149.245 41.4776 149.234 41.7962L149.223 48.6243Z" fill="#35D0B4"/>
<path opacity="0.1" d="M149.223 48.6243C149.239 48.9421 149.331 49.2514 149.49 49.5272C149.648 49.8029 149.87 50.0373 150.137 50.211L150.889 50.6434C151.147 50.773 151.429 50.8463 151.718 50.8586C152.006 50.8709 152.294 50.8219 152.562 50.7149C152.133 50.8803 151.81 50.6359 151.81 50.1133V43.3002C151.822 42.9813 151.915 42.6707 152.081 42.3978L149.501 40.8938C149.337 41.1671 149.245 41.4776 149.234 41.7962L149.223 48.6243Z" fill="black"/>
<path d="M155.837 48.8349L157.149 51.1097C157.168 51.1417 157.197 51.1676 157.23 51.1844C157.263 51.2013 157.301 51.2083 157.338 51.2048C157.376 51.2012 157.411 51.1873 157.441 51.1645C157.47 51.1417 157.493 51.1109 157.506 51.0758L158.894 47.0714V45.308L155.837 47.0714V48.8349Z" fill="#35D0B4"/>
<path d="M156.927 46.5074L155.987 46.2593C155.092 46.0224 154.024 45.5073 154.024 44.353C154.07 43.8827 154.225 43.4296 154.478 43.0305C154.73 42.6313 155.074 42.2973 155.48 42.0556C155.613 41.9604 155.769 41.9027 155.932 41.8885C156.095 41.8743 156.258 41.9041 156.406 41.9747C156.554 42.0454 156.679 42.1544 156.77 42.2903C156.861 42.4263 156.914 42.5841 156.923 42.7474C157.017 41.9954 157.627 40.8148 158.367 40.3862C159.172 39.9237 159.822 40.1982 159.822 41.0028C159.822 42.1534 158.758 43.9055 157.863 45.1764L156.927 46.5074Z" fill="white"/>
<path d="M32.6216 69.0712L41.0365 64.202C41.32 64.0574 41.6338 63.982 41.952 63.982C42.2703 63.982 42.5841 64.0574 42.8676 64.202L43.6196 64.6306C43.8855 64.8051 44.1067 65.0396 44.2655 65.3152C44.4242 65.5908 44.5159 65.8998 44.5333 66.2174V73.0305C44.5159 73.348 44.4242 73.6571 44.2655 73.9327C44.1067 74.2083 43.8855 74.4427 43.6196 74.6172L35.216 79.4864C34.9318 79.631 34.6174 79.7064 34.2986 79.7064C33.9797 79.7064 33.6653 79.631 33.3811 79.4864L32.6291 79.0578C32.3589 78.8833 32.1341 78.6471 31.9733 78.3685C31.8124 78.09 31.7202 77.7772 31.7042 77.456V70.6579C31.7208 70.3397 31.8126 70.03 31.9721 69.7542C32.1315 69.4784 32.3541 69.2443 32.6216 69.0712Z" fill="#35D0B4"/>
<path opacity="0.3" d="M32.6216 69.0712L41.0365 64.202C41.32 64.0574 41.6338 63.982 41.952 63.982C42.2703 63.982 42.5841 64.0574 42.8676 64.202L43.6196 64.6306C43.8855 64.8051 44.1067 65.0396 44.2655 65.3152C44.4242 65.5908 44.5159 65.8998 44.5333 66.2174V73.0305C44.5159 73.348 44.4242 73.6571 44.2655 73.9327C44.1067 74.2083 43.8855 74.4427 43.6196 74.6172L35.216 79.4864C34.9318 79.631 34.6174 79.7064 34.2986 79.7064C33.9797 79.7064 33.6653 79.631 33.3811 79.4864L32.6291 79.0578C32.3589 78.8833 32.1341 78.6471 31.9733 78.3685C31.8124 78.09 31.7202 77.7772 31.7042 77.456V70.6579C31.7208 70.3397 31.8126 70.03 31.9721 69.7542C32.1315 69.4784 32.3541 69.2443 32.6216 69.0712Z" fill="white"/>
<path d="M39.7017 80.0241L38.4609 77.6891L39.4611 74.809V73.0455L36.4042 74.824V76.5875L37.7202 78.8435C37.7401 78.8781 37.7703 78.9057 37.8067 78.9224L39.7017 80.0241Z" fill="#35D0B4"/>
<path opacity="0.1" d="M39.7017 80.0241L38.4609 77.6891L39.4611 74.809V73.0455L36.4042 74.824V76.5875L37.7202 78.8435C37.7401 78.8781 37.7703 78.9057 37.8067 78.9224L39.7017 80.0241Z" fill="black"/>
<path d="M35.216 79.4864C34.7084 79.7797 34.2986 79.5428 34.2986 78.9562V72.1431C34.3161 71.8257 34.4083 71.5168 34.5677 71.2418C34.7271 70.9667 34.9493 70.7332 35.216 70.5602L43.6347 65.6722C44.1385 65.3826 44.5483 65.6195 44.5483 66.2023V73.0154C44.531 73.333 44.4392 73.642 44.2805 73.9176C44.1218 74.1932 43.9006 74.4277 43.6347 74.6022" fill="#35D0B4"/>
<path d="M31.7042 77.456C31.7217 77.774 31.8139 78.0833 31.9733 78.359C32.1327 78.6347 32.3548 78.8689 32.6216 79.0427L33.3736 79.4714C33.6323 79.6007 33.9152 79.6742 34.2041 79.6871C34.493 79.7001 34.7814 79.6522 35.0506 79.5466C34.6182 79.7082 34.2986 79.4638 34.2986 78.9412V72.1431C34.3096 71.8246 34.4015 71.514 34.5655 71.2407L31.9899 69.7555C31.8246 70.0285 31.7314 70.339 31.7192 70.6579L31.7042 77.456Z" fill="#35D0B4"/>
<path opacity="0.1" d="M31.7042 77.456C31.7217 77.774 31.8139 78.0833 31.9733 78.359C32.1327 78.6347 32.3548 78.8689 32.6216 79.0427L33.3736 79.4714C33.6323 79.6007 33.9152 79.6742 34.2041 79.6871C34.493 79.7001 34.7814 79.6522 35.0506 79.5466C34.6182 79.7082 34.2986 79.4638 34.2986 78.9412V72.1431C34.3096 71.8246 34.4015 71.514 34.5655 71.2407L31.9899 69.7555C31.8246 70.0285 31.7314 70.339 31.7192 70.6579L31.7042 77.456Z" fill="black"/>
<path d="M38.3218 77.6778L39.634 79.9338C39.6528 79.9661 39.6805 79.9923 39.7137 80.0093C39.747 80.0264 39.7844 80.0335 39.8216 80.03C39.8587 80.0264 39.8941 80.0123 39.9235 79.9892C39.9529 79.9662 39.9751 79.9352 39.9875 79.9L41.3749 75.8956V74.1321L38.3218 75.8956V77.6778Z" fill="#35D0B4"/>
<path d="M36.2312 73.6095C35.9776 73.7727 35.7669 73.9946 35.6171 74.2564C35.4672 74.5181 35.3825 74.8121 35.3702 75.1135C35.3702 75.6625 35.7462 75.8655 36.2312 75.6098C36.4832 75.4448 36.6925 75.2225 36.8421 74.9611C36.9918 74.6997 37.0775 74.4066 37.0923 74.1058C37.096 73.5569 36.72 73.32 36.2312 73.6095Z" fill="white"/>
<path d="M39.4084 71.7709C39.1553 71.9351 38.9449 72.1571 38.7946 72.4186C38.6442 72.6801 38.5582 72.9736 38.5436 73.2749C38.5436 73.8238 38.9196 74.0457 39.4084 73.7712C39.6603 73.6061 39.8696 73.3838 40.0193 73.1225C40.1689 72.8611 40.2546 72.568 40.2694 72.2672C40.2694 71.7182 39.8821 71.4964 39.4084 71.7709Z" fill="white"/>
<path d="M42.5819 69.936C42.3299 70.1011 42.1206 70.3234 41.971 70.5847C41.8213 70.8461 41.7356 71.1392 41.7208 71.44C41.7208 71.989 42.0968 72.192 42.5819 71.9363C42.8355 71.7731 43.0462 71.5512 43.196 71.2895C43.3459 71.0277 43.4306 70.7337 43.4429 70.4323C43.4429 69.8796 43.0594 69.6578 42.5819 69.936Z" fill="white"/>
<path d="M121.85 19.7137L85.2954 40.8073C84.8217 41.1165 84.4274 41.5329 84.1446 42.0228C83.8617 42.5127 83.6982 43.0624 83.6674 43.6273V124.539C83.6674 125.576 84.3968 125.998 85.2954 125.479L121.85 104.385C122.324 104.076 122.718 103.66 123.001 103.17C123.284 102.68 123.447 102.13 123.478 101.565V20.6537C123.478 19.6159 122.749 19.1948 121.85 19.7137Z" fill="#37474F"/>
<path d="M85.2955 40.8073L121.85 19.7137C122.655 19.2512 123.32 19.5407 123.452 20.3491C123.378 19.8405 123.197 19.3534 122.921 18.9198C122.644 18.4863 122.28 18.1161 121.85 17.8337L120.523 17.0817C120.018 16.8257 119.461 16.6923 118.895 16.6923C118.329 16.6923 117.771 16.8257 117.267 17.0817L80.712 38.164C80.2311 38.464 79.835 38.8821 79.5615 39.3785L84.1449 42.0105C84.42 41.5182 84.816 41.1041 85.2955 40.8073Z" fill="#455A64"/>
<path d="M79.0839 121.892C79.1142 122.457 79.2774 123.007 79.5603 123.497C79.8432 123.987 80.2378 124.403 80.712 124.712L82.0393 125.464C82.4981 125.695 83.0008 125.826 83.5141 125.849C84.0275 125.872 84.5398 125.785 85.0172 125.595C84.2652 125.885 83.6674 125.452 83.6674 124.524V43.616C83.6862 43.0487 83.8506 42.4958 84.1449 42.0105L79.5614 39.3785C79.268 39.8642 79.1036 40.4169 79.0839 40.984V121.892Z" fill="#263238"/>
<path d="M86.1715 50.8841L120.974 30.8019C121.512 30.4898 121.952 30.7418 121.952 31.3659V92.6201C121.932 92.9589 121.834 93.2885 121.664 93.5824C121.494 93.8762 121.258 94.1262 120.974 94.3121L86.1715 114.39C85.6338 114.703 85.1939 114.451 85.1939 113.826V52.5761C85.212 52.237 85.31 51.9069 85.4799 51.6129C85.6497 51.3188 85.8867 51.0691 86.1715 50.8841Z" fill="#FAFAFA"/>
<path d="M103.204 33.4001C103.038 33.5093 102.9 33.656 102.8 33.8284C102.701 34.0008 102.644 34.1941 102.633 34.3927C102.633 34.7687 102.888 34.9078 103.204 34.7236C103.371 34.6149 103.51 34.4683 103.609 34.2958C103.708 34.1233 103.766 33.9297 103.776 33.731C103.776 33.3662 103.52 33.2196 103.204 33.4001Z" fill="#263238"/>
<path d="M97.7936 39.2206C97.4634 39.4401 97.1893 39.7342 96.9934 40.079C96.7975 40.4238 96.6852 40.8097 96.6656 41.2058C96.6656 41.9353 97.177 42.2323 97.7936 41.8676C98.1276 41.6503 98.4055 41.3573 98.6048 41.0123C98.8041 40.6673 98.9191 40.2801 98.9405 39.8823C98.9405 39.1529 98.4253 38.8558 97.7936 39.2206Z" fill="#263238"/>
<path d="M100.595 38.9724C100.595 39.4612 100.971 39.6454 101.411 39.386L108.931 35.0357C109.163 34.8895 109.357 34.6909 109.498 34.4557C109.639 34.2206 109.723 33.9556 109.743 33.6821C109.743 33.197 109.367 33.0128 108.931 33.2722L101.411 37.6226C101.178 37.7677 100.983 37.9655 100.842 38.2C100.7 38.4345 100.615 38.6991 100.595 38.9724Z" fill="#263238"/>
<path d="M81.6182 53.3055C81.8856 53.4786 82.1082 53.7127 82.2677 53.9885C82.4272 54.2644 82.519 54.5741 82.5356 54.8922C82.5356 55.475 82.1258 55.7119 81.6182 55.4224C81.3519 55.2474 81.1306 55.0122 80.9719 54.736C80.8132 54.4597 80.7216 54.1501 80.7045 53.8319C80.712 53.2491 81.1143 53.016 81.6182 53.3055Z" fill="#37474F"/>
<path d="M81.6181 60.363C81.885 60.5368 82.1071 60.7711 82.2665 61.0468C82.4259 61.3224 82.5181 61.6318 82.5356 61.9498C82.5356 62.5363 82.1257 62.7732 81.6181 62.4799C81.3561 62.3065 81.1378 62.0747 80.9806 61.8026C80.8233 61.5305 80.7314 61.2257 80.712 60.912C80.712 60.3104 81.1143 60.0735 81.6181 60.363Z" fill="#37474F"/>
<path d="M81.3361 53.4446C81.603 53.6184 81.8251 53.8527 81.9845 54.1284C82.1439 54.404 82.2361 54.7134 82.2536 55.0314C82.2536 55.6179 81.8437 55.8548 81.3361 55.5615C81.0697 55.3873 80.8479 55.1529 80.6886 54.8773C80.5292 54.6018 80.4368 54.2926 80.4187 53.9748C80.4187 53.392 80.8323 53.1551 81.3361 53.4446Z" fill="#455A64"/>
<path d="M81.3361 60.5059C81.603 60.6797 81.8251 60.914 81.9845 61.1896C82.1439 61.4653 82.2361 61.7747 82.2536 62.0926C82.2536 62.6792 81.8437 62.9161 81.3361 62.6228C81.0697 62.4486 80.8479 62.2142 80.6886 61.9386C80.5292 61.663 80.4368 61.3539 80.4187 61.0361C80.4187 60.4495 80.8323 60.2126 81.3361 60.5059Z" fill="#455A64"/>
<path d="M103.573 107.055C102.916 107.484 102.369 108.062 101.977 108.742C101.585 109.422 101.359 110.185 101.317 110.969C101.317 112.413 102.328 112.996 103.573 112.277C104.23 111.847 104.777 111.269 105.169 110.588C105.561 109.907 105.787 109.144 105.829 108.359C105.833 106.916 104.821 106.333 103.573 107.055Z" fill="#263238"/>
<path d="M93.3869 113.518C93.0673 113.518 93.0335 113.142 93.0335 113.007V51.7564C93.0532 51.4505 93.1432 51.1534 93.2964 50.8879C93.4497 50.6225 93.6621 50.396 93.9171 50.2261L128.72 30.1439C128.824 30.0818 128.941 30.0457 129.062 30.0386C129.381 30.0386 129.415 30.3921 129.415 30.5462V91.8004C129.396 92.1058 129.306 92.4026 129.153 92.6674C128.999 92.9323 128.787 93.158 128.532 93.327L93.7291 113.409C93.6263 113.474 93.5085 113.512 93.3869 113.518Z" fill="white" stroke="#35D0B4" stroke-miterlimit="10"/>
<path d="M129.062 30.2266C129.205 30.2266 129.227 30.4259 129.227 30.5462V91.8004C129.208 92.073 129.127 92.3377 128.991 92.5743C128.854 92.8108 128.665 93.013 128.438 93.1653L93.6351 113.247C93.5603 113.295 93.4751 113.323 93.387 113.33C93.2441 113.33 93.2215 113.127 93.2215 113.007V51.7564C93.2405 51.4838 93.3214 51.2191 93.4583 50.9825C93.5951 50.746 93.7842 50.5438 94.0111 50.3915L128.814 30.3094C128.888 30.2606 128.973 30.2321 129.062 30.2266ZM129.062 29.8506C128.907 29.8558 128.757 29.9012 128.626 29.9822L93.8231 50.0644C93.5383 50.2494 93.3013 50.4991 93.1315 50.7932C92.9616 51.0872 92.8636 51.4173 92.8455 51.7564V113.007C92.8455 113.45 93.0674 113.706 93.387 113.706C93.5416 113.7 93.6919 113.653 93.8231 113.571L128.626 93.4924C128.91 93.3071 129.147 93.0574 129.317 92.7634C129.487 92.4694 129.585 92.1394 129.603 91.8004V30.5462C129.603 30.1063 129.381 29.8506 129.062 29.8506Z" fill="#35D0B4"/>
<path d="M129.062 30.2266C129.205 30.2266 129.227 30.4259 129.227 30.5462V91.8004C129.208 92.073 129.127 92.3377 128.991 92.5743C128.854 92.8108 128.665 93.013 128.438 93.1653L93.6351 113.247C93.5603 113.295 93.4751 113.323 93.387 113.33C93.2441 113.33 93.2215 113.127 93.2215 113.007V51.7564C93.2405 51.4838 93.3214 51.2191 93.4583 50.9825C93.5951 50.746 93.7842 50.5438 94.0111 50.3915L128.814 30.3094C128.888 30.2606 128.973 30.2321 129.062 30.2266M129.062 29.8506C128.907 29.8558 128.757 29.9012 128.626 29.9822L93.8231 50.0644C93.5383 50.2494 93.3013 50.4991 93.1315 50.7932C92.9616 51.0872 92.8636 51.4173 92.8455 51.7564V113.007C92.8455 113.45 93.0674 113.706 93.387 113.706C93.5416 113.7 93.6919 113.653 93.8231 113.571L128.626 93.4924C128.91 93.3071 129.147 93.0574 129.317 92.7634C129.487 92.4694 129.585 92.1394 129.603 91.8004V30.5462C129.603 30.1063 129.381 29.8506 129.062 29.8506V29.8506Z" stroke="#35D0B4" stroke-miterlimit="10"/>
<path d="M129.592 30.5462C129.592 29.9221 129.156 29.6702 128.614 29.9822L93.8118 50.0644C93.5271 50.2494 93.2901 50.4991 93.1202 50.7932C92.9503 51.0872 92.8523 51.4173 92.8342 51.7564V56.776L129.592 35.5658V30.5462Z" fill="#35D0B4"/>
<path opacity="0.1" d="M129.592 30.5462C129.592 29.9221 129.156 29.6702 128.614 29.9822L93.8118 50.0644C93.5271 50.2494 93.2901 50.4991 93.1202 50.7932C92.9503 51.0872 92.8523 51.4173 92.8342 51.7564V56.776L129.592 35.5658V30.5462Z" fill="black"/>
<path d="M96.6807 51.2225C96.6188 51.1991 96.5522 51.1913 96.4866 51.1998C96.421 51.2084 96.3585 51.2329 96.3047 51.2714C96.1114 51.3997 95.9503 51.571 95.8342 51.7719C95.7181 51.9728 95.6501 52.1979 95.6354 52.4294C95.626 52.4961 95.6346 52.564 95.6604 52.6262C95.6862 52.6884 95.7282 52.7425 95.7821 52.7829C95.8438 52.8083 95.9111 52.8167 95.9772 52.8075C96.0433 52.7982 96.1057 52.7716 96.1581 52.7302C96.3502 52.6019 96.5102 52.431 96.6256 52.2308C96.741 52.0306 96.8088 51.8065 96.8236 51.5759C96.8334 51.5096 96.8254 51.4419 96.8003 51.3797C96.7751 51.3176 96.7339 51.2633 96.6807 51.2225Z" fill="white"/>
<path d="M97.4741 49.9403L97.3914 49.9892V49.82C97.3914 49.5831 97.2259 49.4854 97.0154 49.6057L95.4362 50.5156C95.3276 50.5859 95.237 50.6807 95.1717 50.7924C95.1064 50.904 95.0682 51.0295 95.0602 51.1586V51.3315L94.9737 51.3804C94.8293 51.4742 94.7092 51.6007 94.6229 51.7497C94.5367 51.8986 94.4868 52.0658 94.4774 52.2377V53.768C94.4774 54.0838 94.6992 54.2154 94.9737 54.0575L97.4666 52.6174C97.6112 52.5231 97.7315 52.3959 97.8177 52.2463C97.904 52.0967 97.9537 51.9288 97.9629 51.7564V50.2186C97.9704 49.9102 97.7486 49.7824 97.4741 49.9403ZM96.301 52.9784C96.1795 53.0526 96.0409 53.0941 95.8986 53.0987C95.8065 53.0996 95.7157 53.0762 95.6354 53.031C95.5382 52.9654 95.4601 52.8751 95.4092 52.7694C95.3584 52.6637 95.3365 52.5464 95.3459 52.4294C95.359 52.1477 95.4396 51.8732 95.5809 51.6291C95.7223 51.3851 95.9202 51.1785 96.1581 51.027C96.2536 50.9581 96.3661 50.9168 96.4835 50.9075C96.6008 50.8982 96.7185 50.9213 96.8236 50.9743C96.921 51.0395 96.999 51.1299 97.0493 51.2358C97.0996 51.3417 97.1204 51.4592 97.1094 51.5759C97.0961 51.8572 97.0158 52.1312 96.8752 52.3752C96.7346 52.6191 96.5377 52.8259 96.301 52.9784ZM97.429 50.9367C97.3011 51.0082 97.1996 50.9367 97.1996 50.8014C97.2035 50.7215 97.2263 50.6437 97.2662 50.5744C97.306 50.5051 97.3618 50.4463 97.429 50.4028C97.5568 50.3276 97.6621 50.4028 97.6621 50.5344C97.6592 50.6137 97.638 50.6913 97.6002 50.7611C97.5623 50.8309 97.5089 50.891 97.444 50.9367H97.429Z" fill="white"/>
<path d="M127.592 32.0916L125.159 33.4941C125.018 33.5859 124.901 33.7097 124.816 33.8554C124.732 34.001 124.683 34.1645 124.674 34.3325V35.8365C124.674 36.1411 124.892 36.269 125.159 36.1148L126.607 35.2801L127.174 35.8478C127.188 35.8602 127.204 35.8684 127.222 35.8715C127.24 35.8746 127.259 35.8725 127.275 35.8653C127.292 35.8582 127.306 35.8463 127.316 35.8312C127.327 35.8161 127.332 35.7983 127.332 35.7802V34.859L127.592 34.7085C127.735 34.618 127.854 34.4947 127.941 34.349C128.027 34.2032 128.077 34.0391 128.088 33.8701V32.3661C128.088 32.0615 127.859 31.9374 127.592 32.0916Z" fill="white"/>
<path d="M97.5305 55.8811C98.8013 55.1592 99.8316 55.7458 99.8316 57.1971C99.786 57.9909 99.5538 58.7628 99.154 59.45C98.7542 60.1373 98.198 60.7206 97.5305 61.1526C96.2558 61.9046 95.2256 61.2993 95.2256 59.8366C95.2683 59.0417 95.4996 58.2684 95.9004 57.5806C96.3012 56.8928 96.86 56.3102 97.5305 55.8811Z" fill="#35D0B4"/>
<path d="M102.11 54.1102L109.747 49.7034C110.198 49.444 110.563 49.6282 110.563 50.1133C110.543 50.3872 110.458 50.6526 110.317 50.8878C110.175 51.123 109.98 51.3214 109.747 51.4669L102.11 55.8736C101.663 56.133 101.298 55.9488 101.298 55.4638C101.318 55.1903 101.402 54.9252 101.543 54.6901C101.684 54.455 101.878 54.2563 102.11 54.1102Z" fill="#35D0B4"/>
<g opacity="0.7">
<path d="M102.11 54.1102L109.747 49.7034C110.198 49.444 110.563 49.6282 110.563 50.1133C110.543 50.3872 110.458 50.6526 110.317 50.8878C110.175 51.123 109.98 51.3214 109.747 51.4669L102.11 55.8736C101.663 56.133 101.298 55.9488 101.298 55.4638C101.318 55.1903 101.402 54.9252 101.543 54.6901C101.684 54.455 101.878 54.2563 102.11 54.1102Z" fill="white"/>
</g>
<path d="M101.854 57.2347L107.092 54.2267C107.4 54.05 107.649 54.1741 107.649 54.5087C107.635 54.6963 107.578 54.8781 107.481 55.0394C107.384 55.2008 107.251 55.3371 107.092 55.4374L101.854 58.4454C101.546 58.6222 101.298 58.4943 101.298 58.1597C101.312 57.9727 101.369 57.7915 101.466 57.6308C101.563 57.4701 101.696 57.3345 101.854 57.2347Z" fill="#35D0B4"/>
<g opacity="0.7">
<path d="M101.854 57.2347L107.092 54.2267C107.4 54.05 107.649 54.1741 107.649 54.5087C107.635 54.6963 107.578 54.8781 107.481 55.0394C107.384 55.2008 107.251 55.3371 107.092 55.4374L101.854 58.4454C101.546 58.6222 101.298 58.4943 101.298 58.1597C101.312 57.9727 101.369 57.7915 101.466 57.6308C101.563 57.4701 101.696 57.3345 101.854 57.2347Z" fill="white"/>
</g>
<path d="M97.5305 95.4137C98.8013 94.6918 99.8316 95.2821 99.8316 96.7297C99.786 97.5235 99.5538 98.2954 99.154 98.9827C98.7542 99.6699 98.198 100.253 97.5305 100.685C96.2558 101.437 95.2256 100.832 95.2256 99.3693C95.2692 98.5746 95.5009 97.8016 95.9016 97.1139C96.3023 96.4262 96.8606 95.8435 97.5305 95.4137Z" fill="#35D0B4"/>
<path d="M102.11 93.6465L109.747 89.2361C110.198 88.9766 110.563 89.1609 110.563 89.6459C110.543 89.9198 110.458 90.1852 110.317 90.4204C110.175 90.6556 109.98 90.854 109.747 90.9995L102.11 95.41C101.663 95.6694 101.298 95.4852 101.298 94.9964C101.318 94.7235 101.402 94.4593 101.543 94.2248C101.684 93.9904 101.879 93.7923 102.11 93.6465Z" fill="#35D0B4"/>
<g opacity="0.7">
<path d="M102.11 93.6465L109.747 89.2361C110.198 88.9766 110.563 89.1609 110.563 89.6459C110.543 89.9198 110.458 90.1852 110.317 90.4204C110.175 90.6556 109.98 90.854 109.747 90.9995L102.11 95.41C101.663 95.6694 101.298 95.4852 101.298 94.9964C101.318 94.7235 101.402 94.4593 101.543 94.2248C101.684 93.9904 101.879 93.7923 102.11 93.6465Z" fill="white"/>
</g>
<path d="M101.854 96.7674L107.092 93.7594C107.4 93.5826 107.649 93.7067 107.649 94.0414C107.635 94.229 107.578 94.4108 107.481 94.5721C107.384 94.7334 107.251 94.8698 107.092 94.9701L101.854 97.9781C101.546 98.1548 101.298 98.027 101.298 97.6961C101.311 97.5084 101.368 97.3265 101.465 97.1651C101.562 97.0038 101.695 96.8675 101.854 96.7674Z" fill="#35D0B4"/>
<g opacity="0.7">
<path d="M101.854 96.7674L107.092 93.7594C107.4 93.5826 107.649 93.7067 107.649 94.0414C107.635 94.229 107.578 94.4108 107.481 94.5721C107.384 94.7334 107.251 94.8698 107.092 94.9701L101.854 97.9781C101.546 98.1548 101.298 98.027 101.298 97.6961C101.311 97.5084 101.368 97.3265 101.465 97.1651C101.562 97.0038 101.695 96.8675 101.854 96.7674Z" fill="white"/>
</g>
<path d="M96.8161 63.341L125.734 46.6466C126.185 46.3871 126.55 46.5977 126.55 47.1166V75.9971C126.535 76.2803 126.453 76.5559 126.311 76.8015C126.169 77.0471 125.972 77.2559 125.734 77.4109L96.8161 94.203C96.3649 94.4625 96.0039 94.2519 96.0039 93.733V64.751C96.0185 64.4685 96.0997 64.1936 96.2409 63.9485C96.382 63.7035 96.5791 63.4953 96.8161 63.341Z" fill="#F5F5F5"/>
<path d="M107.431 69.9548C107.357 69.8466 107.255 69.7607 107.136 69.7063C107.016 69.6519 106.885 69.6311 106.755 69.6462C106.624 69.6613 106.501 69.7117 106.397 69.7919C106.294 69.8722 106.214 69.9792 106.167 70.1014L96.0152 89.3827V93.733C96.0152 94.2519 96.3912 94.4625 96.8274 94.203L125.746 77.4974C125.983 77.3424 126.181 77.1336 126.322 76.888C126.464 76.6424 126.546 76.3668 126.561 76.0836V66.458L121.068 56.7008C120.764 56.1556 120.339 56.1894 120.117 56.7722L112.804 76.155L107.431 69.9548Z" fill="#35D0B4"/>
<g opacity="0.3">
<path d="M107.431 69.9548C107.357 69.8466 107.255 69.7607 107.136 69.7063C107.016 69.6519 106.885 69.6311 106.755 69.6462C106.624 69.6613 106.501 69.7117 106.397 69.7919C106.294 69.8722 106.214 69.9792 106.167 70.1014L96.0152 89.3827V93.733C96.0152 94.2519 96.3912 94.4625 96.8274 94.203L125.746 77.4974C125.983 77.3424 126.181 77.1336 126.322 76.888C126.464 76.6424 126.546 76.3668 126.561 76.0836V66.458L121.068 56.7008C120.764 56.1556 120.339 56.1894 120.117 56.7722L112.804 76.155L107.431 69.9548Z" fill="white"/>
</g>
<path d="M99.0533 71.1542C101.603 69.6916 103.674 66.1271 103.674 63.1943C103.674 61.6903 103.133 60.6601 102.272 60.1863L96.8161 63.3334C96.5791 63.4878 96.382 63.696 96.2409 63.941C96.0997 64.1861 96.0185 64.461 96.0039 64.7434V71.5641C96.8161 71.9288 97.8801 71.816 99.0533 71.1542Z" fill="#35D0B4"/>
<g opacity="0.6">
<path d="M99.0533 71.1542C101.603 69.6916 103.674 66.1271 103.674 63.1943C103.674 61.6903 103.133 60.6601 102.272 60.1863L96.8161 63.3334C96.5791 63.4878 96.382 63.696 96.2409 63.941C96.0997 64.1861 96.0185 64.461 96.0039 64.7434V71.5641C96.8161 71.9288 97.8801 71.816 99.0533 71.1542Z" fill="white"/>
</g>
<path d="M96.8161 103.024L125.734 86.3258C126.185 86.0664 126.55 86.2506 126.55 86.7394C126.53 87.0127 126.445 87.2773 126.303 87.5118C126.162 87.7463 125.967 87.9442 125.734 88.0893L96.8161 104.787C96.3649 105.047 96.0039 104.863 96.0039 104.374C96.023 104.101 96.1066 103.836 96.2478 103.601C96.389 103.367 96.5837 103.169 96.8161 103.024Z" fill="#35D0B4"/>
<g opacity="0.6">
<path d="M96.8161 103.024L125.734 86.3258C126.185 86.0664 126.55 86.2506 126.55 86.7394C126.53 87.0127 126.445 87.2773 126.303 87.5118C126.162 87.7463 125.967 87.9442 125.734 88.0893L96.8161 104.787C96.3649 105.047 96.0039 104.863 96.0039 104.374C96.023 104.101 96.1066 103.836 96.2478 103.601C96.389 103.367 96.5837 103.169 96.8161 103.024Z" fill="white"/>
</g>
<path d="M96.8161 106.551L125.734 89.864C126.185 89.6046 126.55 89.7888 126.55 90.2776C126.53 90.5509 126.445 90.8155 126.303 91.05C126.162 91.2845 125.967 91.4823 125.734 91.6275L96.8161 108.326C96.3649 108.585 96.0039 108.401 96.0039 107.912C96.0216 107.637 96.1045 107.37 96.2457 107.133C96.3869 106.897 96.5824 106.697 96.8161 106.551Z" fill="#35D0B4"/>
<g opacity="0.6">
<path d="M96.8161 106.551L125.734 89.864C126.185 89.6046 126.55 89.7888 126.55 90.2776C126.53 90.5509 126.445 90.8155 126.303 91.05C126.162 91.2845 125.967 91.4823 125.734 91.6275L96.8161 108.326C96.3649 108.585 96.0039 108.401 96.0039 107.912C96.0216 107.637 96.1045 107.37 96.2457 107.133C96.3869 106.897 96.5824 106.697 96.8161 106.551Z" fill="white"/>
</g>
<path d="M101.275 47.6204L121.907 35.72C122.538 35.344 123.035 35.6523 123.035 36.378C123.015 36.772 122.903 37.1559 122.707 37.4983C122.511 37.8407 122.236 38.1319 121.907 38.3482L101.279 50.2148C100.648 50.5908 100.151 50.29 100.151 49.5756C100.173 49.1845 100.285 48.8038 100.481 48.4643C100.676 48.1247 100.948 47.8357 101.275 47.6204Z" fill="#FAFAFA"/>
<path d="M161.89 70.1917L163.353 72.8726L161.078 74.824L158.991 71.519L161.89 70.1917Z" fill="#F28F8F"/>
<path d="M156.401 64.217C157.852 64.217 159.45 64.7585 159.999 65.8978L162.255 70.5752C162.255 70.5752 160.973 72.4552 158.939 72.3198L156.401 64.217Z" fill="#E0E0E0"/>
<path d="M161.778 73.2899C162.203 72.5003 162.308 72.4627 162.56 72.2898C162.812 72.1168 164.361 71.8875 165.004 71.8311C165.756 71.7671 166.03 71.9063 165.82 72.5567C165.24 74.1973 164.531 75.7891 163.699 77.3169C163.496 77.5839 163.458 77.832 162.605 77.9185C161.811 77.9937 160.815 78.0388 160.522 78.0539C160.229 78.0689 159.822 78.1479 160.082 77.2831C160.418 76.3061 160.807 75.3484 161.247 74.4142C161.575 73.696 161.778 73.2899 161.778 73.2899Z" fill="#35D0B4"/>
<path d="M144.835 99.8919C144.459 99.7039 144.245 100.163 143.918 100.531C143.637 100.802 143.417 101.13 143.275 101.494C143.196 101.926 143.591 102.622 144.027 102.998C144.463 103.374 144.967 103.648 145.125 104.475C145.165 104.855 145.313 105.215 145.549 105.515C145.786 105.814 146.103 106.04 146.463 106.167C147.403 106.573 148.663 106.442 149.095 106.167C149.599 105.84 149.136 105.479 148.43 104.464C147.505 103.141 146.783 102.208 146.783 100.956L144.835 99.8919Z" fill="#263238"/>
<path d="M145.576 98.8053L144.824 99.9333C144.662 100.164 144.597 100.449 144.645 100.727C144.693 101.005 144.849 101.252 145.079 101.415L145.102 101.434C145.333 101.571 145.605 101.623 145.871 101.581C146.137 101.539 146.379 101.406 146.557 101.204L147.745 99.9107L145.576 98.8053Z" fill="#FFA8A7"/>
<path d="M159.54 77.0574C159.589 78.4787 159.187 84.2202 158.206 86.7582C157.224 89.2962 156.657 90.8754 156.348 91.4056C156.04 91.9358 147.144 100.591 147.144 100.591C147.144 100.591 145.64 100.482 145.395 99.0196C145.395 99.0196 149.039 92.8231 149.828 91.5522C150.618 90.2814 153.415 88.3337 153.415 88.3337L153.16 77.2191L159.54 77.0574Z" fill="#37474F"/>
<path d="M146.362 75.6737C146.362 75.4293 147.114 72.6206 147.49 71.3234L150.246 72.2709L149.599 74.3164L147.174 76.8243C146.917 76.7731 146.689 76.6252 146.538 76.4111C146.387 76.197 146.324 75.9331 146.362 75.6737Z" fill="#FFA8A7"/>
<path d="M157.581 107.305L159.461 106.878L158.839 104.139L156.958 104.567L157.581 107.305Z" fill="#FFA8A7"/>
<path d="M159.54 77.0574H150.516C150.319 78.3749 150.206 79.7037 150.178 81.0355C150.107 84.9459 153.746 92.0486 153.746 92.0486C153.572 93.6289 153.65 95.2269 153.979 96.7824C154.777 99.8957 156.95 105.171 156.95 105.171C156.95 105.171 158.315 105.363 158.988 104.577C158.988 104.577 157.785 93.8722 157.461 91.1311C157.111 88.1607 156.209 82.7426 156.209 82.7426C156.805 82.149 157.345 81.5021 157.822 80.8099C158.659 79.6955 159.244 78.4126 159.537 77.0499" fill="#37474F"/>
<path d="M153.423 64.296C151.693 64.7134 149.336 65.2548 148.655 67.1273C147.975 68.9998 146.993 72.3198 146.993 72.3198C147.369 72.9778 149.456 73.523 150.182 73.1433L150.52 72.0153V77.0462C151.874 78.5201 156.589 79.2044 159.544 77.0462V67.6462C159.544 66.1422 158.709 64.3373 156.405 64.2057L153.423 64.296Z" fill="#EBEBEB"/>
<path d="M150.52 72.0266L151.389 69.293L150.52 73.2486V72.0266Z" fill="#E0E0E0"/>
<path d="M152.772 56.6143C152.617 56.597 152.46 56.6151 152.313 56.6672C152.166 56.7193 152.032 56.8041 151.923 56.9151C151.547 57.2911 151.633 57.9792 151.923 59.5697L153.051 59.6975L152.772 56.6143Z" fill="#263238"/>
<path d="M159.356 56.1556C159.593 56.1581 159.828 56.1133 160.048 56.024C160.394 55.8247 160.484 56.2195 160.292 56.5617C160.167 56.8069 159.981 57.0158 159.752 57.1685C159.523 57.3213 159.258 57.4127 158.984 57.434C158.984 57.3851 158.661 56.5504 158.661 56.5504L159.356 56.1556Z" fill="#263238"/>
<path d="M153.303 59.6975C153.137 59.799 152.896 59.4757 152.69 59.2613C152.609 59.1679 152.505 59.0967 152.389 59.0545C152.273 59.0122 152.148 59.0003 152.026 59.0199C151.904 59.0395 151.789 59.0899 151.692 59.1664C151.595 59.2428 151.519 59.3428 151.471 59.4569C151.129 60.1788 151.908 61.1413 152.366 61.4572C152.493 61.5684 152.653 61.6364 152.821 61.6512C152.989 61.6661 153.158 61.6271 153.303 61.5399L153.423 64.3035C153.626 64.7462 153.934 65.1319 154.322 65.4264C154.71 65.721 155.164 65.9152 155.645 65.9917C157.269 66.2098 156.935 64.8637 156.397 64.217V63.2131C156.804 63.2989 157.221 63.3192 157.634 63.2733C157.845 63.2169 158.349 62.6077 158.676 61.9234C159.369 60.5532 159.524 58.9726 159.108 57.4942C158.525 55.0201 155.867 54.9449 154.284 55.9413C152.701 56.9377 153.303 59.6975 153.303 59.6975Z" fill="#FFA8A7"/>
<path d="M153.303 59.9795C153.22 59.9795 152.9 59.4494 152.69 59.2614C152.4 58.9982 152.772 56.6294 152.772 56.6294C152.693 56.3747 152.677 56.1044 152.726 55.8422C152.775 55.5799 152.888 55.3337 153.054 55.1254C153.626 54.5238 154.731 54.6253 155.54 54.599C156.534 54.6029 157.519 54.4046 158.435 54.0162C159.586 53.5161 159.672 53.4597 159.811 53.9635C159.922 54.3799 159.936 54.8163 159.851 55.2388C159.767 55.6614 159.586 56.0587 159.322 56.4L158.946 57.0091C158.946 57.0091 158.597 57.3024 157.525 57.434C156.453 57.5656 154.626 56.9866 154.397 56.9565C154.085 56.9151 154.021 57.2159 153.852 58.0394C153.709 58.75 153.588 59.9758 153.303 59.9795Z" fill="#263238"/>
<path d="M152.776 56.8023L151.761 56.2571C151.793 56.1908 151.839 56.1316 151.894 56.0828C151.949 56.0341 152.014 55.9967 152.084 55.973C152.154 55.9492 152.228 55.9395 152.301 55.9444C152.375 55.9493 152.447 55.9687 152.513 56.0014C152.652 56.0745 152.758 56.199 152.807 56.3485C152.856 56.498 152.845 56.6608 152.776 56.8023Z" fill="#263238"/>
<path d="M156.397 63.2131C155.705 63.0805 155.027 62.8854 154.37 62.6303C154.063 62.4679 153.81 62.218 153.645 61.9122C153.724 62.2192 153.865 62.5069 154.058 62.7582C154.434 63.2507 156.397 63.6117 156.397 63.6117V63.2131Z" fill="#F28F8F"/>
<path d="M156.446 59.6449C156.447 59.726 156.416 59.8043 156.36 59.8627C156.303 59.9211 156.226 59.955 156.145 59.957C156.105 59.956 156.065 59.947 156.028 59.9306C155.991 59.9142 155.957 59.8907 155.929 59.8614C155.901 59.832 155.879 59.7975 155.865 59.7597C155.85 59.7219 155.843 59.6816 155.844 59.6411C155.843 59.56 155.874 59.4817 155.931 59.4233C155.987 59.3649 156.064 59.331 156.145 59.329C156.186 59.33 156.226 59.339 156.263 59.3554C156.3 59.3718 156.333 59.3953 156.361 59.4246C156.389 59.454 156.411 59.4885 156.425 59.5263C156.44 59.5641 156.447 59.6044 156.446 59.6449Z" fill="#263238"/>
<path d="M156.126 58.5056L155.483 58.8816C155.459 58.838 155.443 58.79 155.438 58.7403C155.432 58.6907 155.436 58.6404 155.45 58.5925C155.464 58.5445 155.488 58.4998 155.519 58.461C155.551 58.4222 155.59 58.3901 155.634 58.3665C155.718 58.3232 155.816 58.3135 155.907 58.3393C155.999 58.3651 156.077 58.4245 156.126 58.5056Z" fill="#263238"/>
<path d="M156.262 61.664L156.95 61.9234C156.916 62.0136 156.848 62.0873 156.762 62.1293C156.675 62.1713 156.575 62.1784 156.484 62.149C156.437 62.1319 156.394 62.1057 156.358 62.072C156.322 62.0383 156.292 61.9977 156.272 61.9527C156.251 61.9076 156.24 61.8589 156.238 61.8093C156.236 61.7598 156.244 61.7104 156.262 61.664Z" fill="#F28F8F"/>
<path d="M159.131 58.7575L158.544 58.3063C158.603 58.2302 158.689 58.1796 158.784 58.1649C158.879 58.1502 158.976 58.1726 159.055 58.2273C159.095 58.257 159.129 58.2943 159.155 58.3371C159.18 58.3799 159.197 58.4274 159.204 58.4767C159.211 58.526 159.208 58.5763 159.195 58.6245C159.183 58.6727 159.161 58.7179 159.131 58.7575Z" fill="#263238"/>
<path d="M158.95 59.5584C158.951 59.6395 158.92 59.7178 158.864 59.7762C158.807 59.8346 158.73 59.8685 158.649 59.8705C158.609 59.8695 158.569 59.8606 158.532 59.8442C158.495 59.8277 158.461 59.8042 158.433 59.7749C158.406 59.7455 158.384 59.711 158.369 59.6732C158.354 59.6354 158.347 59.5951 158.348 59.5546C158.347 59.4735 158.378 59.3952 158.435 59.3368C158.491 59.2784 158.568 59.2445 158.649 59.2426C158.731 59.2455 158.808 59.2802 158.864 59.3392C158.92 59.3982 158.951 59.4769 158.95 59.5584Z" fill="#263238"/>
<path d="M157.533 59.5208L157.251 61.3106L158.239 61.194L157.533 59.5208Z" fill="#F28F8F"/>
<path d="M159.247 105.964L159.187 105.694C159.382 105.731 160.228 107.134 161.067 107.743C161.984 108.408 162.778 108.803 163.188 109.104C163.737 109.506 162.943 110.33 161.593 110.405C160.924 110.439 159.713 110.236 159.337 109.878C158.961 109.521 158.691 108.931 158.39 108.675C158.089 108.42 157.491 108.194 157.284 107.867C157.174 107.542 157.134 107.197 157.168 106.855C157.168 106.502 157.194 106.103 157.314 106.122L157.36 106.325C157.708 106.503 158.096 106.59 158.488 106.577C158.815 106.562 159.405 106.491 159.247 105.964Z" fill="#263238"/>
<path d="M157.228 89.3113C157.228 89.3113 156.427 83.6224 156.213 82.7426C156.856 82.3912 157.455 81.9632 157.995 81.4679C157.622 82.0012 157.215 82.5099 156.777 82.9907L157.228 89.3113Z" fill="#263238"/>
<path d="M152.396 89.112C152.396 89.112 153.359 91.5071 153.75 92.0373C153.75 92.0373 153.652 93.8646 153.664 94.2331L153.16 94.673C153.147 93.8464 153.222 93.0207 153.385 92.2102C152.943 91.2168 152.612 90.1778 152.396 89.112Z" fill="#263238"/>
<path d="M149.61 74.3164C149.61 74.3164 157.194 75.1286 158.085 74.8541C158.976 74.5796 160.172 73.696 160.8 73.32C161.428 72.944 161.905 72.9215 161.905 73.0756C161.905 73.2298 161.356 74.0682 161.232 74.4179C161.108 74.7676 161.823 74.7676 162.766 74.5495C163.71 74.3315 164.086 73.7975 164.331 74.1058C164.575 74.4142 163.808 75.9859 162.244 76.5762C160.68 77.1665 159.518 76.7717 158.224 76.8281C156.931 76.8845 148.964 77.3921 147.17 76.8281C147.123 76.5406 147.155 76.2456 147.265 75.9756C147.374 75.7056 147.556 75.471 147.79 75.2978C148.332 74.8628 148.949 74.5302 149.61 74.3164Z" fill="#FFA8A7"/>
<path d="M107.566 110.544C107.585 110.3 108.047 107.668 108.363 106.194L111.458 107.141L110.961 109.205L108.389 111.695C108.13 111.646 107.9 111.499 107.747 111.285C107.593 111.07 107.528 110.805 107.566 110.544Z" fill="#FFA8A7"/>
<path d="M114.349 88.2622H115.853C116.963 88.2622 118.027 88.7031 118.812 89.488C119.597 90.2728 120.038 91.3372 120.038 92.4471V103.11H110.164V92.4471C110.164 91.3372 110.605 90.2728 111.39 89.488C112.175 88.7031 113.239 88.2622 114.349 88.2622Z" fill="#263238"/>
<path d="M122.535 105.013L123.997 107.694L121.719 109.642L119.636 106.337L122.535 105.013Z" fill="#F28F8F"/>
<path d="M117.045 99.0346C118.496 99.0346 120.094 99.5761 120.643 100.715L122.899 105.393C122.899 105.393 121.617 107.273 119.583 107.141L117.045 99.0346Z" fill="#455A64"/>
<path d="M118.218 145.422C118.717 146.09 119.279 146.709 119.895 147.272C119.994 147.351 120.072 147.453 120.124 147.569C120.188 147.764 120.271 148.234 119.402 148.426C118.962 148.523 118.506 148.523 118.066 148.428C117.625 148.332 117.21 148.143 116.849 147.873C116.214 147.362 116.289 146.463 115.703 145.873C115.266 145.441 114.676 145.271 114.349 144.745C114.12 144.369 114.244 143.922 114.451 143.369C114.657 142.816 114.804 142.312 115.003 142.384L114.936 142.662C115.142 143.102 116.44 143.38 117.075 143.17C117.417 143.939 117.798 144.691 118.218 145.422Z" fill="#263238"/>
<path d="M118.729 146.068C118.553 145.862 118.38 145.651 118.218 145.422C117.885 144.868 117.588 144.294 117.327 143.703C117.157 143.351 117.128 142.948 117.244 142.575L117.673 141.128L115.417 140.609L114.928 142.636C114.823 143.098 115.157 143.557 115.77 144.226C116.383 144.895 117.09 146.369 117.65 146.787C118.21 147.204 118.669 147.245 118.955 147.102C119.241 146.96 119.312 146.828 118.729 146.068Z" fill="#FFA8A7"/>
<path d="M112.149 146.696V146.377C112.277 146.753 112.856 148.355 113.736 149.159C114.439 149.795 115.394 150.535 115.635 151.246C115.876 151.957 114.308 152.235 113.653 152.118C112.78 151.972 111.98 151.543 111.375 150.896C110.999 150.434 110.758 149.885 110.487 149.52C110.217 149.155 109.6 148.768 109.457 148.332C109.412 147.939 109.454 147.541 109.581 147.166C109.687 146.79 109.796 146.343 109.931 146.377V146.64C110.253 146.891 110.651 147.023 111.059 147.016C111.367 147.016 112.153 146.945 112.149 146.696Z" fill="#263238"/>
<path d="M114.372 149.719L113.736 149.155C113.147 148.531 112.687 147.796 112.382 146.993C112.229 146.623 112.149 146.225 112.149 145.824V144.557H109.931V146.617V146.674C110.036 147.136 111.059 148.362 111.634 149.163C112.106 149.851 112.825 150.331 113.642 150.502C114.488 150.614 114.928 150.351 114.372 149.719Z" fill="#FFA8A7"/>
<path d="M110.371 112.195C108.653 115.955 110.435 129.194 110.435 129.194C110.382 129.806 109.683 131.006 109.427 133.706C109.119 136.879 109.908 144.843 109.908 144.843C110.248 145.042 110.632 145.155 111.025 145.17C111.419 145.186 111.81 145.105 112.164 144.933C112.164 144.933 114.281 132.935 114.68 129.78L115.951 119.658L117.831 129.536C117.328 130.31 116.912 131.137 116.59 132.002C116.143 133.397 115.236 141.346 115.236 141.346C115.542 141.625 115.908 141.831 116.305 141.948C116.703 142.065 117.122 142.089 117.53 142.019C117.53 142.019 121.873 131.115 122.068 128.889C122.185 127.554 120.237 111.661 120.237 111.661L110.371 112.195Z" fill="#37474F"/>
<path d="M115.936 119.643L116.236 117.47C116.236 117.47 118.602 116.981 119.673 115.966C118.933 116.833 117.966 117.477 116.879 117.823L116.564 119.921L116.94 124.783L115.936 119.643Z" fill="#263238"/>
<path d="M113.424 99.1362C112.791 99.2901 112.2 99.5843 111.696 99.9968C111.192 100.409 110.786 100.93 110.51 101.52C110.104 102.417 110.066 103.438 110.405 104.363L111.92 108.811C111.92 108.811 111.202 110.552 110.363 112.195C114.225 114.349 119.041 113.217 120.203 111.646C120.252 111.311 120.184 109.807 120.278 108.1C120.376 106.276 120.628 104.216 120.342 103.092C119.808 100.997 118.812 99.0346 116.831 99.0346L113.424 99.1362Z" fill="#455A64"/>
<path d="M112.834 99.1362C111.518 99.3204 109.585 99.5874 108.916 102.716C108.247 105.844 108.047 106.991 108.047 106.991C108.476 107.412 108.988 107.74 109.549 107.955C110.111 108.17 110.71 108.266 111.311 108.239L111.991 105.833L112.834 99.1362Z" fill="#455A64"/>
<path d="M113.582 101.776C113.355 101.776 113.13 101.731 112.92 101.644C112.71 101.557 112.52 101.43 112.359 101.269C112.198 101.108 112.071 100.918 111.984 100.708C111.897 100.498 111.852 100.273 111.852 100.046V95.0114H113.582V101.776Z" fill="#263238"/>
<path d="M118.417 90.2588C118.94 90.5671 119.583 91.8793 119.519 94.6279C119.466 96.9591 118.711 97.5381 118.331 97.7036C117.951 97.869 117.222 97.7675 116.511 97.6472V99.0459C116.511 99.0459 117.492 100.174 117.432 100.832C117.372 101.49 116.011 101.625 115.09 100.997C114.496 100.567 113.987 100.032 113.586 99.4181V96.0341C113.511 96.1258 113.418 96.2017 113.314 96.2575C113.21 96.3132 113.095 96.3477 112.977 96.3589C112.859 96.3701 112.741 96.3578 112.627 96.3227C112.514 96.2876 112.409 96.2304 112.319 96.1545C111.533 95.6318 111.503 94.3421 111.961 93.8985C112.42 93.4548 113.401 93.5826 113.586 94.2218C114.515 94.181 115.419 93.9097 116.218 93.4322C116.81 93.1153 117.318 92.6623 117.7 92.1106C118.082 91.5589 118.328 90.9242 118.417 90.2588Z" fill="#FFA8A7"/>
<path d="M116.917 94.0451C116.918 94.1026 116.901 94.159 116.87 94.2074C116.839 94.2557 116.794 94.2938 116.742 94.317C116.689 94.3401 116.631 94.3473 116.574 94.3375C116.518 94.3278 116.465 94.3016 116.423 94.2623C116.381 94.2229 116.352 94.1721 116.338 94.1161C116.325 94.0602 116.329 94.0016 116.348 93.9476C116.368 93.8936 116.403 93.8466 116.45 93.8124C116.496 93.7783 116.551 93.7585 116.609 93.7556C116.648 93.7541 116.687 93.7604 116.724 93.7742C116.761 93.788 116.795 93.8089 116.823 93.8359C116.852 93.8628 116.875 93.8952 116.891 93.9311C116.907 93.967 116.916 94.0058 116.917 94.0451Z" fill="#263238"/>
<path d="M116.996 96.0191L117.677 96.2372C117.664 96.283 117.643 96.3259 117.614 96.3632C117.585 96.4006 117.549 96.4316 117.507 96.4545C117.466 96.4773 117.42 96.4915 117.373 96.4962C117.326 96.5008 117.278 96.4959 117.233 96.4816C117.141 96.4498 117.066 96.384 117.022 96.2978C116.978 96.2117 116.968 96.1119 116.996 96.0191Z" fill="#F28F8F"/>
<path d="M119.32 93.1427L118.729 92.7329C118.754 92.6928 118.787 92.6582 118.825 92.6313C118.864 92.6043 118.908 92.5855 118.954 92.576C119 92.5665 119.047 92.5665 119.094 92.576C119.14 92.5855 119.183 92.6044 119.222 92.6313C119.301 92.6875 119.355 92.7721 119.374 92.8674C119.392 92.9627 119.373 93.0613 119.32 93.1427Z" fill="#263238"/>
<path d="M119.184 93.8308C119.19 93.91 119.163 93.988 119.111 94.0479C119.059 94.1078 118.985 94.1446 118.906 94.1504C118.827 94.1514 118.751 94.1219 118.694 94.0679C118.636 94.0139 118.602 93.9397 118.598 93.8609C118.596 93.8223 118.601 93.7838 118.614 93.7475C118.627 93.7111 118.647 93.6777 118.673 93.6491C118.699 93.6204 118.73 93.5972 118.765 93.5806C118.8 93.5641 118.838 93.5545 118.876 93.5525C118.915 93.5506 118.953 93.5562 118.989 93.5691C119.026 93.582 119.059 93.602 119.088 93.6278C119.116 93.6536 119.14 93.6849 119.156 93.7197C119.173 93.7545 119.182 93.7923 119.184 93.8308Z" fill="#263238"/>
<path d="M117.801 93.6653L117.85 95.4288L118.778 95.1393L117.801 93.6653Z" fill="#F28F8F"/>
<path d="M116.511 97.6472C115.759 97.5494 114.217 97.1058 113.977 96.4966C114.073 96.8057 114.262 97.0776 114.518 97.275C114.977 97.6698 116.511 98.1172 116.511 98.1172V97.6472Z" fill="#F28F8F"/>
<path d="M122.418 108.108C122.843 107.318 122.948 107.284 123.204 107.111C123.459 106.938 125.005 106.705 125.648 106.649C126.4 106.585 126.674 106.724 126.464 107.378C125.877 109.017 125.163 110.607 124.328 112.134C124.125 112.405 124.084 112.653 123.234 112.736C122.384 112.819 121.44 112.856 121.147 112.875C120.854 112.894 120.448 112.965 120.711 112.101C121.046 111.124 121.434 110.166 121.873 109.232C122.215 108.521 122.418 108.108 122.418 108.108Z" fill="#35D0B4"/>
<path d="M110.961 109.22C110.961 109.22 117.838 109.946 118.729 109.672C119.62 109.397 120.816 108.506 121.459 108.138C122.102 107.769 122.565 107.739 122.565 107.889C122.565 108.04 122.016 108.886 121.888 109.232C121.76 109.578 122.482 109.581 123.422 109.363C124.362 109.145 124.742 108.611 124.99 108.92C125.238 109.228 124.467 110.8 122.903 111.39C121.339 111.98 120.177 111.589 118.884 111.642C117.59 111.695 110.183 112.274 108.389 111.71C108.342 111.422 108.375 111.127 108.484 110.857C108.594 110.587 108.776 110.353 109.01 110.179C109.59 109.733 110.253 109.407 110.961 109.22Z" fill="#FFA8A7"/>
<path d="M111.458 107.453C111.753 106.654 112.004 105.84 112.21 105.013C112.21 105.013 112.085 106.829 111.574 107.803L111.458 107.453Z" fill="#37474F"/>
<path d="M55.8133 85.0926L54.5913 87.7321L56.8661 89.6798L58.8326 86.3597L55.8133 85.0926Z" fill="#F28F8F"/>
<path d="M61.4232 79.054C59.9719 79.054 58.3739 79.5992 57.8249 80.7347C57.2759 81.8702 55.5689 85.4159 55.5689 85.4159C55.5689 85.4159 56.8511 87.2959 58.8852 87.1605L61.4232 79.054Z" fill="#37474F"/>
<path d="M67.7174 120.937H65.7096V123.858H67.7174V120.937Z" fill="#FFA8A7"/>
<path d="M60.6582 117.322L58.6516 117.391L58.752 120.311L60.7586 120.242L60.6582 117.322Z" fill="#FFA8A7"/>
<path d="M67.5821 92.4133C67.5821 94.3309 67.8303 106.724 67.8303 106.724C67.8792 107.273 68.3943 108.292 68.2815 110.409C68.1311 113.285 67.8829 121.275 67.8829 121.275C67.8829 121.275 66.9429 122.208 65.6269 121.275C65.6269 121.275 63.8071 110.416 63.4499 107.566C63.134 105.081 62.6039 98.324 62.6039 98.324L60.7427 106.276C60.7427 106.276 61.0698 108.156 61.145 109.465C61.2202 110.773 60.8028 118.41 60.8028 118.41C60.4775 118.613 60.1048 118.727 59.7216 118.742C59.3384 118.756 58.958 118.67 58.6183 118.493C58.6183 118.493 57.009 107.356 56.8022 106.164C56.5954 104.972 58.2122 92.4133 58.2122 92.4133H67.5821Z" fill="#37474F"/>
<path d="M64.5628 79.1443H64.5929C65.4543 79.3608 66.2183 79.8594 66.7635 80.5606C67.3086 81.2617 67.6034 82.1252 67.6009 83.0133V92.4133C66.1947 93.9436 61.2916 94.6693 58.2009 92.4133V82.6373C58.2009 81.0769 59.0695 79.1969 61.4646 79.0578L64.5628 79.1443Z" fill="#455A64"/>
<path d="M65.2396 71.1467C65.4009 71.1287 65.5641 71.1474 65.7172 71.2015C65.8702 71.2555 66.009 71.3435 66.1232 71.4588C66.4992 71.8348 66.424 72.568 66.1232 74.2187L64.9501 74.354L65.2396 71.1467Z" fill="#263238"/>
<path d="M58.3927 70.688C58.1409 70.6887 57.8916 70.6388 57.6595 70.5414C57.2835 70.3346 57.2045 70.7444 57.4 71.0978C57.531 71.353 57.7253 71.5703 57.9643 71.7289C58.2032 71.8876 58.4789 71.9823 58.7649 72.004C58.7649 71.9551 59.0995 71.0903 59.0995 71.0903L58.3927 70.688Z" fill="#263238"/>
<path d="M64.6869 74.354C64.8636 74.4593 65.1118 74.1247 65.3261 73.8991C65.4101 73.8013 65.5178 73.7267 65.6389 73.6825C65.76 73.6384 65.8905 73.6261 66.0177 73.6468C66.1449 73.6676 66.2647 73.7207 66.3655 73.8011C66.4662 73.8815 66.5447 73.9864 66.5932 74.1059C66.9692 74.8579 66.1383 75.858 65.6645 76.1851C65.5316 76.3009 65.3654 76.3717 65.1898 76.3872C65.0141 76.4028 64.8381 76.3623 64.6869 76.2716L64.5628 79.1443C64.3523 79.6051 64.031 80.0067 63.6275 80.3131C63.224 80.6195 62.7509 80.8212 62.2504 80.9002C60.5622 81.1295 60.9119 79.7383 61.4646 79.054V78.0087C61.0436 78.1001 60.6107 78.123 60.1824 78.0764C59.9606 78.0163 59.4304 77.3808 59.0958 76.6702C58.7198 75.8731 58.0843 74.4593 58.6483 72.0642C59.2537 69.4886 62.0323 69.4096 63.6642 70.4474C65.296 71.4851 64.6869 74.354 64.6869 74.354Z" fill="#FFA8A7"/>
<path d="M64.6869 74.6473C64.7772 74.6473 65.108 74.0983 65.3261 73.8953C65.6269 73.6208 65.2396 71.143 65.2396 71.143C65.2396 71.143 65.5442 70.2067 64.9501 69.5826C64.356 68.9584 63.2017 69.0637 62.3595 69.0336C61.3259 69.0399 60.3021 68.8339 59.3515 68.4282C58.1558 67.9094 58.0656 67.8492 57.9189 68.3718C57.8029 68.8048 57.7884 69.2588 57.8764 69.6983C57.9644 70.1379 58.1527 70.5512 58.4265 70.9061L59.0206 71.1242C59.0206 71.1242 59.3402 71.4099 60.4569 71.5453C61.4867 71.6215 62.5213 71.6027 63.5476 71.4889C63.871 71.4438 63.9236 71.7558 64.1154 72.6169C64.2658 73.3689 64.3936 74.6435 64.6869 74.6473Z" fill="#263238"/>
<path d="M65.2359 71.3422L66.2924 70.7745C66.2589 70.7035 66.2113 70.64 66.1525 70.588C66.0937 70.536 66.0249 70.4964 65.9504 70.4718C65.8758 70.4472 65.797 70.438 65.7188 70.4448C65.6406 70.4516 65.5645 70.4742 65.4953 70.5113C65.3538 70.5901 65.2479 70.7203 65.1996 70.8749C65.1513 71.0296 65.1643 71.1969 65.2359 71.3422Z" fill="#263238"/>
<path d="M61.4684 78.0087C62.1889 77.8734 62.8951 77.6707 63.5777 77.4034C63.8989 77.2349 64.1612 76.9726 64.3297 76.6514C64.2476 76.9705 64.1018 77.2698 63.9011 77.5312C63.5025 78.0426 61.4646 78.4186 61.4646 78.4186L61.4684 78.0087Z" fill="#F28F8F"/>
<path d="M61.8443 73.963C61.8458 74.0253 61.8657 74.0857 61.9014 74.1367C61.9372 74.1877 61.9873 74.227 62.0453 74.2497C62.1033 74.2723 62.1668 74.2773 62.2276 74.2639C62.2885 74.2506 62.3441 74.2196 62.3873 74.1748C62.4306 74.1299 62.4596 74.0733 62.4708 74.012C62.482 73.9507 62.4747 73.8875 62.4501 73.8303C62.4254 73.7731 62.3843 73.7245 62.3321 73.6905C62.2798 73.6566 62.2187 73.6389 62.1564 73.6396C62.0723 73.6416 61.9924 73.6766 61.9339 73.7372C61.8755 73.7977 61.8433 73.8788 61.8443 73.963Z" fill="#263238"/>
<path d="M62.1752 72.7823L62.8483 73.1583C62.8949 73.066 62.9046 72.9593 62.8752 72.86C62.8459 72.7608 62.7798 72.6765 62.6904 72.6244C62.6463 72.6003 62.5979 72.5852 62.5479 72.5801C62.498 72.575 62.4475 72.58 62.3995 72.5947C62.3515 72.6094 62.3069 72.6336 62.2684 72.6658C62.2298 72.698 62.1982 72.7377 62.1752 72.7823Z" fill="#263238"/>
<path d="M61.8669 76.0874L61.1525 76.3581C61.1682 76.4059 61.1933 76.4502 61.2263 76.4881C61.2594 76.5261 61.2997 76.5571 61.3449 76.5792C61.3902 76.6013 61.4394 76.614 61.4896 76.6168C61.5399 76.6195 61.5902 76.6121 61.6376 76.595C61.7345 76.5571 61.8128 76.4827 61.8556 76.3879C61.8985 76.293 61.9026 76.1852 61.8669 76.0874Z" fill="#F28F8F"/>
<path d="M59.0506 73.0418L59.656 72.568C59.6269 72.5269 59.5898 72.492 59.547 72.4654C59.5041 72.4389 59.4564 72.4212 59.4066 72.4135C59.3568 72.4058 59.3059 72.4082 59.257 72.4205C59.2082 72.4328 59.1623 72.4549 59.1221 72.4853C59.0409 72.551 58.9881 72.6456 58.9748 72.7492C58.9615 72.8528 58.9887 72.9576 59.0506 73.0418Z" fill="#263238"/>
<path d="M59.2386 73.8765C59.2376 73.9606 59.2698 74.0417 59.3282 74.1023C59.3867 74.1628 59.4666 74.1979 59.5507 74.1998C59.6358 74.1979 59.7167 74.1624 59.7758 74.1012C59.835 74.0399 59.8676 73.9578 59.8666 73.8727C59.8714 73.8286 59.8669 73.784 59.8533 73.7417C59.8397 73.6995 59.8174 73.6605 59.7878 73.6275C59.7582 73.5944 59.7219 73.568 59.6814 73.5499C59.6409 73.5318 59.597 73.5225 59.5526 73.5225C59.5082 73.5225 59.4643 73.5318 59.4238 73.5499C59.3833 73.568 59.347 73.5944 59.3174 73.6275C59.2878 73.6605 59.2655 73.6995 59.2519 73.7417C59.2383 73.784 59.2338 73.8286 59.2386 73.8727V73.8765Z" fill="#263238"/>
<path d="M60.8366 73.5794L60.7314 75.4632L59.75 75.1286L60.8366 73.5794Z" fill="#F28F8F"/>
<path d="M65.7096 122.866V122.576C65.5179 122.659 65.0704 124.362 64.277 125.088C63.6416 125.663 62.7731 126.332 62.5587 126.968C62.3444 127.603 63.7619 128.005 64.3523 127.9C65.0403 127.78 66.2322 127.295 66.5293 126.847C66.8263 126.4 66.9692 125.738 67.2098 125.407C67.4505 125.076 68.0145 124.712 68.1461 124.332C68.1848 123.977 68.145 123.617 68.0295 123.279C67.9355 122.926 67.8378 122.527 67.7175 122.568C67.7175 122.61 67.7175 122.787 67.7175 122.787C67.4319 123.012 67.0772 123.131 66.7135 123.125C66.424 123.148 65.7059 123.091 65.7096 122.866Z" fill="#263238"/>
<path d="M58.7348 119.688C58.6295 119.688 58.543 119.839 58.3137 120.087C57.9713 120.435 57.5721 120.723 57.133 120.937C56.381 121.313 54.9222 121.892 54.2604 122.189C53.8506 122.377 53.8844 122.873 54.2942 123.159C54.7041 123.445 55.7531 123.648 56.9902 123.369C57.6632 123.219 58.543 122.599 59.0958 122.617C59.6485 122.636 60.69 122.644 61.0998 122.362C61.5097 122.08 61.348 121.474 61.2314 120.955C61.1149 120.437 60.9231 119.527 60.7351 119.564V119.741C60.4945 120.117 59.265 120.256 58.7348 119.989V119.688Z" fill="#263238"/>
<path d="M56.0502 88.1306C55.6253 87.3373 55.52 87.3034 55.2643 87.1305C55.0087 86.9575 53.4633 86.7244 52.8203 86.6717C52.0683 86.6078 51.7939 86.747 52.0044 87.3974C52.5867 89.0368 53.2957 90.6283 54.1251 92.1576C54.3281 92.4246 54.3695 92.6727 55.2192 92.7554C56.069 92.8382 57.0127 92.8758 57.306 92.8946C57.5993 92.9134 58.0054 92.9848 57.7422 92.12C57.4063 91.1437 57.0185 90.186 56.5803 89.2511C56.272 88.5405 56.0502 88.1306 56.0502 88.1306Z" fill="#35D0B4"/>
<path d="M71.4624 90.5145C71.4436 90.2663 70.7104 87.4614 70.3344 86.1642L67.5821 87.1117L68.2288 89.1534L70.6503 91.6613C70.907 91.6109 71.1345 91.4638 71.2856 91.2503C71.4368 91.0368 71.5001 90.7733 71.4624 90.5145Z" fill="#FFA8A7"/>
<path d="M68.2176 89.1534C68.2176 89.1534 60.6299 89.9655 59.7388 89.691C58.8476 89.4166 57.652 88.5254 57.009 88.157C56.366 87.7885 55.9036 87.7584 55.9036 87.9126C55.9036 88.0667 56.4525 88.9052 56.5804 89.2511C56.7082 89.597 55.9863 89.6008 55.0463 89.3827C54.1063 89.1646 53.7265 88.6307 53.4784 88.939C53.2302 89.2474 54.001 90.819 55.5652 91.4094C57.1293 91.9997 58.2912 91.6086 59.5846 91.6613C60.878 91.7139 68.8455 92.2253 70.639 91.6613C70.6866 91.3744 70.6538 91.0799 70.5443 90.8104C70.4348 90.541 70.2528 90.3071 70.0186 90.1347C69.4816 89.7028 68.8716 89.3705 68.2176 89.1534Z" fill="#FFA8A7"/>
<path d="M65.1982 79.3586C66.3902 79.7534 68.7552 79.9526 69.5185 82.532C70.2818 85.1114 70.6653 86.7846 70.6653 86.7846C70.2141 87.3862 68.4093 88.0818 67.5821 87.8223L65.1982 79.3586Z" fill="#455A64"/>
<path d="M67.5821 87.8223L66.7662 84.9271L67.5821 89.003V87.8223Z" fill="#37474F"/>
<path d="M50.4666 93.906C50.429 93.9549 50.1094 94.4851 50.1094 94.4851L48.6392 96.5907L47.2066 98.7376C47.1615 98.803 47.0968 98.8525 47.0218 98.8788C46.9468 98.9052 46.8654 98.9071 46.7893 98.8843L46.6915 98.8504C46.1952 98.6662 45.4507 98.3541 44.4618 97.8991C43.6685 97.5231 43.7098 97.4141 43.7098 97.2787C43.6995 97.1712 43.6995 97.0629 43.7098 96.9554C43.8715 96.6471 44.3716 95.8763 45.0446 94.9024C46.2403 93.1653 46.8156 92.3945 47.1728 91.8944C47.2238 91.8215 47.299 91.7689 47.385 91.7462C47.4711 91.7235 47.5624 91.732 47.6428 91.7703C48.2858 91.9847 49.5905 92.5449 50.2748 92.8231H50.3049C50.6734 93.0224 50.4703 93.891 50.4666 93.906Z" fill="#35D0B4"/>
<path d="M50.5042 93.8383L50.1282 94.4851L48.6918 96.632L47.1878 98.7263C47.1427 98.7918 47.078 98.8412 47.003 98.8675C46.928 98.8939 46.8466 98.8958 46.7705 98.873L46.6727 98.8391C46.1764 98.6549 45.4319 98.3428 44.443 97.8879C43.6497 97.5119 43.691 97.4028 43.691 97.2675C43.6807 97.1599 43.6807 97.0516 43.691 96.9441C44.443 97.275 46.8231 98.403 46.9021 98.3616C47.0901 98.2714 48.7031 95.6845 49.5604 94.3647C49.989 93.7067 50.1808 93.4285 50.3124 93.2029C50.3366 93.176 50.3546 93.1441 50.3651 93.1095C50.3757 93.075 50.3786 93.0385 50.3735 93.0027C50.3685 92.9668 50.3557 92.9325 50.3361 92.9022C50.3164 92.8718 50.2904 92.8461 50.2597 92.8269H50.2297C50.3141 92.8714 50.387 92.9351 50.4425 93.0128C50.498 93.0905 50.5345 93.18 50.5493 93.2743C50.5903 93.3644 50.6076 93.4635 50.5997 93.5622C50.5919 93.6609 50.559 93.7559 50.5042 93.8383Z" fill="#35D0B4"/>
<path opacity="0.1" d="M50.5042 93.8383L50.1282 94.4851L48.6918 96.632L47.1878 98.7263C47.1427 98.7918 47.078 98.8412 47.003 98.8675C46.928 98.8939 46.8466 98.8958 46.7705 98.873L46.6727 98.8391C46.1764 98.6549 45.4319 98.3428 44.443 97.8879C43.6497 97.5119 43.691 97.4028 43.691 97.2675C43.6807 97.1599 43.6807 97.0516 43.691 96.9441C44.443 97.275 46.8231 98.403 46.9021 98.3616C47.0901 98.2714 48.7031 95.6845 49.5604 94.3647C49.989 93.7067 50.1808 93.4285 50.3124 93.2029C50.3366 93.176 50.3546 93.1441 50.3651 93.1095C50.3757 93.075 50.3786 93.0385 50.3735 93.0027C50.3685 92.9668 50.3557 92.9325 50.3361 92.9022C50.3164 92.8718 50.2904 92.8461 50.2597 92.8269H50.2297C50.3141 92.8714 50.387 92.9351 50.4425 93.0128C50.498 93.0905 50.5345 93.18 50.5493 93.2743C50.5903 93.3644 50.6076 93.4635 50.5997 93.5622C50.5919 93.6609 50.559 93.7559 50.5042 93.8383Z" fill="black"/>
<path d="M47.1916 92.387L49.8311 93.4924L47.0186 97.6735L44.3942 96.4666L47.1916 92.387Z" fill="#FAFAFA"/>
<path d="M46.4508 106.957C47.1728 106.75 48.2632 104.066 49.0828 101.02C49.9025 97.9743 50.3349 97.3013 50.3612 96.3425C50.3876 95.3837 50.3199 94.1241 50.3199 94.1241L48.8911 96.2109C48.8291 95.8083 48.7021 95.4184 48.5151 95.0566C48.3308 94.6806 47.9849 94.3835 47.7029 94.6091C47.5525 94.7294 47.9511 95.2446 47.8646 96.3951C47.8575 96.8538 47.903 97.3117 48 97.76L45.3454 104.19L46.4508 106.957Z" fill="#FFA8A7"/>
<path d="M35.7687 93.624C34.9302 93.3871 34.2196 93.8346 33.8248 95.1694C33.1327 97.6825 32.63 100.244 32.3208 102.832C32.208 103.761 32.0801 104.889 32.9675 104.975C33.6443 105.043 35.5995 104.667 35.9417 104.329C36.4004 103.885 36.3177 102.095 36.3177 102.095H35.3025C35.3025 102.095 35.5205 100.685 35.5845 100.257C35.8101 98.8166 36.1447 97.0005 36.1447 97.0005L35.7687 93.624Z" fill="#F28F8F"/>
<path d="M40.6905 92.3042L40.3484 95.316L37.378 95.6619L37.8066 91.665L40.6905 92.3042Z" fill="#FFA8A7"/>
<path d="M34.3324 87.9088C34.5768 85.1264 36.0846 83.9834 37.2502 83.7051C39.6039 83.1524 41.9276 83.942 42.8902 85.5851C43.1105 86.0996 43.2241 86.6535 43.2241 87.2132C43.2241 87.7729 43.1105 88.3268 42.8902 88.8413C42.3788 90.0069 34.3437 87.9013 34.3437 87.9013" fill="#263238"/>
<path d="M43.0368 89.4053C43.0368 89.4053 43.4617 90.5521 43.3489 90.6386C43.1716 90.7025 42.9846 90.7355 42.7961 90.7363L43.0368 89.4053Z" fill="#FFA8A7"/>
<path d="M41.7697 85.7807C42.3299 86.2619 43.2737 87.1343 43.0218 89.5407C42.7435 92.0298 42.1419 92.7028 41.7358 92.9435C41.4651 93.1051 40.2657 92.8231 39.7092 92.496C39.0174 92.0862 37.4833 91.0296 37.017 89.6046C36.4643 87.9276 36.7426 85.9273 37.9533 85.4047C38.5693 85.1396 39.2425 85.0351 39.9099 85.1008C40.5774 85.1666 41.2172 85.4005 41.7697 85.7807Z" fill="#FFA8A7"/>
<path d="M42.4615 85.8446C42.4735 86.51 42.3354 87.1696 42.0574 87.7744C41.7795 88.3791 41.3688 88.9134 40.856 89.3376C40.856 89.3376 40.5063 88.4314 39.728 88.6382C38.9496 88.845 38.976 89.8715 39.5324 90.428C39.6767 90.5871 39.8634 90.7016 40.0705 90.7582C40.2777 90.8149 40.4967 90.8112 40.7018 90.7476C40.5908 91.4589 40.2579 92.1169 39.7505 92.6276C38.9408 92.8138 38.0951 92.7679 37.3103 92.4953C36.5255 92.2226 35.8335 91.7341 35.3137 91.086C33.5954 89.0218 34.103 85.743 36.7876 84.7767C37.7369 84.3958 38.7751 84.294 39.7803 84.4831C40.7855 84.6723 41.7157 85.1446 42.4615 85.8446Z" fill="#263238"/>
<path d="M37.0208 137.616L38.3029 139.398C37.7189 139.662 37.0825 139.791 36.4417 139.774C35.2949 139.819 34.9791 139.443 34.9377 139.353C34.7422 138.936 35.0468 138.188 35.1295 137.545L37.0208 137.616Z" fill="#263238"/>
<path d="M38.224 138.537C38.224 138.537 39.7769 138.436 40.856 138.3C41.9351 138.165 42.7811 138.676 42.5292 139.131C42.2773 139.586 41.6832 139.943 40.762 140.259C39.9761 140.526 39.0286 140.718 38.2052 140.962C37.3817 141.207 36.8215 141.508 36.344 141.338C35.8101 141.154 35.592 140.94 35.6258 140.553C35.7423 140 35.8866 139.455 36.0582 138.917L38.224 138.537Z" fill="#263238"/>
<path d="M34.9377 135.819C34.9377 135.819 35.1295 137.436 35.1445 137.785C35.1596 138.135 36.7237 138.244 37.0245 137.609L37.0734 135.631L34.9377 135.819Z" fill="#F28F8F"/>
<path d="M36.5132 136.815L35.968 139.27C35.968 139.27 35.9116 139.567 37.1937 139.759C38.4759 139.951 40.4762 139.09 40.8184 138.917C41.1605 138.744 41.1944 138.394 39.9423 138.462C38.6902 138.53 38.2428 138.537 38.2428 138.537L38.6526 137.447L36.5132 136.815Z" fill="#FFA8A7"/>
<path d="M34.9378 103.945C33.8662 105.611 32.851 107.077 32.6329 108.95C32.1742 112.905 33.6782 117.425 33.9978 120.35C33.3898 121.183 33.0382 122.174 32.9863 123.204C32.9863 124.415 34.9378 135.819 34.9378 135.819C34.9378 135.819 36.3553 136.251 37.0697 135.631L38.412 114.65L37.7051 112.097L34.9378 103.945Z" fill="#455A64"/>
<path d="M38.412 114.65L37.7051 112.097C36.3747 111.751 35.0908 111.246 33.8812 110.593C33.8812 110.593 34.6068 111.909 36.6786 112.631L37.7577 115.913L37.8517 123.433L38.412 114.65Z" fill="#37474F"/>
<path d="M34.9378 103.945C34.3662 104.878 32.9938 106.479 33.2871 108.014C33.6406 109.894 34.6407 111.183 37.7051 112.097L40.5778 122.501C40.5778 122.501 39.0738 123.903 38.6263 125.234C38.1789 126.565 36.5132 136.815 36.5132 136.815C36.5132 136.815 37.0246 137.65 38.6414 137.447C38.6414 137.447 44.2814 124.591 44.6574 123.764C45.1384 122.917 45.3074 121.929 45.1349 120.97C44.9544 119.624 43.0368 104.878 43.0368 104.878L34.9378 103.945Z" fill="#455A64"/>
<path d="M34.4151 94.5565C34.5304 94.2498 34.7475 93.992 35.0303 93.8263C35.313 93.6606 35.644 93.5972 35.968 93.6466C37.9721 94.1918 41.0891 94.9099 41.6794 95.0829C41.6794 95.0829 41.4125 98.9444 43.7211 100.306C43.6121 101.167 43.0255 104.878 43.0255 104.878C43.0255 104.878 40.2506 106.224 37.9683 105.562C35.686 104.9 34.9189 103.945 34.9189 103.945L36.0469 102.084C35.8025 101.479 34.8588 99.4219 34.2497 97.5119C34.0383 96.5298 34.0955 95.5089 34.4151 94.5565Z" fill="#FAFAFA"/>
<path d="M35.7687 101.351C36.7179 101.922 37.7127 102.414 38.7428 102.821C37.8066 102.797 36.8913 102.538 36.0808 102.069L35.7687 101.351Z" fill="#E0E0E0"/>
<path d="M43.6722 100.016C42.8521 99.6401 42.1773 99.0063 41.7509 98.2112C41.82 98.8221 42.0294 99.4087 42.3627 99.9252C42.696 100.442 43.1442 100.874 43.6722 101.189V100.016Z" fill="#E0E0E0"/>
<path d="M41.6982 95.0829C42.9578 95.4589 43.7399 95.5792 44.4205 96.1883C45.3154 96.993 46.2403 101.543 46.4283 102.483C46.7554 104.111 47.1164 105.803 46.763 106.562C46.5073 107.111 45.1161 107.521 44.507 105.746C44.3791 105.37 44.3528 105.197 44.24 104.859C43.6647 103.159 42.7999 99.9107 42.7999 99.9107C42.7999 99.9107 41.0966 98.9707 41.6982 95.0829Z" fill="#FFA8A7"/>
<path d="M35.592 84.7767C35.1445 85.0362 34.3361 85.2881 33.8323 87.6381C33.4221 89.6095 33.1781 91.6118 33.1028 93.624C33.1216 94.3535 34.6332 96.3801 37.8216 96.1883C41.0101 95.9966 42.1682 94.1279 42.1682 94.1279C42.1682 94.1279 40.6003 93.4887 40.7244 90.7439C40.7244 90.7439 40.1716 91.8305 38.6564 91.2853C37.1411 90.7401 35.592 84.7767 35.592 84.7767Z" fill="#263238"/>
</svg>
