<svg width="305" height="216" viewBox="0 0 305 216" fill="none" xmlns="http://www.w3.org/2000/svg">
<path d="M1.43457 100.998L48.4478 83.5513L54.8224 88.3096V78H65.1813L66.7749 162.063C68.9159 166.332 70.7008 167.08 74.7433 166.028H229.329C233.864 165.922 235.628 164.519 236.501 158.098V78H247.656V89.1027L254.828 83.5513L303.435 100.998L284.311 135.099L273.155 135.893L264.39 140.651V147.788L269.968 150.167V157.305L260.406 170.787L261.999 180.303C221.963 186.831 198.669 186.683 156.817 185.062L152.036 180.303L146.458 185.062C102.698 186.42 79.6904 185.697 42.8699 180.303C44.8484 173.335 43.3564 168.606 34.1048 158.098C34.1048 153.34 34.1048 148.581 41.2763 145.409C40.4794 133.513 26.1364 135.893 20.7813 135.893C9.69499 116.76 1.43457 100.998 1.43457 100.998Z" fill="#35D0B4" fill-opacity="0.52"/>
<path d="M245.686 85.4846H238.513" stroke="white" stroke-linecap="round"/>
<path d="M52.8066 168.375L51.2125 175.548C77.8467 179.326 94.883 179.629 126.93 178.736" stroke="white" stroke-linecap="round"/>
<path d="M13.7524 105.41L29.6929 130.118" stroke="white" stroke-linecap="round"/>
<path d="M40.0542 148.449L52.8066 168.375" stroke="white" stroke-linecap="round"/>
<path d="M138.885 179.533H147.652L153.232 174.751L157.217 179.533H165.187" stroke="white" stroke-linecap="round"/>
<path d="M177.939 178.736C206.531 179.069 222.754 178.707 252.86 174.751L250.469 169.172L264.815 149.246" stroke="white" stroke-linecap="round"/>
<path d="M275.973 133.306L292.711 104.613L250.469 88.6726" stroke="white" stroke-linecap="round"/>
<path d="M292.711 104.613L298.29 106.207" stroke="white" stroke-linecap="round"/>
<path d="M62.3708 30.4899C84.7372 22.097 97.7762 19.1382 122.148 17.7375" stroke="#35D0B4" stroke-linecap="round"/>
<path d="M5.78214 107.004L52.0095 88.6727L57.5887 85.4846H66.356" stroke="white" stroke-linecap="round"/>
<path d="M120.554 107.274C123.977 109.817 125.898 110.053 129.321 107.274" stroke="#35D0B4" stroke-linecap="round"/>
<ellipse cx="179.055" cy="107.274" rx="2.39107" ry="3.1881" fill="#35D0B4"/>
<path d="M143.667 129.591C138.6 122.183 134.192 124.012 133.306 125.606C128.524 132.779 148.449 142.343 153.232 134.373C152.24 130.273 149.896 129.429 143.667 129.591Z" stroke="#35D0B4" stroke-linejoin="round"/>
<path d="M135.697 133.576L141.276 127.997" stroke="#35D0B4" stroke-linejoin="round"/>
<path d="M145.261 130.388V137.561" stroke="#35D0B4" stroke-linejoin="round"/>
<path d="M67.1529 158.283V64.2346C67.1529 55.4674 66.1483 50.1668 70.341 49.0911L79.9052 44.309C79.9052 40.3239 79.9052 40.3239 84.6874 40.3239H126.93C134.103 40.3239 134.103 41.918 134.103 49.0911H231.34C234.942 49.7726 236.582 50.7199 236.919 56.2643V160.674C236.256 165.514 234.046 166.661 228.152 167.051H73.5291C68.6307 166.083 67.0822 164.319 67.1529 158.283Z" stroke="#35D0B4" stroke-linejoin="round"/>
<path d="M67.95 55.4674H234.528" stroke="#35D0B4" stroke-linejoin="round"/>
<path d="M67.95 64.2347H234.528" stroke="#35D0B4" stroke-linejoin="round"/>
<path d="M79.9054 49.8882V50.3882C80.1815 50.3882 80.4054 50.1644 80.4054 49.8882H79.9054ZM80.4054 44.3091C80.4054 44.0329 80.1815 43.8091 79.9054 43.8091C79.6292 43.8091 79.4054 44.0329 79.4054 44.3091H80.4054ZM71.1381 50.3882H79.9054V49.3882H71.1381V50.3882ZM80.4054 49.8882V44.3091H79.4054V49.8882H80.4054Z" fill="#35D0B4"/>
<path d="M65.559 60.2495C4.98513 61.0466 77.5141 26.7746 141.276 29.9626C155.623 31.6587 153.905 35.6364 135.697 45.9031" stroke="#35D0B4" stroke-linecap="square" stroke-linejoin="round"/>
<path d="M61.5738 41.1215C61.3811 19.008 65.5589 2.86384 91.0637 10.0376L99.0339 3.66141C103.545 0.039386 105.982 0.187112 110.192 3.66141C120.851 12.1007 124.769 17.5438 128.524 28.3691" stroke="#35D0B4" stroke-linejoin="round"/>
<path d="M66.356 78.5811H55.1976V88.9424L48.0244 84.1603L1 102.492L20.1286 135.17C1.79702 147.922 17.7375 167.051 34.475 157.486L44.8363 172.63L42.4452 180.6C63.9649 185.382 94.423 187.692 127.727 186.976V167.848" stroke="#35D0B4" stroke-linejoin="round"/>
<path d="M20.1286 135.17H30.4899L31.2869 124.011" stroke="#35D0B4" stroke-linecap="round" stroke-linejoin="round"/>
<path d="M42.4453 142.343C47.7336 143.877 49.4863 145.105 50.4155 147.922" stroke="#35D0B4" stroke-linecap="round" stroke-linejoin="round"/>
<path d="M31.2869 135.17C42.4453 137.561 47.2274 147.125 35.272 148.719V156.689" stroke="#35D0B4" stroke-linejoin="round"/>
<path d="M37.6631 137.561C41.2665 133.805 42.819 132.788 44.8363 132.779" stroke="#35D0B4" stroke-linecap="round" stroke-linejoin="round"/>
<path d="M266.409 27.5716L264.018 37.1359" stroke="#35D0B4" stroke-linecap="round" stroke-linejoin="round"/>
<path d="M279.161 33.9478L271.191 41.918" stroke="#35D0B4" stroke-linecap="round" stroke-linejoin="round"/>
<path d="M286.335 45.1061L275.973 49.0913" stroke="#35D0B4" stroke-linecap="round" stroke-linejoin="round"/>
<path d="M65.559 102.492L51.2125 116.041" stroke="#35D0B4" stroke-linecap="round" stroke-linejoin="round"/>
<path d="M48.8214 112.853C51.2951 124.685 53.5692 129.125 58.3857 135.17" stroke="#35D0B4" stroke-linecap="round" stroke-linejoin="round"/>
<path d="M65.5589 116.041L55.1976 128.794" stroke="#35D0B4" stroke-linecap="round" stroke-linejoin="round"/>
<path d="M237.716 103.289L252.86 117.635" stroke="#35D0B4" stroke-linecap="round" stroke-linejoin="round"/>
<path d="M237.716 116.838C243.414 122.02 246.009 124.851 248.077 129.591" stroke="#35D0B4" stroke-linecap="round" stroke-linejoin="round"/>
<path d="M256.048 112.056C253.617 122.605 251.22 128.341 245.686 138.358" stroke="#35D0B4" stroke-linecap="round" stroke-linejoin="round"/>
<path d="M127.727 186.976V197.338C115.771 198.135 116.568 203.714 122.148 203.714H133.306C136.741 203.796 137.508 202.447 137.291 198.135V167.848" stroke="#35D0B4" stroke-linecap="round" stroke-linejoin="round"/>
<path d="M137.291 186.179H146.855L152.435 182.991L156.42 186.179H166.781V167.848" stroke="#35D0B4" stroke-linecap="round" stroke-linejoin="round"/>
<path d="M166.781 186.976V199.729C166.698 202.983 167.642 203.542 169.969 203.714H180.33C185.477 204.035 185.957 203.197 185.91 201.323C183.83 198.1 181.408 197.557 176.345 197.338V167.051" stroke="#35D0B4" stroke-linecap="round" stroke-linejoin="round"/>
<path d="M177.142 186.977C213.54 186.862 232.958 186.138 262.424 181.397L260.033 171.833L270.394 157.487C278.463 160.852 282.746 161.388 289.523 157.487C294.97 148.76 293.831 141.765 289.523 137.561C283.944 134.373 270.394 133.576 264.018 140.749V147.125C255.616 150.846 254.105 152.485 253.657 155.096" stroke="#35D0B4" stroke-linecap="round" stroke-linejoin="round"/>
<path d="M253.657 137.561L264.018 139.952" stroke="#35D0B4" stroke-linecap="round" stroke-linejoin="round"/>
<path d="M264.018 147.922L270.394 148.719V156.69" stroke="#35D0B4" stroke-linecap="round" stroke-linejoin="round"/>
<path d="M271.988 123.214L273.582 135.17" stroke="#35D0B4" stroke-linecap="round" stroke-linejoin="round"/>
<path d="M236.919 78.5811H246.483V88.9424L254.454 84.1603L303.869 102.492L284.741 133.576" stroke="#35D0B4" stroke-linecap="round" stroke-linejoin="round"/>
<ellipse cx="153.232" cy="206.902" rx="94.8459" ry="8.76726" fill="black" fill-opacity="0.05"/>
</svg>
