<svg width="197" height="137" viewBox="0 0 197 137" fill="none" xmlns="http://www.w3.org/2000/svg">
<path d="M197 130.96H0V131.06H197V130.96Z" fill="#EBEBEB"/>
<path d="M60.0849 133.376H55.9558V133.476H60.0849V133.376Z" fill="#EBEBEB"/>
<path d="M183.675 136H176.642V136.1H183.675V136Z" fill="#EBEBEB"/>
<path d="M150.465 133.424H127.16V133.524H150.465V133.424Z" fill="#EBEBEB"/>
<path d="M92.1527 135.704H74.3242V135.804H92.1527V135.704Z" fill="#EBEBEB"/>
<path d="M55.0339 135.072H48.856V135.172H55.0339V135.072Z" fill="#EBEBEB"/>
<path d="M167.978 135.704H159.089V135.804H167.978V135.704Z" fill="#EBEBEB"/>
<path d="M46.5591 135.024H25.5825V135.124H46.5591V135.024Z" fill="#EBEBEB"/>
<path d="M93.3779 113.12H17.3005C16.7045 113.119 16.1333 112.878 15.7122 112.45C15.2912 112.021 15.0547 111.441 15.0547 110.836V2.26406C15.0599 1.66247 15.2986 1.08725 15.7191 0.663348C16.1396 0.239444 16.7079 0.00109159 17.3005 6.10352e-05H93.3779C93.9746 6.10352e-05 94.5468 0.240696 94.9688 0.669029C95.3907 1.09736 95.6277 1.67831 95.6277 2.28406V2.28406V110.836C95.6277 111.442 95.3907 112.023 94.9688 112.451C94.5468 112.879 93.9746 113.12 93.3779 113.12V113.12ZM17.3005 0.0800613C16.7306 0.0811209 16.1845 0.311687 15.7819 0.721152C15.3793 1.13062 15.1532 1.68552 15.1532 2.26406V110.836C15.1532 111.415 15.3793 111.97 15.7819 112.379C16.1845 112.788 16.7306 113.019 17.3005 113.02H93.3779C93.9479 113.018 94.4938 112.787 94.8968 112.378C95.2998 111.969 95.5271 111.415 95.5292 110.836V2.26406C95.5271 1.68548 95.2998 1.13119 94.8968 0.722069C94.4938 0.312945 93.9479 0.0821691 93.3779 0.0800613H17.3005Z" fill="#EBEBEB"/>
<path d="M178.604 113.12H102.523C101.927 113.118 101.356 112.877 100.934 112.449C100.513 112.021 100.275 111.441 100.273 110.836V2.26406C100.279 1.66211 100.519 1.08689 100.94 0.663098C101.361 0.239304 101.93 0.00108035 102.523 6.10352e-05H178.604C179.196 0.00214283 179.763 0.240961 180.183 0.664752C180.603 1.08854 180.841 1.66316 180.846 2.26406V110.836C180.846 111.135 180.789 111.432 180.677 111.709C180.564 111.986 180.399 112.237 180.191 112.449C179.983 112.662 179.735 112.83 179.463 112.945C179.191 113.06 178.899 113.12 178.604 113.12V113.12ZM102.523 0.0800613C101.953 0.0821691 101.407 0.312945 101.004 0.722069C100.601 1.13119 100.374 1.68548 100.371 2.26406V110.836C100.374 111.415 100.601 111.969 101.004 112.378C101.407 112.787 101.953 113.018 102.523 113.02H178.604C179.174 113.018 179.72 112.787 180.123 112.378C180.526 111.969 180.753 111.415 180.755 110.836V2.26406C180.753 1.68548 180.526 1.13119 180.123 0.722069C179.72 0.312945 179.174 0.0821691 178.604 0.0800613H102.523Z" fill="#EBEBEB"/>
<path d="M80.2932 11.8521H30.5547V87.4281H80.2932V11.8521Z" fill="#E6E6E6"/>
<path d="M79.1901 11.8521H29.4515V87.4281H79.1901V11.8521Z" fill="#F5F5F5"/>
<path d="M77.2042 14.1161H31.4332V85.1681H77.2042V14.1161Z" fill="white"/>
<path d="M32.2725 14.1121H31.4373V85.1641H32.2725V14.1121Z" fill="#E6E6E6"/>
<path d="M78.3667 63.1201H30.2711V66.1561H78.3667V63.1201Z" fill="#F5F5F5"/>
<path opacity="0.4" d="M78.3706 8.42004H27.387V23.964H78.3706V8.42004Z" fill="#F0F0F0"/>
<path d="M27.2885 8.10804H82.4485C82.524 8.11182 82.5954 8.14368 82.6492 8.19754C82.703 8.25141 82.7353 8.32349 82.7401 8.40004V8.40004C82.7401 8.48278 82.7077 8.56214 82.65 8.62065C82.5924 8.67917 82.5142 8.71204 82.4327 8.71204H27.2727C27.1919 8.71098 27.1148 8.67765 27.058 8.61925C27.0012 8.56085 26.9694 8.4821 26.9694 8.40004V8.40004C26.9754 8.31906 27.0119 8.24355 27.0714 8.18918C27.1308 8.13481 27.2085 8.10575 27.2885 8.10804V8.10804Z" fill="#E6E6E6"/>
<path d="M25.4563 8.40006C25.4555 8.70701 25.5444 9.00731 25.7118 9.26297C25.8791 9.51864 26.1173 9.71818 26.3964 9.83638C26.6754 9.95458 26.9827 9.98612 27.2794 9.92701C27.5761 9.8679 27.8489 9.7208 28.0632 9.50431C28.2775 9.28781 28.4238 9.01166 28.4836 8.71076C28.5433 8.40985 28.5139 8.09772 28.3989 7.81383C28.2839 7.52993 28.0886 7.28703 27.8376 7.11584C27.5866 6.94465 27.2913 6.85285 26.989 6.85206V6.85206C26.7882 6.85153 26.5893 6.89115 26.4036 6.96866C26.218 7.04617 26.0492 7.16005 25.9068 7.3038C25.7645 7.44754 25.6515 7.61834 25.5742 7.80644C25.4969 7.99453 25.4568 8.19625 25.4563 8.40006V8.40006Z" fill="#E6E6E6"/>
<path d="M79.8836 10.152C79.9899 10.1522 80.0923 10.1107 80.1693 10.0362C80.2464 9.9617 80.2922 9.85994 80.2973 9.75205V8.83605C80.2922 8.72816 80.2464 8.6264 80.1693 8.55191C80.0923 8.47742 79.9899 8.43592 79.8836 8.43605V8.43605C79.8302 8.43333 79.7768 8.44168 79.7267 8.46056C79.6766 8.47944 79.6308 8.50847 79.5921 8.54589C79.5534 8.58331 79.5226 8.62833 79.5016 8.67821C79.4806 8.72809 79.4698 8.78179 79.4698 8.83605V9.75605C79.4698 9.86214 79.5114 9.96388 79.5852 10.0389C79.6591 10.1139 79.7594 10.156 79.8638 10.156L79.8836 10.152Z" fill="#E6E6E6"/>
<path d="M31.914 10.152C32.0185 10.152 32.1187 10.1099 32.1926 10.0349C32.2665 9.95986 32.308 9.85812 32.308 9.75204V8.83604C32.308 8.72995 32.2665 8.62821 32.1926 8.5532C32.1187 8.47818 32.0185 8.43604 31.914 8.43604C31.8095 8.43604 31.7093 8.47818 31.6354 8.5532C31.5615 8.62821 31.52 8.72995 31.52 8.83604V9.73604C31.52 9.84212 31.5615 9.94386 31.6354 10.0189C31.7093 10.0939 31.8095 10.136 31.914 10.136V10.152Z" fill="#E6E6E6"/>
<path d="M73.4456 8.40006C73.4448 8.70701 73.5337 9.00731 73.701 9.26297C73.8683 9.51864 74.1066 9.71818 74.3856 9.83638C74.6647 9.95458 74.972 9.98612 75.2686 9.92701C75.5653 9.8679 75.8381 9.7208 76.0525 9.50431C76.2668 9.28781 76.4131 9.01166 76.4728 8.71076C76.5326 8.40985 76.5031 8.09772 76.3881 7.81383C76.2732 7.52993 76.0778 7.28703 75.8269 7.11584C75.5759 6.94465 75.2806 6.85285 74.9782 6.85206V6.85206C74.7775 6.85153 74.5786 6.89115 74.3929 6.96866C74.2072 7.04617 74.0384 7.16005 73.8961 7.3038C73.7538 7.44754 73.6407 7.61834 73.5634 7.80644C73.4861 7.99453 73.4461 8.19625 73.4456 8.40006V8.40006Z" fill="#E6E6E6"/>
<path d="M169.117 96.5201H154.728V128.904H169.117V96.5201Z" fill="#E6E6E6"/>
<path d="M166.355 128.908H95.4031V130.96H166.355V128.908Z" fill="#E6E6E6"/>
<path d="M154.728 96.5241H92.6373V128.908H154.728V96.5241Z" fill="#F5F5F5"/>
<path d="M149.074 100.508H98.295V111.128H149.074V100.508Z" fill="#E6E6E6"/>
<path d="M149.074 114.3H98.295V124.92H149.074V114.3Z" fill="#E6E6E6"/>
<path d="M130.15 105.092H117.211C116.861 105.092 116.577 105.38 116.577 105.736V105.904C116.577 106.26 116.861 106.548 117.211 106.548H130.15C130.5 106.548 130.784 106.26 130.784 105.904V105.736C130.784 105.38 130.5 105.092 130.15 105.092Z" fill="#F5F5F5"/>
<path d="M130.15 118.88H117.211C116.861 118.88 116.577 119.168 116.577 119.524V119.692C116.577 120.048 116.861 120.336 117.211 120.336H130.15C130.5 120.336 130.784 120.048 130.784 119.692V119.524C130.784 119.168 130.5 118.88 130.15 118.88Z" fill="#F5F5F5"/>
<path d="M137.573 91.876C139.331 91.876 140.757 90.429 140.757 88.644C140.757 86.8591 139.331 85.412 137.573 85.412C135.815 85.412 134.39 86.8591 134.39 88.644C134.39 90.429 135.815 91.876 137.573 91.876Z" fill="#F5F5F5"/>
<path d="M131.828 91.144C133.58 91.144 135 89.7024 135 87.924C135 86.1457 133.58 84.704 131.828 84.704C130.077 84.704 128.657 86.1457 128.657 87.924C128.657 89.7024 130.077 91.144 131.828 91.144Z" fill="#F5F5F5"/>
<path d="M116.494 92.632C118.246 92.632 119.666 91.1904 119.666 89.412C119.666 87.6337 118.246 86.192 116.494 86.192C114.742 86.192 113.322 87.6337 113.322 89.412C113.322 91.1904 114.742 92.632 116.494 92.632Z" fill="#F5F5F5"/>
<path d="M124.67 94.12C126.421 94.12 127.841 92.6784 127.841 90.9C127.841 89.1217 126.421 87.68 124.67 87.68C122.918 87.68 121.498 89.1217 121.498 90.9C121.498 92.6784 122.918 94.12 124.67 94.12Z" fill="#F5F5F5"/>
<path d="M146.028 89.1161C146.028 89.1161 145.516 96.5241 125.832 96.5241C106.148 96.5241 105.635 89.1161 105.635 89.1161H146.028Z" fill="#E6E6E6"/>
<path d="M78.9969 97.332H71.8143V128.956H78.9969V97.332Z" fill="#E6E6E6"/>
<path d="M77.6142 128.956H31.0276V130.96H77.6142V128.956Z" fill="#E6E6E6"/>
<path d="M71.8104 97.332H29.6484V128.956H71.8104V97.332Z" fill="#F5F5F5"/>
<path d="M68.9894 101.224H32.4735V111.596H68.9894V101.224Z" fill="#E6E6E6"/>
<path d="M68.9894 114.692H32.4735V125.064H68.9894V114.692Z" fill="#E6E6E6"/>
<path d="M45.1996 102.492H56.2592C56.6194 102.49 56.9644 102.344 57.2195 102.086C57.4746 101.828 57.6194 101.478 57.6225 101.112V101.112C57.6214 100.745 57.4775 100.394 57.222 100.135C56.9666 99.8753 56.6204 99.7291 56.2592 99.7281H45.1996C44.8394 99.7312 44.4949 99.8782 44.2405 100.137C43.9861 100.396 43.8424 100.746 43.8403 101.112V101.112C43.8424 101.477 43.9863 101.827 44.2407 102.086C44.4952 102.344 44.8398 102.49 45.1996 102.492V102.492Z" fill="#F5F5F5"/>
<path d="M45.1996 115.96H56.2592C56.6204 115.959 56.9666 115.813 57.222 115.554C57.4775 115.294 57.6214 114.943 57.6225 114.576C57.6194 114.21 57.4746 113.861 57.2195 113.602C56.9644 113.344 56.6194 113.198 56.2592 113.196H45.1996C44.8398 113.198 44.4952 113.344 44.2407 113.603C43.9863 113.861 43.8424 114.211 43.8403 114.576C43.8424 114.942 43.9861 115.292 44.2405 115.551C44.4949 115.81 44.8394 115.957 45.1996 115.96V115.96Z" fill="#F5F5F5"/>
<path d="M130.804 18.816H110.182V61.432H130.804V18.816Z" fill="#EBEBEB"/>
<path d="M130.359 18.816H108.527V61.432H130.359V18.816Z" fill="#F5F5F5"/>
<path d="M127.179 22.04H111.699V58.208H127.179V22.04Z" fill="white"/>
<path d="M169.451 41.492H158.159V54.7H169.451V41.492Z" fill="#EBEBEB"/>
<path d="M168.112 41.492H155.874V54.7H168.112V41.492Z" fill="#F5F5F5"/>
<path d="M167.087 42.536H156.903V53.66H167.087V42.536Z" fill="white"/>
<path d="M163.719 45.232H160.267C159.771 45.232 159.369 45.6403 159.369 46.144V50.052C159.369 50.5557 159.771 50.964 160.267 50.964H163.719C164.215 50.964 164.617 50.5557 164.617 50.052V46.144C164.617 45.6403 164.215 45.232 163.719 45.232Z" fill="#F0F0F0"/>
<path d="M160.35 23.1161H149.058V36.3241H160.35V23.1161Z" fill="#EBEBEB"/>
<path d="M159.014 23.1161H146.777V36.3241H159.014V23.1161Z" fill="#F5F5F5"/>
<path d="M157.99 24.1561H147.805V35.2801H157.99V24.1561Z" fill="white"/>
<path d="M154.621 26.8521H151.17C150.674 26.8521 150.272 27.2604 150.272 27.7641V31.672C150.272 32.1757 150.674 32.5841 151.17 32.5841H154.621C155.117 32.5841 155.52 32.1757 155.52 31.672V27.7641C155.52 27.2604 155.117 26.8521 154.621 26.8521Z" fill="#F0F0F0"/>
<path d="M143.267 34.4275L58.1982 34.4426L58.2128 119.007L143.281 118.991L143.267 34.4275Z" fill="#35D0B4"/>
<path d="M141.08 37.1301L60.385 37.1444L60.3991 119.004L141.094 118.99L141.08 37.1301Z" fill="white"/>
<path opacity="0.5" d="M143.267 34.4275L58.1982 34.4426L58.2128 119.007L143.281 118.991L143.267 34.4275Z" fill="white"/>
<path d="M143.271 117.806L143.269 118.997L100.402 119.002L109.664 109.602L122.421 96.6405L143.271 117.806Z" fill="#35D0B4"/>
<path opacity="0.5" d="M143.271 117.806L143.269 118.997L100.402 119.002L109.664 109.602L122.421 96.6405L143.271 117.806Z" fill="white"/>
<path d="M58.2014 119.007L58.202 110.881L84.5584 84.1174L118.924 119.001L58.2014 119.007Z" fill="#35D0B4"/>
<path opacity="0.5" d="M58.2014 119.007L58.202 110.881L84.5584 84.1174L118.924 119.001L58.2014 119.007Z" fill="white"/>
<path d="M113.914 74.7764C121.093 75.2515 127.292 69.7287 127.76 62.4407C128.228 55.1528 122.788 48.8596 115.609 48.3844C108.43 47.9093 102.232 53.4322 101.764 60.7202C101.296 68.0081 106.736 74.3013 113.914 74.7764Z" fill="#35D0B4"/>
<path opacity="0.5" d="M113.914 74.7764C121.093 75.2515 127.292 69.7287 127.76 62.4407C128.228 55.1528 122.788 48.8596 115.609 48.3844C108.43 47.9093 102.232 53.4322 101.764 60.7202C101.296 68.0081 106.736 74.3013 113.914 74.7764Z" fill="white"/>
</svg>
