<svg width="231" height="241" viewBox="0 0 231 241" fill="none" xmlns="http://www.w3.org/2000/svg">
<g style="mix-blend-mode:darken">
<path d="M218.417 67.2307C184.217 56.0962 16.3987 123.196 11.127 160.281C10.3986 165.405 11.9782 171.127 14.2008 175.801C23.5983 195.563 72.9687 225.371 114.608 215.911C124.637 213.633 135.53 217.05 132.926 226.999C131.748 231.496 130.033 235.511 129.33 237.998C128.442 241.143 133.23 240.151 136.408 239.39C177.559 229.539 242.395 103.247 228.2 75.4389C226.27 71.6585 222.452 68.5447 218.417 67.2307Z" fill="#35D0B4"/>
</g>
<path d="M198 151.43H0V151.529H198V151.43Z" fill="#EBEBEB"/>
<path d="M178.16 157.802H165.045V157.901H178.16V157.802Z" fill="#EBEBEB"/>
<path d="M131.163 158.879H127.722V158.978H131.163V158.879Z" fill="#EBEBEB"/>
<path d="M164.649 154.127H157.05V154.226H164.649V154.127Z" fill="#EBEBEB"/>
<path d="M37.8774 154.792H20.7742V154.891H37.8774V154.792Z" fill="#EBEBEB"/>
<path d="M43.9124 154.792H41.4058V154.891H43.9124V154.792Z" fill="#EBEBEB"/>
<path d="M89.1594 156.464H52.0621V156.563H89.1594V156.464Z" fill="#EBEBEB"/>
<path d="M93.852 133.769H17.3884C16.7894 133.768 16.2152 133.529 15.792 133.105C15.3688 132.681 15.1312 132.107 15.1312 131.508V24.0214C15.1364 23.4258 15.3764 22.8563 15.799 22.4367C16.2216 22.017 16.7928 21.781 17.3884 21.78H93.852C94.4517 21.78 95.0268 22.0182 95.4509 22.4423C95.8749 22.8663 96.1132 23.4415 96.1132 24.0412V131.508C96.1132 132.107 95.8749 132.682 95.4509 133.107C95.0268 133.531 94.4517 133.769 93.852 133.769ZM17.3884 21.8592C16.8156 21.8602 16.2667 22.0885 15.862 22.4939C15.4574 22.8992 15.2302 23.4486 15.2302 24.0214V131.508C15.2302 132.08 15.4574 132.63 15.862 133.035C16.2667 133.44 16.8156 133.669 17.3884 133.67H93.852C94.4251 133.669 94.9745 133.441 95.3797 133.035C95.785 132.63 96.0131 132.081 96.0142 131.508V24.0214C96.0131 23.4482 95.785 22.8989 95.3797 22.4936C94.9745 22.0884 94.4251 21.8602 93.852 21.8592H17.3884Z" fill="#EBEBEB"/>
<path d="M179.511 133.769H103.043C102.444 133.768 101.869 133.529 101.445 133.105C101.022 132.682 100.783 132.107 100.782 131.508V24.0214C100.788 23.4254 101.029 22.856 101.452 22.4364C101.876 22.0168 102.447 21.781 103.043 21.78H179.511C180.106 21.7821 180.676 22.0185 181.098 22.438C181.519 22.8576 181.759 23.4265 181.764 24.0214V131.508C181.764 132.106 181.527 132.68 181.105 133.104C180.682 133.528 180.109 133.767 179.511 133.769ZM103.043 21.8592C102.47 21.8602 101.921 22.0884 101.515 22.4936C101.11 22.8989 100.882 23.4482 100.881 24.0214V131.508C100.882 132.081 101.11 132.63 101.515 133.035C101.921 133.441 102.47 133.669 103.043 133.67H179.511C180.084 133.669 180.633 133.441 181.038 133.035C181.444 132.63 181.672 132.081 181.673 131.508V24.0214C181.672 23.4482 181.444 22.8989 181.038 22.4936C180.633 22.0884 180.084 21.8602 179.511 21.8592H103.043Z" fill="#EBEBEB"/>
<path d="M88.1852 72.7571H26.1954V151.252H88.1852V72.7571Z" fill="#F0F0F0"/>
<path d="M85.9914 75.6202H28.3853V92.4066H85.9914V75.6202Z" fill="#E0E0E0"/>
<path d="M31.6562 78.3367H28.3853V92.4026H31.6562V78.3367Z" fill="#EBEBEB"/>
<path d="M47.4804 78.3367H44.2094V92.4026H47.4804V78.3367Z" fill="#EBEBEB"/>
<path d="M65.443 77.9796L62.2196 78.5352L64.6089 92.3967L67.8323 91.8411L65.443 77.9796Z" fill="#EBEBEB"/>
<path d="M35.7113 80.19H32.4403V92.4026H35.7113V80.19Z" fill="#EBEBEB"/>
<path d="M43.2313 80.19H39.9604V92.4026H43.2313V80.19Z" fill="#EBEBEB"/>
<path d="M62.2156 80.19H58.9446V92.4026H62.2156V80.19Z" fill="#EBEBEB"/>
<path d="M51.7776 79.769L48.5845 80.4787L51.2341 92.4004L54.4271 91.6908L51.7776 79.769Z" fill="#EBEBEB"/>
<path d="M38.5427 77.6358H36.9072V92.4026H38.5427V77.6358Z" fill="#EBEBEB"/>
<path d="M58.0061 77.6358H56.3706V92.4026H58.0061V77.6358Z" fill="#EBEBEB"/>
<path d="M28.3853 111.846H85.9914V95.0598H28.3853V111.846Z" fill="#E0E0E0"/>
<path d="M82.7204 111.846H85.9914V97.7803H82.7204V111.846Z" fill="#EBEBEB"/>
<path d="M66.8963 111.846H70.1672V97.7803H66.8963V111.846Z" fill="#EBEBEB"/>
<path d="M46.545 111.293L49.7684 111.848L52.1577 97.9866L48.9343 97.431L46.545 111.293Z" fill="#EBEBEB"/>
<path d="M78.6614 111.846H81.9324V99.6336H78.6614V111.846Z" fill="#EBEBEB"/>
<path d="M71.1454 111.846H74.4163V99.6336H71.1454V111.846Z" fill="#EBEBEB"/>
<path d="M52.1572 111.846H55.4281V99.6336H52.1572V111.846Z" fill="#EBEBEB"/>
<path d="M59.9542 111.134L63.1472 111.843L65.7968 99.9216L62.6037 99.212L59.9542 111.134Z" fill="#EBEBEB"/>
<path d="M75.834 111.846H77.4695V97.0794H75.834V111.846Z" fill="#EBEBEB"/>
<path d="M56.3706 111.846H58.0061V97.0794H56.3706V111.846Z" fill="#EBEBEB"/>
<path d="M31.6562 97.7803H28.3853V111.846H31.6562V97.7803Z" fill="#EBEBEB"/>
<path d="M35.7113 99.6336H32.4403V111.846H35.7113V99.6336Z" fill="#EBEBEB"/>
<path d="M43.2313 99.6336H39.9604V111.846H43.2313V99.6336Z" fill="#EBEBEB"/>
<path d="M38.5427 97.0794H36.9072V111.846H38.5427V97.0794Z" fill="#EBEBEB"/>
<path d="M85.9914 114.503H28.3853V131.29H85.9914V114.503Z" fill="#E0E0E0"/>
<path d="M64.7183 117.22H61.4473V131.286H64.7183V117.22Z" fill="#EBEBEB"/>
<path d="M82.684 116.866L79.4606 117.421L81.8499 131.283L85.0734 130.727L82.684 116.866Z" fill="#EBEBEB"/>
<path d="M52.9492 119.077H49.6782V131.29H52.9492V119.077Z" fill="#EBEBEB"/>
<path d="M60.4732 119.077H57.2022V131.29H60.4732V119.077Z" fill="#EBEBEB"/>
<path d="M79.4574 119.077H76.1864V131.29H79.4574V119.077Z" fill="#EBEBEB"/>
<path d="M69.0224 118.654L65.8294 119.364L68.4789 131.286L71.672 130.576L69.0224 118.654Z" fill="#EBEBEB"/>
<path d="M55.7806 116.523H54.1451V131.29H55.7806V116.523Z" fill="#EBEBEB"/>
<path d="M75.244 116.523H73.6085V131.29H75.244V116.523Z" fill="#EBEBEB"/>
<path d="M45.037 116.869L41.8136 117.425L44.2029 131.286L47.4263 130.731L45.037 116.869Z" fill="#EBEBEB"/>
<path d="M41.8097 119.077H38.5387V131.29H41.8097V119.077Z" fill="#EBEBEB"/>
<path d="M31.3725 118.656L28.1794 119.366L30.8289 131.288L34.022 130.578L31.3725 118.656Z" fill="#EBEBEB"/>
<path d="M37.5962 116.523H35.9608V131.29H37.5962V116.523Z" fill="#EBEBEB"/>
<path d="M120.891 104.397H155.826C156.728 104.397 157.622 104.576 158.455 104.921C159.289 105.267 160.046 105.774 160.683 106.413C161.32 107.052 161.825 107.811 162.168 108.645C162.512 109.48 162.687 110.374 162.685 111.276V138.552H114.048V111.276C114.044 109.457 114.762 107.71 116.045 106.42C117.329 105.13 119.071 104.403 120.891 104.397Z" fill="#E6E6E6"/>
<path d="M103.704 124.617H109.953C110.491 124.615 111.023 124.719 111.52 124.924C112.017 125.128 112.469 125.428 112.849 125.808C113.23 126.187 113.531 126.638 113.737 127.134C113.943 127.631 114.049 128.163 114.048 128.7V151.272H99.6257V128.7C99.6252 128.164 99.7303 127.633 99.935 127.138C100.14 126.643 100.44 126.192 100.819 125.813C101.198 125.434 101.648 125.133 102.143 124.928C102.638 124.723 103.169 124.617 103.704 124.617Z" fill="#E0E0E0"/>
<path d="M103.704 124.617H103.835C104.371 124.617 104.902 124.723 105.397 124.928C105.892 125.133 106.342 125.434 106.721 125.813C107.1 126.192 107.4 126.643 107.605 127.138C107.809 127.633 107.914 128.164 107.914 128.7V151.272H99.6257V128.7C99.6252 128.164 99.7303 127.633 99.935 127.138C100.14 126.643 100.44 126.192 100.819 125.813C101.198 125.434 101.648 125.133 102.143 124.928C102.638 124.723 103.169 124.617 103.704 124.617Z" fill="#EBEBEB"/>
<path d="M157.596 140.889H109.656V151.252H157.596V140.889Z" fill="#E6E6E6"/>
<path d="M155.822 131.413H109.589C107.299 131.413 105.443 133.269 105.443 135.559V138.137C105.443 140.427 107.299 142.283 109.589 142.283H155.822C158.112 142.283 159.968 140.427 159.968 138.137V135.559C159.968 133.269 158.112 131.413 155.822 131.413Z" fill="#F5F5F5"/>
<path d="M155.743 131.413H150.013C147.723 131.413 145.867 133.269 145.867 135.559V138.137C145.867 140.427 147.723 142.283 150.013 142.283H155.743C158.033 142.283 159.889 140.427 159.889 138.137V135.559C159.889 133.269 158.033 131.413 155.743 131.413Z" fill="#E0E0E0"/>
<path d="M156.365 124.617H162.617C163.153 124.617 163.684 124.723 164.179 124.928C164.674 125.133 165.123 125.434 165.502 125.814C165.88 126.193 166.18 126.643 166.384 127.138C166.589 127.633 166.693 128.164 166.692 128.7V151.272H152.29V128.7C152.289 128.164 152.393 127.633 152.598 127.138C152.802 126.643 153.102 126.193 153.48 125.814C153.859 125.434 154.308 125.133 154.803 124.928C155.298 124.723 155.829 124.617 156.365 124.617Z" fill="#E0E0E0"/>
<path d="M156.365 124.617H156.499C157.035 124.617 157.566 124.723 158.06 124.928C158.555 125.133 159.005 125.434 159.383 125.814C159.762 126.193 160.062 126.643 160.266 127.138C160.47 127.633 160.575 128.164 160.574 128.7V151.272H152.29V128.7C152.289 128.164 152.393 127.633 152.598 127.138C152.802 126.643 153.102 126.193 153.48 125.814C153.859 125.434 154.308 125.133 154.803 124.928C155.298 124.723 155.829 124.617 156.365 124.617Z" fill="#F0F0F0"/>
<path d="M59.5012 63.2149C64.5852 62.3897 68.0376 57.5993 67.2123 52.5154C66.3871 47.4314 61.5967 43.979 56.5128 44.8043C51.4288 45.6295 47.9764 50.4199 48.8017 55.5038C49.6269 60.5878 54.4173 64.0402 59.5012 63.2149Z" fill="#E0E0E0"/>
<path d="M59.2779 61.839C63.602 61.1371 66.5383 57.0628 65.8364 52.7387C65.1345 48.4147 61.0602 45.4783 56.7361 46.1802C52.4121 46.8821 49.4757 50.9564 50.1776 55.2805C50.8795 59.6046 54.9538 62.5409 59.2779 61.839Z" fill="#F0F0F0"/>
<path d="M57.6299 59.4554V53.9114L53.959 55.9904" fill="#F0F0F0"/>
<path d="M57.6299 59.8514C57.5249 59.8514 57.4241 59.8097 57.3499 59.7355C57.2756 59.6612 57.2339 59.5605 57.2339 59.4554V54.5886L54.153 56.335C54.0616 56.3863 53.9536 56.3992 53.8526 56.371C53.7517 56.3428 53.666 56.2757 53.6144 56.1845C53.5628 56.0936 53.5492 55.9859 53.5767 55.885C53.6041 55.7841 53.6704 55.6982 53.761 55.6459L57.4358 53.5669C57.496 53.5331 57.5641 53.5156 57.6331 53.5161C57.7022 53.5167 57.7699 53.5353 57.8296 53.5702C57.8892 53.605 57.9387 53.6548 57.9731 53.7147C58.0076 53.7745 58.0258 53.8424 58.0259 53.9114V59.4554C58.0259 59.5605 57.9842 59.6612 57.9099 59.7355C57.8356 59.8097 57.7349 59.8514 57.6299 59.8514Z" fill="#E0E0E0"/>
<path d="M169.73 42.2453H110.033V95.2182H169.73V42.2453Z" fill="#E6E6E6"/>
<path d="M168.157 43.6986H111.525V93.7966H168.157V43.6986Z" fill="#F0F0F0"/>
<path d="M124.815 43.6986L111.525 93.6857V70.1989L118.543 43.6986H124.815Z" fill="white"/>
<path d="M129.524 43.6986L116.115 93.7966H113.977L127.385 43.6986H129.524Z" fill="white"/>
<path d="M168.157 75.3113V83.3144L165.445 93.7966H163.306L168.157 75.3113Z" fill="white"/>
<path d="M131.278 42.7997H130.324V94.9172H131.278V42.7997Z" fill="#E6E6E6"/>
<path d="M149.767 42.7997H148.813V94.9172H149.767V42.7997Z" fill="#E6E6E6"/>
<path d="M99 169.314C141.405 169.314 175.78 167.307 175.78 164.831C175.78 162.355 141.405 160.348 99 160.348C56.5953 160.348 22.2196 162.355 22.2196 164.831C22.2196 167.307 56.5953 169.314 99 169.314Z" fill="#F5F5F5"/>
<path d="M159.152 154.927C159.152 154.927 161.033 150.825 158.883 146.777C156.733 142.73 156.111 141.78 157.481 140.948C158.851 140.117 159.481 144.188 159.481 144.188C160.159 142.349 160.228 140.342 159.679 138.461C158.729 135.535 158.131 130.767 159.43 130.256C160.728 129.745 159.679 136.196 160.812 138.406C161.386 136.859 161.757 135.245 161.916 133.602C162.071 131.25 161.829 127.496 162.855 126.534C163.881 125.572 164.542 126.237 163.532 131.424C162.925 134.526 162.59 137.674 162.53 140.833C162.53 140.833 164.76 134.026 166.261 133.828C167.761 133.63 167.757 135.832 166.474 137.745C165.191 139.657 162.716 143.083 162.312 144.845C162.312 144.845 164.764 139.721 166.965 141.281C169.167 142.841 165.049 145.942 163.211 147.063C161.374 148.183 160.099 155.184 160.099 155.184L159.152 154.927Z" fill="#35D0B4"/>
<path opacity="0.2" d="M159.152 154.927C159.152 154.927 161.033 150.825 158.883 146.777C156.733 142.73 156.111 141.78 157.481 140.948C158.851 140.117 159.481 144.188 159.481 144.188C160.159 142.349 160.228 140.342 159.679 138.461C158.729 135.535 158.131 130.767 159.43 130.256C160.728 129.745 159.679 136.196 160.812 138.406C161.386 136.859 161.757 135.245 161.916 133.602C162.071 131.25 161.829 127.496 162.855 126.534C163.881 125.572 164.542 126.237 163.532 131.424C162.925 134.526 162.59 137.674 162.53 140.833C162.53 140.833 164.76 134.026 166.261 133.828C167.761 133.63 167.757 135.832 166.474 137.745C165.191 139.657 162.716 143.083 162.312 144.845C162.312 144.845 164.764 139.721 166.965 141.281C169.167 142.841 165.049 145.942 163.211 147.063C161.374 148.183 160.099 155.184 160.099 155.184L159.152 154.927Z" fill="black"/>
<path d="M160.637 156.61C160.637 156.61 158.804 152.48 161.002 148.464C163.2 144.449 163.833 143.506 162.475 142.659C161.117 141.812 160.435 145.867 160.435 145.867C159.779 144.021 159.733 142.014 160.305 140.14C161.291 137.226 161.948 132.466 160.653 131.935C159.358 131.405 160.332 137.875 159.176 140.065C158.62 138.511 158.267 136.891 158.127 135.246C158 132.894 158.289 129.144 157.271 128.165C156.254 127.187 155.588 127.845 156.539 133.048C157.108 136.155 157.405 139.306 157.426 142.465C157.426 142.465 155.276 135.626 153.783 135.408C152.29 135.19 152.262 137.388 153.521 139.321C154.781 141.253 157.212 144.714 157.608 146.48C157.608 146.48 155.232 141.332 152.999 142.861C150.765 144.39 154.86 147.55 156.681 148.698C158.503 149.846 159.699 156.867 159.699 156.867L160.637 156.61Z" fill="#35D0B4"/>
<path d="M152.187 153.664H167.318L166.094 164.494H153.41L152.187 153.664Z" fill="#263238"/>
<path d="M96.0696 162.756V164.178C96.0696 164.22 96.0613 164.261 96.0452 164.3C96.0291 164.339 96.0054 164.375 95.9757 164.404C95.9459 164.434 95.9105 164.458 95.8716 164.474C95.8327 164.49 95.791 164.498 95.7488 164.498H55.5865C55.244 164.498 54.9066 164.414 54.6041 164.254C54.3015 164.093 54.043 163.861 53.8511 163.577C53.6592 163.293 53.5398 162.967 53.5034 162.626C53.4669 162.286 53.5146 161.941 53.6422 161.623L66.3696 130.102L86.9378 130.24L86.2369 134.331L81.6988 160.804C81.6648 161.004 81.675 161.21 81.7286 161.406C81.7822 161.603 81.8778 161.785 82.009 161.941C82.1401 162.096 82.3036 162.222 82.488 162.308C82.6724 162.394 82.8733 162.439 83.0768 162.439H95.7488C95.7908 162.439 95.8324 162.446 95.8713 162.462C95.9102 162.478 95.9456 162.501 95.9754 162.531C96.0053 162.56 96.0289 162.595 96.0451 162.634C96.0613 162.673 96.0696 162.714 96.0696 162.756Z" fill="#263238"/>
<path opacity="0.5" d="M96.0696 162.756V164.178C96.0696 164.22 96.0613 164.261 96.0452 164.3C96.0291 164.339 96.0054 164.375 95.9757 164.404C95.9459 164.434 95.9105 164.458 95.8716 164.474C95.8327 164.49 95.791 164.498 95.7488 164.498H55.5865C55.244 164.498 54.9066 164.414 54.6041 164.254C54.3015 164.093 54.043 163.861 53.8511 163.577C53.6592 163.293 53.5398 162.967 53.5034 162.626C53.4669 162.286 53.5146 161.941 53.6422 161.623L61.5344 142.081L66.3696 130.102L86.9378 130.24L86.2369 134.331L84.2569 145.843L81.6948 160.804C81.6609 161.004 81.6711 161.21 81.7246 161.406C81.7782 161.603 81.8739 161.785 82.005 161.941C82.1362 162.096 82.2996 162.222 82.484 162.308C82.6684 162.394 82.8694 162.439 83.0729 162.439H95.7449C95.7871 162.438 95.8292 162.446 95.8685 162.461C95.9079 162.476 95.9438 162.5 95.974 162.529C96.0043 162.559 96.0283 162.594 96.0447 162.633C96.0612 162.672 96.0696 162.714 96.0696 162.756Z" fill="white"/>
<path opacity="0.2" d="M83.0768 162.435H56.9408C56.7903 162.435 56.6421 162.397 56.5094 162.326C56.3767 162.255 56.2635 162.152 56.1798 162.027C56.0961 161.902 56.0444 161.758 56.0293 161.608C56.0143 161.459 56.0363 161.307 56.0934 161.168L67.2527 134.327H86.233L81.6948 160.8C81.6608 161.001 81.6711 161.207 81.7249 161.403C81.7787 161.6 81.8747 161.783 82.0063 161.938C82.1379 162.094 82.3018 162.219 82.4867 162.305C82.6716 162.391 82.873 162.435 83.0768 162.435Z" fill="black"/>
<path opacity="0.1" d="M86.9378 130.236L86.2369 134.327L84.2609 145.839L61.5344 142.081L66.3696 130.098L86.9378 130.236Z" fill="black"/>
<path d="M126.93 71.478H31.7117C31.3919 71.478 31.0752 71.541 30.7797 71.6634C30.4842 71.7858 30.2157 71.9652 29.9896 72.1913C29.7634 72.4175 29.5841 72.686 29.4617 72.9814C29.3393 73.2769 29.2763 73.5936 29.2763 73.9134V138.378C29.2763 139.024 29.5329 139.644 29.9896 140.1C30.4463 140.557 31.0658 140.814 31.7117 140.814H126.93C127.576 140.814 128.196 140.557 128.653 140.101C129.111 139.644 129.368 139.025 129.369 138.378V73.9134C129.368 73.2672 129.111 72.6477 128.653 72.1911C128.196 71.7345 127.576 71.478 126.93 71.478Z" fill="#263238"/>
<path opacity="0.6" d="M126.93 71.478H31.7117C31.3919 71.478 31.0752 71.541 30.7797 71.6634C30.4842 71.7858 30.2157 71.9652 29.9896 72.1913C29.7634 72.4175 29.5841 72.686 29.4617 72.9814C29.3393 73.2769 29.2763 73.5936 29.2763 73.9134V138.378C29.2763 139.024 29.5329 139.644 29.9896 140.1C30.4463 140.557 31.0658 140.814 31.7117 140.814H126.93C127.576 140.814 128.196 140.557 128.653 140.101C129.111 139.644 129.368 139.025 129.369 138.378V73.9134C129.368 73.2672 129.111 72.6477 128.653 72.1911C128.196 71.7345 127.576 71.478 126.93 71.478Z" fill="white"/>
<path opacity="0.2" d="M33.7313 140.81H31.7117C31.0665 140.81 30.4476 140.554 29.991 140.098C29.5344 139.642 29.2773 139.023 29.2763 138.378V73.9174C29.2758 73.5972 29.3384 73.2801 29.4605 72.9842C29.5827 72.6882 29.762 72.4193 29.9882 72.1927C30.2144 71.9661 30.483 71.7864 30.7788 71.6638C31.0745 71.5411 31.3915 71.478 31.7117 71.478H33.7313C33.4101 71.4764 33.0918 71.5384 32.7947 71.6603C32.4976 71.7823 32.2276 71.9618 32.0001 72.1885C31.7726 72.4152 31.5923 72.6847 31.4694 72.9814C31.3465 73.2781 31.2835 73.5962 31.284 73.9174V138.378C31.284 138.699 31.3474 139.016 31.4706 139.312C31.5938 139.608 31.7743 139.877 32.0017 140.103C32.2292 140.329 32.4991 140.508 32.7959 140.629C33.0928 140.75 33.4106 140.812 33.7313 140.81Z" fill="black"/>
<path d="M127.175 73.5728H33.4937V135.733H127.175V73.5728Z" fill="#35D0B4"/>
<path opacity="0.4" d="M79.0416 97.2338C83.5338 97.2338 87.1754 93.5922 87.1754 89.1C87.1754 84.6078 83.5338 80.9662 79.0416 80.9662C74.5494 80.9662 70.9078 84.6078 70.9078 89.1C70.9078 93.5922 74.5494 97.2338 79.0416 97.2338Z" fill="white"/>
<path d="M77.1012 87.8645V87.12C77.1012 86.765 77.2422 86.4246 77.4932 86.1736C77.7442 85.9225 78.0847 85.7815 78.4397 85.7815H79.6277C79.8048 85.7794 79.9805 85.8125 80.1448 85.8788C80.309 85.9452 80.4584 86.0434 80.5844 86.1679C80.7104 86.2924 80.8104 86.4407 80.8786 86.6041C80.9469 86.7675 80.982 86.9429 80.982 87.12V87.8803H81.8492V87.12C81.8482 86.5353 81.6155 85.9749 81.202 85.5615C80.7886 85.148 80.2282 84.9153 79.6435 84.9143H78.4555C77.8708 84.9153 77.3104 85.148 76.897 85.5615C76.4836 85.9749 76.2508 86.5353 76.2498 87.12V87.8803L77.1012 87.8645Z" fill="white"/>
<path d="M75.141 88.8664V92.862C75.141 92.9203 75.1525 92.9779 75.1748 93.0317C75.197 93.0856 75.2297 93.1344 75.2709 93.1756C75.3121 93.2168 75.361 93.2495 75.4148 93.2718C75.4686 93.2941 75.5263 93.3055 75.5845 93.3055H82.4987C82.5569 93.3055 82.6146 93.2941 82.6684 93.2718C82.7222 93.2495 82.7711 93.2168 82.8123 93.1756C82.8535 93.1344 82.8861 93.0856 82.9084 93.0317C82.9307 92.9779 82.9422 92.9203 82.9422 92.862V88.8664C82.9422 88.7487 82.8955 88.6359 82.8123 88.5528C82.7291 88.4696 82.6163 88.4229 82.4987 88.4229H75.5845C75.5263 88.4229 75.4686 88.4343 75.4148 88.4566C75.361 88.4789 75.3121 88.5116 75.2709 88.5528C75.2297 88.5939 75.197 88.6428 75.1748 88.6966C75.1525 88.7505 75.141 88.8081 75.141 88.8664ZM79.2911 91.1275V91.9195H78.804V91.1275C78.7328 91.0879 78.6728 91.0307 78.6299 90.9614C78.5869 90.8921 78.5623 90.813 78.5585 90.7315C78.5585 90.6003 78.6106 90.4743 78.7035 90.3815C78.7963 90.2887 78.9222 90.2365 79.0535 90.2365C79.1848 90.2365 79.3107 90.2887 79.4035 90.3815C79.4963 90.4743 79.5485 90.6003 79.5485 90.7315C79.5434 90.8141 79.5171 90.894 79.472 90.9634C79.4268 91.0328 79.3645 91.0894 79.2911 91.1275Z" fill="white"/>
<path d="M59.198 103.97H51.5156C51.0585 103.97 50.688 104.34 50.688 104.797V112.48C50.688 112.937 51.0585 113.307 51.5156 113.307H59.198C59.6551 113.307 60.0257 112.937 60.0257 112.48V104.797C60.0257 104.34 59.6551 103.97 59.198 103.97Z" fill="white"/>
<path d="M71.0424 103.958H63.36C62.9029 103.958 62.5324 104.328 62.5324 104.786V112.468C62.5324 112.925 62.9029 113.296 63.36 113.296H71.0424C71.4995 113.296 71.87 112.925 71.87 112.468V104.786C71.87 104.328 71.4995 103.958 71.0424 103.958Z" fill="white"/>
<path d="M82.8828 103.946H75.2004C74.7433 103.946 74.3728 104.317 74.3728 104.774V112.456C74.3728 112.913 74.7433 113.284 75.2004 113.284H82.8828C83.3399 113.284 83.7104 112.913 83.7104 112.456V104.774C83.7104 104.317 83.3399 103.946 82.8828 103.946Z" fill="white"/>
<path d="M94.7232 103.93H87.0408C86.5837 103.93 86.2132 104.301 86.2132 104.758V112.44C86.2132 112.897 86.5837 113.268 87.0408 113.268H94.7232C95.1803 113.268 95.5508 112.897 95.5508 112.44V104.758C95.5508 104.301 95.1803 103.93 94.7232 103.93Z" fill="white"/>
<path d="M106.564 103.918H98.8812C98.4241 103.918 98.0536 104.289 98.0536 104.746V112.428C98.0536 112.885 98.4241 113.256 98.8812 113.256H106.564C107.021 113.256 107.391 112.885 107.391 112.428V104.746C107.391 104.289 107.021 103.918 106.564 103.918Z" fill="white"/>
<path d="M100.667 108.769C100.667 107.126 101.546 106.191 102.726 106.191C103.906 106.191 104.782 107.126 104.782 108.769C104.782 110.413 103.902 111.347 102.726 111.347C101.55 111.347 100.667 110.413 100.667 108.769ZM104.061 108.769C104.061 107.478 103.51 106.833 102.726 106.833C101.942 106.833 101.388 107.478 101.388 108.769C101.388 110.06 101.934 110.706 102.726 110.706C103.518 110.706 104.061 110.056 104.061 108.769Z" fill="#263238"/>
<path d="M57.2339 108.706C57.2339 110.425 56.2597 111.347 54.8579 111.347C54.4203 111.363 53.9867 111.26 53.6026 111.05L53.856 110.484C54.1501 110.654 54.4868 110.737 54.8262 110.722C55.8479 110.722 56.4973 110.08 56.4973 108.817V108.639C56.3283 108.86 56.1071 109.036 55.8535 109.15C55.5998 109.265 55.3217 109.315 55.044 109.296C54.0421 109.296 53.3214 108.698 53.3214 107.771C53.3214 106.845 54.1134 106.187 55.0994 106.187C56.4696 106.191 57.2339 107.098 57.2339 108.706ZM56.3468 107.748C56.3468 107.229 55.9508 106.773 55.1588 106.773C55.0202 106.757 54.8796 106.769 54.7462 106.811C54.6129 106.852 54.4898 106.922 54.3851 107.014C54.2804 107.106 54.1964 107.22 54.1387 107.347C54.0809 107.474 54.0507 107.612 54.05 107.752C54.05 108.346 54.4896 108.726 55.1984 108.726C55.9073 108.726 56.3468 108.302 56.3468 107.748Z" fill="#263238"/>
<path d="M65.142 108.769C65.142 107.126 66.0211 106.191 67.2012 106.191C68.3813 106.191 69.2564 107.126 69.2564 108.769C69.2564 110.413 68.3773 111.347 67.2012 111.347C66.0251 111.347 65.142 110.413 65.142 108.769ZM68.5357 108.769C68.5357 107.478 67.9892 106.833 67.2012 106.833C66.4132 106.833 65.8627 107.478 65.8627 108.769C65.8627 110.06 66.4092 110.706 67.2012 110.706C67.9932 110.706 68.5357 110.06 68.5357 108.769Z" fill="#263238"/>
<path d="M80.8632 110.662V111.276H77.2398V110.801L79.2911 108.821C79.8257 108.302 79.9247 107.985 79.9247 107.668C79.9247 107.15 79.5604 106.833 78.8515 106.833C78.6095 106.819 78.3676 106.862 78.1445 106.956C77.9213 107.051 77.7229 107.196 77.5645 107.379L77.0735 106.956C77.3051 106.699 77.5909 106.498 77.9101 106.366C78.2292 106.233 78.5738 106.174 78.9188 106.191C79.9682 106.191 80.6454 106.73 80.6454 107.593C80.6454 108.084 80.5028 108.524 79.8178 109.177L78.2773 110.658L80.8632 110.662Z" fill="#263238"/>
<path d="M91.476 106.247V111.276H90.7632V106.876H89.6227V106.247H91.476Z" fill="#263238"/>
<g opacity="0.6">
<path d="M70.1831 101.689V101.867H68.809V99.9227H70.1395V100.101H69.0149V100.794H70.0168V100.98H69.0149V101.701L70.1831 101.689Z" fill="white"/>
<path d="M71.9651 101.02V101.867H71.7671V101.039C71.7789 100.978 71.7759 100.914 71.7584 100.854C71.741 100.794 71.7095 100.739 71.6666 100.694C71.6237 100.648 71.5706 100.613 71.5117 100.592C71.4527 100.571 71.3896 100.564 71.3275 100.572C71.2578 100.567 71.1878 100.577 71.1225 100.602C71.0572 100.627 70.9981 100.666 70.9494 100.716C70.9007 100.767 70.8636 100.827 70.8407 100.893C70.8178 100.959 70.8096 101.029 70.8167 101.099V101.867H70.6226V100.406H70.8088V100.675C70.8683 100.584 70.951 100.51 71.0484 100.461C71.1458 100.413 71.2545 100.391 71.3632 100.398C71.4457 100.391 71.5288 100.402 71.6064 100.431C71.6839 100.46 71.7541 100.506 71.8117 100.566C71.8693 100.625 71.913 100.697 71.9395 100.775C71.9661 100.854 71.9748 100.937 71.9651 101.02Z" fill="white"/>
<path d="M73.26 101.772C73.1729 101.843 73.0631 101.879 72.9511 101.875C72.8941 101.88 72.8367 101.872 72.783 101.852C72.7292 101.833 72.6803 101.802 72.6397 101.762C72.599 101.721 72.5676 101.673 72.5475 101.619C72.5275 101.566 72.5192 101.508 72.5234 101.451V100.584H72.2621V100.418H72.5234V100.101H72.7214V100.418H73.165V100.584H72.7214V101.455C72.7214 101.629 72.8086 101.72 72.9709 101.72C73.0496 101.723 73.1267 101.698 73.1887 101.649L73.26 101.772Z" fill="white"/>
<path d="M74.844 101.198H73.6243C73.6335 101.341 73.6991 101.475 73.8067 101.57C73.9143 101.665 74.0552 101.713 74.1985 101.705C74.2824 101.707 74.3659 101.692 74.4432 101.659C74.5205 101.626 74.5897 101.577 74.646 101.515L74.7569 101.641C74.6489 101.743 74.5145 101.812 74.3692 101.841C74.2239 101.87 74.0734 101.857 73.9348 101.805C73.7962 101.752 73.6751 101.662 73.5852 101.544C73.4953 101.427 73.4403 101.286 73.4263 101.138C73.4209 101.042 73.4353 100.946 73.4689 100.855C73.5024 100.765 73.5542 100.682 73.6211 100.613C73.688 100.543 73.7686 100.488 73.8577 100.451C73.9468 100.414 74.0427 100.396 74.1391 100.398C74.2353 100.396 74.3307 100.414 74.4195 100.451C74.5082 100.488 74.5883 100.543 74.6546 100.613C74.7209 100.683 74.772 100.765 74.8046 100.856C74.8372 100.946 74.8506 101.042 74.844 101.138C74.844 101.138 74.844 101.174 74.844 101.198ZM73.6243 101.051H74.6579C74.6466 100.922 74.5872 100.802 74.4915 100.714C74.3959 100.626 74.2708 100.578 74.1411 100.578C74.0114 100.578 73.8863 100.626 73.7907 100.714C73.695 100.802 73.6356 100.922 73.6243 101.051Z" fill="white"/>
<path d="M75.9805 100.398V100.584H75.933C75.8634 100.58 75.7938 100.592 75.7293 100.619C75.6648 100.645 75.607 100.686 75.5601 100.737C75.5131 100.789 75.4781 100.85 75.4577 100.917C75.4373 100.983 75.4319 101.054 75.442 101.123V101.867H75.24V100.406H75.4301V100.691C75.481 100.592 75.561 100.511 75.6594 100.458C75.7578 100.406 75.8698 100.385 75.9805 100.398Z" fill="white"/>
<path d="M78.309 100.406L77.5804 102.041C77.4576 102.326 77.3032 102.417 77.0933 102.417C77.0285 102.42 76.9639 102.409 76.9034 102.386C76.8428 102.363 76.7875 102.328 76.7408 102.283L76.8319 102.136C76.8657 102.173 76.9069 102.201 76.9526 102.22C76.9984 102.24 77.0477 102.249 77.0972 102.247C77.2279 102.247 77.315 102.188 77.3982 102.006L77.4616 101.863L76.824 100.406H77.0299L77.5764 101.645L78.1268 100.406H78.309Z" fill="white"/>
<path d="M78.408 101.138C78.4072 100.991 78.4502 100.847 78.5315 100.724C78.6129 100.601 78.7289 100.505 78.8648 100.448C79.0008 100.391 79.1506 100.376 79.2953 100.404C79.44 100.432 79.573 100.503 79.6775 100.607C79.782 100.711 79.8533 100.843 79.8824 100.988C79.9114 101.132 79.8969 101.282 79.8407 101.418C79.7844 101.555 79.689 101.671 79.5665 101.753C79.444 101.835 79.2999 101.879 79.1525 101.879C79.054 101.883 78.9558 101.866 78.864 101.831C78.7722 101.795 78.6887 101.74 78.6189 101.671C78.549 101.601 78.4942 101.518 78.4579 101.427C78.4217 101.335 78.4047 101.237 78.408 101.138ZM79.691 101.138C79.6864 101.032 79.6505 100.929 79.588 100.843C79.5254 100.757 79.4389 100.691 79.3393 100.654C79.2396 100.617 79.1311 100.61 79.0274 100.633C78.9237 100.657 78.8293 100.711 78.7559 100.788C78.6826 100.865 78.6335 100.962 78.6149 101.067C78.5963 101.172 78.6089 101.28 78.6511 101.378C78.6934 101.475 78.7635 101.558 78.8526 101.617C78.9418 101.675 79.0461 101.705 79.1525 101.705C79.2249 101.704 79.2965 101.689 79.3629 101.66C79.4292 101.631 79.4889 101.588 79.5383 101.535C79.5876 101.482 79.6256 101.42 79.6498 101.351C79.674 101.283 79.684 101.211 79.6792 101.138H79.691Z" fill="white"/>
<path d="M81.5958 100.406V101.867H81.4097V101.598C81.3555 101.688 81.2779 101.761 81.1851 101.811C81.0924 101.86 80.988 101.884 80.883 101.879C80.7993 101.887 80.7148 101.877 80.6358 101.848C80.5567 101.819 80.4851 101.773 80.4262 101.713C80.3673 101.653 80.3226 101.581 80.2955 101.501C80.2683 101.421 80.2593 101.337 80.2692 101.253V100.406H80.4632V101.233C80.4515 101.295 80.4544 101.358 80.4719 101.418C80.4894 101.479 80.5208 101.534 80.5637 101.579C80.6066 101.625 80.6597 101.66 80.7187 101.681C80.7776 101.702 80.8407 101.709 80.9028 101.701C80.9716 101.705 81.0404 101.694 81.1045 101.668C81.1685 101.642 81.2261 101.603 81.2733 101.553C81.3205 101.503 81.3561 101.443 81.3776 101.377C81.3991 101.312 81.406 101.242 81.3978 101.174V100.406H81.5958Z" fill="white"/>
<path d="M82.8828 100.398V100.584H82.8353C82.7657 100.58 82.6961 100.592 82.6316 100.619C82.5671 100.645 82.5093 100.686 82.4623 100.737C82.4154 100.789 82.3804 100.85 82.36 100.917C82.3396 100.983 82.3342 101.054 82.3442 101.123V101.867H82.1462V100.406H82.3363V100.691C82.387 100.592 82.4664 100.512 82.564 100.459C82.6616 100.407 82.7727 100.386 82.8828 100.398Z" fill="white"/>
<path d="M83.853 100.897C83.8459 100.693 83.8997 100.492 84.0076 100.32C84.1155 100.147 84.2724 100.011 84.4584 99.9279C84.6443 99.8451 84.8508 99.8197 85.0513 99.855C85.2517 99.8903 85.4371 99.9847 85.5836 100.126C85.73 100.267 85.8309 100.449 85.8733 100.648C85.9157 100.847 85.8977 101.055 85.8215 101.243C85.7454 101.432 85.6145 101.594 85.4458 101.708C85.2771 101.822 85.0782 101.883 84.8747 101.883C84.7421 101.888 84.6098 101.867 84.4858 101.819C84.3617 101.772 84.2486 101.7 84.1531 101.608C84.0576 101.516 83.9818 101.406 83.9302 101.283C83.8786 101.161 83.8524 101.03 83.853 100.897ZM85.6865 100.897C85.6912 100.734 85.6467 100.573 85.5589 100.435C85.4711 100.297 85.344 100.189 85.194 100.124C85.044 100.06 84.8781 100.041 84.7177 100.072C84.5572 100.103 84.4097 100.181 84.2942 100.297C84.1787 100.412 84.1006 100.56 84.0698 100.72C84.0391 100.88 84.0573 101.046 84.122 101.196C84.1866 101.346 84.2948 101.473 84.4326 101.561C84.5703 101.649 84.7312 101.694 84.8945 101.689C85.1045 101.689 85.306 101.605 85.4545 101.457C85.603 101.308 85.6865 101.107 85.6865 100.897Z" fill="white"/>
<path d="M86.7002 100.101H86.0191V99.9227H87.6031V100.101H86.918V101.867H86.7121L86.7002 100.101Z" fill="white"/>
<path d="M89.4366 100.584C89.4366 100.98 89.1356 101.245 88.6446 101.245H88.1258V101.859H87.912V99.9148H88.6367C89.1356 99.9227 89.4366 100.188 89.4366 100.584ZM89.2307 100.584C89.2307 100.271 89.0248 100.093 88.6367 100.093H88.1219V101.063H88.6367C89.0248 101.071 89.2307 100.897 89.2307 100.584Z" fill="white"/>
</g>
<g opacity="0.6">
<path d="M71.3394 118.36L71.4186 118.206C71.5963 118.36 71.8248 118.444 72.0601 118.44C72.4205 118.44 72.5789 118.289 72.5789 118.095C72.5789 117.564 71.3909 117.889 71.3909 117.172C71.3909 116.887 71.6126 116.642 72.1037 116.642C72.3166 116.639 72.5257 116.698 72.7056 116.812L72.6383 116.974C72.4785 116.873 72.2932 116.818 72.1037 116.816C71.7512 116.816 71.5928 116.974 71.5928 117.168C71.5928 117.699 72.7808 117.378 72.7808 118.083C72.7808 118.372 72.5551 118.614 72.0601 118.614C71.7965 118.624 71.5389 118.533 71.3394 118.36Z" fill="white"/>
<path d="M74.448 117.929H73.2283C73.2375 118.072 73.3031 118.206 73.4107 118.301C73.5183 118.396 73.6592 118.444 73.8025 118.436C73.8864 118.438 73.9699 118.423 74.0472 118.39C74.1245 118.357 74.1937 118.308 74.25 118.246L74.3609 118.372C74.2911 118.452 74.2044 118.515 74.1071 118.557C74.0098 118.599 73.9044 118.618 73.7986 118.614C73.6981 118.62 73.5975 118.605 73.5031 118.57C73.4087 118.535 73.3226 118.481 73.2504 118.411C73.1781 118.341 73.1212 118.257 73.0833 118.163C73.0454 118.07 73.0274 117.97 73.0303 117.869C73.0254 117.773 73.0403 117.677 73.0741 117.587C73.1078 117.497 73.1597 117.414 73.2265 117.345C73.2932 117.275 73.3736 117.221 73.4624 117.183C73.5513 117.146 73.6468 117.128 73.7431 117.129C73.8396 117.126 73.9355 117.144 74.0247 117.181C74.1139 117.218 74.1945 117.273 74.2612 117.342C74.3279 117.412 74.3794 117.495 74.4122 117.586C74.4451 117.677 74.4586 117.773 74.452 117.869C74.452 117.869 74.448 117.909 74.448 117.929ZM73.2283 117.782H74.2619C74.2506 117.653 74.1912 117.533 74.0955 117.445C73.9999 117.357 73.8748 117.309 73.7451 117.309C73.6154 117.309 73.4903 117.357 73.3947 117.445C73.299 117.533 73.2396 117.653 73.2283 117.782Z" fill="white"/>
<path d="M76.2023 117.751V118.598H76.0082V117.77C76.0193 117.709 76.0158 117.646 75.998 117.587C75.9802 117.527 75.9487 117.473 75.9058 117.427C75.863 117.382 75.8102 117.348 75.7516 117.327C75.6931 117.306 75.6304 117.299 75.5687 117.307C75.4989 117.302 75.429 117.312 75.3636 117.337C75.2983 117.362 75.2392 117.401 75.1906 117.451C75.1419 117.502 75.1048 117.562 75.0819 117.628C75.0589 117.694 75.0507 117.764 75.0578 117.834V118.598H74.844V117.141H75.0341V117.41C75.0931 117.318 75.1756 117.244 75.2731 117.194C75.3705 117.145 75.4794 117.122 75.5885 117.129C75.672 117.12 75.7564 117.13 75.8355 117.158C75.9146 117.186 75.9863 117.232 76.0452 117.292C76.1042 117.352 76.149 117.424 76.1762 117.503C76.2034 117.583 76.2123 117.667 76.2023 117.751Z" fill="white"/>
<path d="M78.0754 116.539V118.598H77.8853V118.309C77.8273 118.405 77.7446 118.485 77.6457 118.538C77.5468 118.592 77.4354 118.618 77.323 118.614C77.1354 118.6 76.96 118.516 76.8319 118.378C76.7039 118.241 76.6327 118.059 76.6327 117.871C76.6327 117.683 76.7039 117.502 76.8319 117.365C76.96 117.227 77.1354 117.143 77.323 117.129C77.4325 117.125 77.5411 117.15 77.6383 117.2C77.7355 117.251 77.8178 117.326 77.8774 117.418V116.539H78.0754ZM77.8813 117.869C77.8767 117.763 77.8409 117.661 77.7786 117.575C77.7162 117.489 77.6299 117.423 77.5305 117.385C77.431 117.348 77.3228 117.341 77.2191 117.364C77.1155 117.388 77.0211 117.441 76.9476 117.518C76.8741 117.595 76.8247 117.691 76.8056 117.796C76.7865 117.9 76.7986 118.008 76.8402 118.106C76.8819 118.204 76.9514 118.287 77.04 118.346C77.1286 118.404 77.2325 118.436 77.3388 118.436C77.4124 118.437 77.4855 118.423 77.5534 118.395C77.6214 118.366 77.6828 118.324 77.7337 118.271C77.7846 118.218 77.824 118.155 77.8494 118.086C77.8748 118.017 77.8857 117.943 77.8813 117.869Z" fill="white"/>
<path d="M80.4514 117.695V118.598H80.2613V118.372C80.2063 118.453 80.1308 118.519 80.0424 118.561C79.9541 118.603 79.8561 118.622 79.7584 118.614C79.4297 118.614 79.2277 118.44 79.2277 118.186C79.2277 117.933 79.3703 117.79 79.79 117.79H80.2534V117.703C80.259 117.65 80.2526 117.596 80.2346 117.545C80.2167 117.495 80.1877 117.449 80.1498 117.411C80.1118 117.373 80.0659 117.344 80.0153 117.326C79.9647 117.308 79.9107 117.301 79.8574 117.307C79.6793 117.304 79.5062 117.366 79.3703 117.481L79.2832 117.335C79.4503 117.201 79.6593 117.131 79.8732 117.137C79.9496 117.128 80.0271 117.136 80.1 117.16C80.1729 117.185 80.2394 117.225 80.2948 117.279C80.3501 117.332 80.3929 117.397 80.42 117.469C80.447 117.541 80.4578 117.618 80.4514 117.695ZM80.2534 118.158V117.921H79.794C79.5128 117.921 79.4218 118.032 79.4218 118.182C79.4218 118.333 79.5564 118.455 79.79 118.455C79.8889 118.462 79.9872 118.437 80.0706 118.383C80.154 118.33 80.218 118.251 80.2534 118.158Z" fill="white"/>
<path d="M82.3403 117.141V118.404C82.3558 118.503 82.3477 118.605 82.3166 118.7C82.2855 118.796 82.2323 118.883 82.1613 118.954C82.0902 119.025 82.0034 119.078 81.9079 119.109C81.8124 119.14 81.7109 119.148 81.6116 119.133C81.3654 119.142 81.1239 119.064 80.9305 118.911L81.0295 118.76C81.1918 118.892 81.395 118.962 81.6037 118.958C81.976 118.958 82.1423 118.792 82.1423 118.432V118.246C82.0797 118.337 81.9948 118.411 81.8957 118.46C81.7966 118.509 81.6865 118.532 81.576 118.527C81.4787 118.534 81.381 118.521 81.2889 118.489C81.1969 118.457 81.1124 118.406 81.0409 118.339C80.9694 118.273 80.9124 118.193 80.8734 118.103C80.8344 118.014 80.8142 117.917 80.8142 117.82C80.8142 117.722 80.8344 117.626 80.8734 117.536C80.9124 117.447 80.9694 117.367 81.0409 117.3C81.1124 117.234 81.1969 117.183 81.2889 117.151C81.381 117.119 81.4787 117.106 81.576 117.113C81.6885 117.108 81.8005 117.131 81.9011 117.182C82.0017 117.233 82.0875 117.309 82.1502 117.402V117.125L82.3403 117.141ZM82.1502 117.834C82.1542 117.723 82.125 117.614 82.0666 117.521C82.0081 117.427 81.9229 117.353 81.822 117.308C81.7212 117.263 81.6091 117.249 81.5003 117.268C81.3915 117.287 81.2909 117.338 81.2113 117.415C81.1318 117.492 81.077 117.59 81.054 117.698C81.0309 117.806 81.0407 117.919 81.082 118.021C81.1233 118.124 81.1943 118.212 81.2858 118.273C81.3774 118.335 81.4853 118.368 81.5958 118.368C81.6681 118.373 81.7405 118.362 81.8084 118.337C81.8764 118.312 81.9384 118.273 81.9905 118.223C82.0426 118.173 82.0837 118.112 82.1112 118.045C82.1387 117.978 82.152 117.906 82.1502 117.834Z" fill="white"/>
<path d="M83.9916 117.695V118.598H83.8055V118.372C83.7502 118.453 83.6746 118.518 83.5864 118.56C83.4981 118.603 83.4002 118.621 83.3026 118.614C82.9699 118.614 82.768 118.44 82.768 118.186C82.768 117.933 82.9145 117.79 83.3342 117.79H83.7936V117.703C83.7936 117.454 83.655 117.307 83.3976 117.307C83.2208 117.305 83.0492 117.367 82.9145 117.481L82.8234 117.335C82.9921 117.201 83.2023 117.131 83.4174 117.137C83.4935 117.128 83.5705 117.137 83.6429 117.162C83.7154 117.187 83.7814 117.227 83.8363 117.28C83.8911 117.334 83.9335 117.399 83.9604 117.47C83.9873 117.542 83.9979 117.619 83.9916 117.695ZM83.7936 118.158V117.921H83.3382C83.0531 117.921 82.962 118.032 82.962 118.182C82.962 118.333 83.1006 118.455 83.3342 118.455C83.4326 118.462 83.5306 118.437 83.6135 118.384C83.6963 118.33 83.7595 118.251 83.7936 118.158Z" fill="white"/>
<path d="M84.4826 116.677C84.4883 116.643 84.506 116.612 84.5324 116.59C84.5589 116.567 84.5925 116.555 84.6272 116.555C84.6619 116.555 84.6955 116.567 84.7219 116.59C84.7484 116.612 84.766 116.643 84.7717 116.677C84.766 116.712 84.7484 116.743 84.7219 116.765C84.6955 116.788 84.6619 116.8 84.6272 116.8C84.5925 116.8 84.5589 116.788 84.5324 116.765C84.506 116.743 84.4883 116.712 84.4826 116.677ZM84.5262 117.141H84.7242V118.598H84.5262V117.141Z" fill="white"/>
<path d="M86.6131 117.751V118.598H86.4191V117.77C86.4302 117.709 86.4266 117.646 86.4089 117.587C86.3911 117.527 86.3595 117.473 86.3167 117.427C86.2739 117.382 86.2211 117.348 86.1625 117.327C86.1039 117.306 86.0412 117.299 85.9795 117.307C85.9098 117.302 85.8398 117.312 85.7745 117.337C85.7092 117.362 85.6501 117.401 85.6014 117.451C85.5527 117.502 85.5156 117.562 85.4927 117.628C85.4698 117.694 85.4616 117.764 85.4687 117.834V118.598H85.2746V117.141H85.4608V117.41C85.5198 117.318 85.6023 117.244 85.6997 117.194C85.7972 117.145 85.9061 117.122 86.0152 117.129C86.0974 117.122 86.18 117.134 86.2571 117.164C86.3342 117.193 86.4038 117.239 86.461 117.298C86.5182 117.358 86.5615 117.429 86.5878 117.507C86.6141 117.586 86.6227 117.669 86.6131 117.751Z" fill="white"/>
</g>
<path opacity="0.4" d="M90.0742 128.498H68.0051C67.133 128.497 66.297 128.15 65.6807 127.533C65.0644 126.916 64.7183 126.079 64.7183 125.207C64.7183 124.335 65.0644 123.499 65.6807 122.882C66.297 122.265 67.133 121.918 68.0051 121.917H90.0742C90.9469 121.917 91.7839 122.263 92.4011 122.88C93.0182 123.497 93.3649 124.334 93.3649 125.207C93.3649 126.08 93.0182 126.917 92.4011 127.534C91.7839 128.151 90.9469 128.498 90.0742 128.498Z" fill="white"/>
<path d="M70.4326 125.041C70.4307 124.887 70.4605 124.734 70.5203 124.592C70.58 124.45 70.6683 124.321 70.7797 124.215C70.8911 124.108 71.0232 124.026 71.1679 123.972C71.3125 123.919 71.4666 123.896 71.6206 123.904C71.7779 123.899 71.9346 123.927 72.0801 123.987C72.2256 124.047 72.3565 124.138 72.464 124.253L72.2581 124.451C72.1785 124.365 72.0815 124.298 71.9736 124.253C71.8657 124.207 71.7493 124.186 71.6324 124.19C71.4918 124.191 71.3538 124.227 71.2305 124.295C71.1073 124.362 71.0028 124.46 70.9263 124.578C70.8498 124.696 70.8037 124.831 70.7921 124.971C70.7805 125.111 70.8038 125.252 70.8599 125.381C70.9161 125.51 71.0032 125.623 71.1137 125.71C71.2241 125.797 71.3544 125.855 71.4929 125.879C71.6313 125.904 71.7737 125.894 71.9072 125.849C72.0408 125.805 72.1613 125.729 72.2581 125.627L72.464 125.825C72.3559 125.94 72.2243 126.031 72.0782 126.091C71.932 126.151 71.7746 126.179 71.6166 126.174C71.4632 126.182 71.3096 126.159 71.1654 126.106C71.0213 126.053 70.8896 125.971 70.7785 125.864C70.6675 125.758 70.5795 125.63 70.5199 125.489C70.4604 125.347 70.4307 125.195 70.4326 125.041Z" fill="white"/>
<path d="M72.6779 125.041C72.6668 124.804 72.727 124.569 72.8506 124.367C72.9742 124.164 73.1556 124.003 73.3715 123.905C73.5874 123.806 73.8278 123.775 74.0618 123.814C74.2958 123.853 74.5126 123.962 74.6843 124.126C74.8561 124.289 74.9748 124.501 75.0254 124.733C75.0759 124.964 75.0558 125.206 74.9677 125.426C74.8797 125.647 74.7277 125.836 74.5313 125.969C74.3349 126.102 74.1031 126.173 73.8659 126.174C73.7124 126.182 73.5589 126.158 73.4148 126.105C73.2707 126.052 73.1389 125.969 73.0277 125.863C72.9165 125.757 72.8281 125.63 72.7679 125.488C72.7078 125.347 72.6771 125.195 72.6779 125.041ZM74.7173 125.041C74.7196 124.87 74.6709 124.701 74.5773 124.558C74.4837 124.414 74.3495 124.302 74.1918 124.235C74.034 124.168 73.8599 124.149 73.6915 124.181C73.5232 124.214 73.3682 124.295 73.2465 124.416C73.1247 124.536 73.0416 124.691 73.0078 124.859C72.9739 125.027 72.9909 125.201 73.0565 125.359C73.1221 125.518 73.2333 125.653 73.3761 125.748C73.5188 125.843 73.6865 125.893 73.858 125.892C73.9712 125.896 74.084 125.877 74.1894 125.835C74.2949 125.794 74.3908 125.732 74.4712 125.652C74.5517 125.572 74.615 125.477 74.6573 125.372C74.6996 125.267 74.72 125.154 74.7173 125.041Z" fill="white"/>
<path d="M77.4259 123.948V126.166H77.1646L75.834 124.51V126.166H75.5172V123.948H75.7786L77.1091 125.599V123.948H77.4259Z" fill="white"/>
<path d="M78.5308 124.205H77.7704V123.948H79.596V124.221H78.8436V126.166H78.5308V124.205Z" fill="white"/>
<path d="M79.9484 123.948H80.2652V126.166H79.9484V123.948Z" fill="white"/>
<path d="M82.8392 123.948V126.166H82.5779L81.2473 124.51V126.166H80.9305V123.948H81.18L82.5106 125.599V123.948H82.8392Z" fill="white"/>
<path d="M83.4847 125.191V123.948H83.8015V125.195C83.8015 125.686 84.0272 125.908 84.4272 125.908C84.8272 125.908 85.0529 125.686 85.0529 125.195V123.948H85.3618V125.207C85.3618 125.456 85.2629 125.695 85.0869 125.871C84.9109 126.047 84.6722 126.146 84.4232 126.146C84.1743 126.146 83.9356 126.047 83.7596 125.871C83.5836 125.695 83.4847 125.456 83.4847 125.207V125.191Z" fill="white"/>
<path d="M87.619 125.873V126.15H86.0112V123.948H87.5952V124.221H86.328V124.902H87.4368V125.172H86.328V125.888L87.619 125.873Z" fill="white"/>
<path opacity="0.1" d="M117.41 73.8619C104.457 86.8388 71.1889 115.723 33.4937 113.585V73.8619H117.41Z" fill="white"/>
<path opacity="0.1" d="M127.171 97.713V136.026H70.7731C72.9353 128.288 77.2596 117.691 85.6469 110.12C100.734 96.4973 118.246 96.5369 127.171 97.713Z" fill="white"/>
<path d="M139.087 67.7516L140.402 73.557L141.717 67.7516H139.087Z" fill="#35D0B4"/>
<path opacity="0.7" d="M139.087 67.7516L140.402 73.557L141.717 67.7516H139.087Z" fill="white"/>
<path d="M155.117 51.3137H125.69C123.812 51.3137 122.289 52.8367 122.289 54.7153V65.637C122.289 67.5157 123.812 69.0386 125.69 69.0386H155.117C156.996 69.0386 158.519 67.5157 158.519 65.637V54.7153C158.519 52.8367 156.996 51.3137 155.117 51.3137Z" fill="#35D0B4"/>
<path opacity="0.7" d="M155.117 51.3137H125.69C123.812 51.3137 122.289 52.8367 122.289 54.7153V65.637C122.289 67.5157 123.812 69.0386 125.69 69.0386H155.117C156.996 69.0386 158.519 67.5157 158.519 65.637V54.7153C158.519 52.8367 156.996 51.3137 155.117 51.3137Z" fill="white"/>
<g opacity="0.5">
<path d="M129.524 57.816V58.5803H129.211V57.816L128.332 56.3745H128.672L129.381 57.5625L130.094 56.3745H130.407L129.524 57.816Z" fill="#263238"/>
<path d="M130.335 57.7447C130.332 57.571 130.381 57.4002 130.475 57.2542C130.569 57.1083 130.705 56.9936 130.865 56.925C131.024 56.8563 131.201 56.8367 131.371 56.8686C131.542 56.9006 131.7 56.9827 131.824 57.1044C131.948 57.2261 132.033 57.382 132.068 57.5522C132.103 57.7224 132.086 57.8992 132.021 58.06C131.955 58.2208 131.843 58.3585 131.698 58.4554C131.554 58.5522 131.384 58.604 131.211 58.604C131.096 58.6095 130.981 58.5912 130.873 58.5502C130.765 58.5091 130.667 58.4463 130.585 58.3656C130.503 58.2849 130.438 58.1881 130.395 58.0813C130.352 57.9744 130.332 57.8598 130.335 57.7447ZM131.773 57.7447C131.78 57.6666 131.77 57.588 131.744 57.5139C131.719 57.4398 131.679 57.3717 131.625 57.3141C131.572 57.2564 131.508 57.2104 131.436 57.1789C131.365 57.1474 131.287 57.1311 131.209 57.1311C131.13 57.1311 131.053 57.1474 130.981 57.1789C130.909 57.2104 130.845 57.2564 130.792 57.3141C130.739 57.3717 130.698 57.4398 130.673 57.5139C130.648 57.588 130.638 57.6666 130.644 57.7447C130.638 57.8228 130.648 57.9014 130.673 57.9755C130.698 58.0496 130.739 58.1177 130.792 58.1753C130.845 58.233 130.909 58.2791 130.981 58.3105C131.053 58.342 131.13 58.3583 131.209 58.3583C131.287 58.3583 131.365 58.342 131.436 58.3105C131.508 58.2791 131.572 58.233 131.625 58.1753C131.679 58.1177 131.719 58.0496 131.744 57.9755C131.77 57.9014 131.78 57.8228 131.773 57.7447Z" fill="#263238"/>
<path d="M134.066 56.9052V58.5842H133.781V58.3308C133.715 58.419 133.628 58.49 133.529 58.5376C133.43 58.5852 133.32 58.608 133.21 58.604C133.112 58.6141 133.013 58.6021 132.92 58.5687C132.827 58.5353 132.742 58.4815 132.673 58.4112C132.603 58.341 132.55 58.256 132.518 58.1626C132.486 58.0691 132.475 57.9697 132.486 57.8714V56.9052H132.791V57.8397C132.791 58.1684 132.957 58.3308 133.246 58.3308C133.319 58.3355 133.391 58.3241 133.459 58.2974C133.526 58.2707 133.587 58.2293 133.637 58.1763C133.686 58.1233 133.723 58.0599 133.746 57.9907C133.768 57.9216 133.774 57.8484 133.765 57.7764V56.9052H134.066Z" fill="#263238"/>
<path d="M135.551 56.8893V57.1863H135.48C135.406 57.1815 135.332 57.1932 135.263 57.2206C135.194 57.2479 135.132 57.2902 135.082 57.3444C135.031 57.3986 134.994 57.4634 134.971 57.534C134.949 57.6046 134.943 57.6793 134.953 57.7526V58.5882H134.64V56.9052H134.933V57.1903C134.996 57.0864 135.088 57.0028 135.198 56.9495C135.307 56.8961 135.43 56.8753 135.551 56.8893Z" fill="#263238"/>
<path d="M136.664 57.4754C136.653 57.2386 136.714 57.004 136.838 56.802C136.962 56.6 137.144 56.4397 137.36 56.3419C137.576 56.244 137.816 56.213 138.05 56.2529C138.284 56.2927 138.5 56.4016 138.672 56.5655C138.843 56.7294 138.961 56.9409 139.012 57.1726C139.062 57.4043 139.041 57.6458 138.953 57.8659C138.865 58.086 138.713 58.2747 138.517 58.4076C138.32 58.5406 138.089 58.6117 137.852 58.612C137.698 58.6207 137.544 58.5976 137.399 58.5442C137.254 58.4909 137.122 58.4083 137.011 58.3018C136.899 58.1952 136.811 58.0668 136.751 57.9247C136.692 57.7825 136.662 57.6296 136.664 57.4754ZM138.703 57.4754C138.705 57.304 138.657 57.1358 138.563 56.9922C138.469 56.8486 138.335 56.7361 138.177 56.6691C138.02 56.602 137.846 56.5835 137.677 56.6157C137.509 56.648 137.354 56.7297 137.232 56.8503C137.11 56.971 137.027 57.1251 136.993 57.2932C136.96 57.4612 136.977 57.6355 137.042 57.7939C137.108 57.9523 137.219 58.0875 137.362 58.1824C137.504 58.2773 137.672 58.3276 137.844 58.3268C137.957 58.3307 138.07 58.3113 138.175 58.27C138.281 58.2286 138.376 58.1662 138.457 58.0865C138.537 58.0067 138.601 57.9114 138.643 57.8064C138.685 57.7013 138.706 57.5887 138.703 57.4754Z" fill="#263238"/>
<path d="M139.915 56.628H139.154V56.3548H140.976V56.628H140.216V58.5684H139.903L139.915 56.628Z" fill="#263238"/>
<path d="M143.122 57.1428C143.122 57.622 142.774 57.915 142.196 57.915H141.649V58.5842H141.332V56.3706H142.196C142.774 56.3706 143.122 56.6597 143.122 57.1428ZM142.806 57.1428C142.806 56.826 142.592 56.6438 142.188 56.6438H141.649V57.6378H142.188C142.592 57.6378 142.806 57.4596 142.806 57.1428Z" fill="#263238"/>
<path d="M144.291 57.4754C144.301 57.2463 144.378 57.0251 144.512 56.8386C144.645 56.6522 144.83 56.5083 145.044 56.4246C145.257 56.3408 145.49 56.3207 145.715 56.3666C145.94 56.4126 146.147 56.5226 146.31 56.6834L146.104 56.8854C146.025 56.7992 145.928 56.731 145.82 56.6852C145.712 56.6395 145.596 56.6172 145.479 56.6201C145.253 56.6201 145.036 56.7098 144.876 56.8695C144.717 57.0291 144.627 57.2457 144.627 57.4715C144.627 57.6973 144.717 57.9138 144.876 58.0735C145.036 58.2332 145.253 58.3229 145.479 58.3229C145.596 58.3257 145.712 58.3035 145.82 58.2578C145.928 58.212 146.025 58.1438 146.104 58.0576L146.31 58.2595C146.147 58.4204 145.94 58.5304 145.715 58.5763C145.49 58.6223 145.257 58.6021 145.044 58.5184C144.83 58.4346 144.645 58.2908 144.512 58.1043C144.378 57.9179 144.301 57.6967 144.291 57.4675V57.4754Z" fill="#263238"/>
<path d="M146.492 57.7447C146.489 57.571 146.538 57.4002 146.632 57.2542C146.726 57.1083 146.862 56.9936 147.021 56.925C147.181 56.8563 147.357 56.8367 147.528 56.8686C147.699 56.9006 147.856 56.9827 147.98 57.1044C148.104 57.2261 148.189 57.382 148.224 57.5522C148.259 57.7224 148.243 57.8992 148.177 58.06C148.112 58.2208 147.999 58.3585 147.855 58.4554C147.711 58.5522 147.541 58.604 147.367 58.604C147.252 58.6095 147.137 58.5912 147.03 58.5502C146.922 58.5091 146.824 58.4463 146.742 58.3656C146.66 58.2849 146.595 58.1881 146.552 58.0813C146.509 57.9744 146.489 57.8598 146.492 57.7447ZM147.93 57.7447C147.936 57.6666 147.927 57.588 147.901 57.5139C147.876 57.4398 147.835 57.3717 147.782 57.3141C147.729 57.2564 147.665 57.2104 147.593 57.1789C147.521 57.1474 147.444 57.1311 147.365 57.1311C147.287 57.1311 147.21 57.1474 147.138 57.1789C147.066 57.2104 147.002 57.2564 146.949 57.3141C146.896 57.3717 146.855 57.4398 146.83 57.5139C146.804 57.588 146.795 57.6666 146.801 57.7447C146.795 57.8228 146.804 57.9014 146.83 57.9755C146.855 58.0496 146.896 58.1177 146.949 58.1753C147.002 58.233 147.066 58.2791 147.138 58.3105C147.21 58.342 147.287 58.3583 147.365 58.3583C147.444 58.3583 147.521 58.342 147.593 58.3105C147.665 58.2791 147.729 58.233 147.782 58.1753C147.835 58.1177 147.876 58.0496 147.901 57.9755C147.927 57.9014 147.936 57.8228 147.93 57.7447Z" fill="#263238"/>
<path d="M150.242 56.232V58.5803H149.953V58.315C149.884 58.4073 149.794 58.4815 149.689 58.5312C149.585 58.5809 149.471 58.6045 149.355 58.6001C149.138 58.5853 148.934 58.4886 148.786 58.3294C148.637 58.1702 148.554 57.9605 148.554 57.7427C148.554 57.5249 148.637 57.3152 148.786 57.1561C148.934 56.9969 149.138 56.9002 149.355 56.8854C149.467 56.882 149.578 56.9045 149.68 56.9512C149.782 56.998 149.871 57.0676 149.941 57.1547V56.232H150.242ZM149.941 57.7408C149.936 57.6299 149.898 57.5231 149.833 57.4337C149.767 57.3442 149.676 57.2759 149.572 57.2374C149.468 57.1989 149.355 57.1918 149.247 57.217C149.139 57.2422 149.041 57.2986 148.965 57.3792C148.888 57.4598 148.837 57.561 148.818 57.6702C148.799 57.7795 148.812 57.892 148.856 57.9938C148.9 58.0956 148.974 58.1822 149.067 58.2428C149.159 58.3034 149.268 58.3354 149.379 58.3348C149.456 58.3366 149.532 58.3224 149.603 58.293C149.674 58.2637 149.738 58.2198 149.791 58.1642C149.844 58.1087 149.885 58.0426 149.911 57.9704C149.936 57.8981 149.947 57.8213 149.941 57.7447V57.7408Z" fill="#263238"/>
<path d="M152.329 57.8477H150.971C150.99 57.9916 151.063 58.1227 151.176 58.2141C151.289 58.3055 151.432 58.3501 151.577 58.3387C151.667 58.3419 151.757 58.3256 151.841 58.2907C151.924 58.2558 151.999 58.2033 152.06 58.1367L152.23 58.3308C152.106 58.4565 151.948 58.5437 151.776 58.5817C151.603 58.6197 151.424 58.6069 151.258 58.5449C151.093 58.483 150.949 58.3744 150.844 58.2324C150.739 58.0904 150.677 57.921 150.666 57.7447C150.662 57.6322 150.68 57.52 150.721 57.4151C150.762 57.3101 150.824 57.2146 150.903 57.1344C150.982 57.0543 151.076 56.9912 151.181 56.949C151.285 56.9069 151.397 56.8866 151.51 56.8893C151.623 56.8837 151.737 56.9026 151.842 56.9447C151.948 56.9869 152.043 57.0513 152.122 57.1336C152.2 57.2159 152.26 57.3141 152.297 57.4216C152.335 57.5291 152.348 57.6434 152.337 57.7566C152.336 57.7871 152.334 57.8175 152.329 57.8477ZM150.971 57.6299H152.064C152.052 57.4955 151.991 57.3704 151.892 57.2792C151.792 57.188 151.662 57.1374 151.527 57.1374C151.393 57.1374 151.263 57.188 151.163 57.2792C151.064 57.3704 151.002 57.4955 150.991 57.6299H150.971Z" fill="#263238"/>
</g>
<g opacity="0.5">
<path d="M135.828 62.0533C135.828 63.3007 135.127 63.9659 134.101 63.9659C133.785 63.9771 133.472 63.9033 133.195 63.7521L133.393 63.3561C133.607 63.478 133.851 63.537 134.097 63.5264C134.838 63.5264 135.309 63.0631 135.309 62.1483V62.0216C135.187 62.1821 135.027 62.3099 134.843 62.3935C134.659 62.4772 134.457 62.514 134.256 62.5007C134.1 62.5179 133.942 62.5022 133.792 62.4546C133.643 62.4071 133.505 62.3288 133.387 62.2247C133.27 62.1206 133.175 61.9931 133.11 61.8504C133.045 61.7077 133.01 61.5528 133.008 61.3959C133.012 61.2339 133.049 61.0743 133.117 60.9271C133.185 60.7798 133.282 60.648 133.402 60.5397C133.523 60.4314 133.664 60.3489 133.818 60.2973C133.971 60.2457 134.134 60.226 134.295 60.2396C135.274 60.2317 135.828 60.889 135.828 62.0533ZM135.183 61.3801C135.183 61.0039 134.882 60.6752 134.311 60.6752C134.212 60.6647 134.111 60.6751 134.016 60.7059C133.92 60.7367 133.833 60.7871 133.758 60.8539C133.683 60.9207 133.624 61.0023 133.583 61.0937C133.541 61.185 133.52 61.2839 133.519 61.384C133.519 61.8117 133.836 62.0889 134.347 62.0889C134.449 62.0992 134.552 62.0889 134.649 62.0585C134.747 62.0282 134.838 61.9784 134.916 61.9122C134.994 61.8461 135.057 61.7648 135.103 61.6734C135.149 61.5819 135.176 61.4822 135.183 61.3801Z" fill="#263238"/>
<path d="M136.327 62.1007C136.327 60.9127 136.965 60.2316 137.82 60.2316C138.675 60.2316 139.305 60.9127 139.305 62.1007C139.305 63.2887 138.667 63.9659 137.82 63.9659C136.972 63.9659 136.327 63.2887 136.327 62.1007ZM138.782 62.1007C138.782 61.1662 138.386 60.6989 137.82 60.6989C137.254 60.6989 136.85 61.1662 136.85 62.1007C136.85 63.0353 137.246 63.5026 137.82 63.5026C138.394 63.5026 138.782 63.0353 138.782 62.1007Z" fill="#263238"/>
<path d="M142.358 63.4709V63.9263H139.733V63.5699L141.222 62.1364C141.618 61.7602 141.677 61.5305 141.677 61.3008C141.677 60.9286 141.412 60.6989 140.885 60.6989C140.71 60.6886 140.535 60.719 140.373 60.7877C140.212 60.8564 140.068 60.9615 139.954 61.0949L139.598 60.786C139.765 60.6005 139.972 60.4545 140.203 60.3587C140.434 60.2628 140.683 60.2194 140.932 60.2316C141.693 60.2316 142.184 60.6276 142.184 61.2493C142.178 61.4736 142.121 61.6935 142.017 61.8925C141.914 62.0915 141.766 62.2643 141.586 62.3977L140.469 63.4709H142.358Z" fill="#263238"/>
<path d="M143.918 60.2752V63.9263H143.4V60.7306H142.56V60.2752H143.918Z" fill="#263238"/>
<path d="M144.714 62.1007C144.714 60.9127 145.352 60.2316 146.207 60.2316C147.063 60.2316 147.692 60.9127 147.692 62.1007C147.692 63.2887 147.059 63.9659 146.207 63.9659C145.356 63.9659 144.714 63.2887 144.714 62.1007ZM147.173 62.1007C147.173 61.1662 146.777 60.6989 146.207 60.6989C145.637 60.6989 145.237 61.1662 145.237 62.1007C145.237 63.0353 145.633 63.5026 146.207 63.5026C146.781 63.5026 147.173 63.0353 147.173 62.1007Z" fill="#263238"/>
</g>
<path d="M137.147 84.7796C139.511 86.4155 142.155 87.6034 144.948 88.2842H144.976C144.767 88.2782 144.561 88.3363 144.386 88.4506C144.213 88.5582 144.075 88.7137 143.99 88.898C143.961 88.9546 143.944 89.0167 143.942 89.0802C144.005 88.2486 143.645 87.314 143.392 86.4151C142.936 84.9935 142.402 83.5362 141.867 82.1066L143.396 81.2869C144.659 83.2234 148.876 89.3534 145.997 91.1275C145.504 91.4154 144.92 91.5086 144.362 91.3889C141.225 90.9242 138.233 89.7574 135.61 87.9754C135.428 87.8486 135.27 87.7378 135.056 87.5794L137.155 84.7717L137.147 84.7796Z" fill="#DC897C"/>
<path d="M136.703 84.348C138.09 84.5151 139.406 85.0497 140.517 85.8964L138.933 90.7988C138.933 90.7988 131.234 83.7025 136.703 84.348Z" fill="#35D0B4"/>
<path opacity="0.6" d="M136.687 88.4704C137.392 89.2774 138.137 90.048 138.921 90.779L139.574 88.7634L140.517 85.8766C139.407 85.0305 138.092 84.496 136.707 84.3282C133.341 83.952 134.949 86.4706 136.687 88.4704Z" fill="white"/>
<path opacity="0.2" d="M136.687 88.4703C137.392 89.2774 138.137 90.048 138.921 90.779L139.574 88.7634C138.752 88.1232 137.741 87.7748 136.699 87.7734C136.676 88.0049 136.672 88.2381 136.687 88.4703Z" fill="black"/>
<path d="M119.592 77.0972C119.592 77.0972 115.909 89.3415 123.667 90.9849C131.424 92.6283 132.264 86.9933 132.264 86.9933C132.264 86.9933 125.888 77.3467 119.592 77.0972Z" fill="#263238"/>
<path d="M117.774 81.1523C117.76 81.1563 117.745 81.1563 117.731 81.1523C117.72 81.1468 117.71 81.1392 117.702 81.1298C117.693 81.1203 117.687 81.1093 117.684 81.0975C117.68 81.0856 117.679 81.0731 117.68 81.0607C117.681 81.0484 117.685 81.0364 117.691 81.0256C117.807 80.8143 117.97 80.6327 118.168 80.4953C118.366 80.3579 118.593 80.2683 118.832 80.2336C118.856 80.2343 118.88 80.244 118.898 80.2607C118.916 80.2774 118.928 80.3001 118.931 80.3246C118.932 80.3371 118.93 80.3497 118.927 80.3616C118.923 80.3736 118.917 80.3847 118.909 80.3942C118.9 80.4038 118.891 80.4117 118.879 80.4174C118.868 80.4231 118.856 80.4266 118.844 80.4276C118.637 80.4613 118.441 80.5416 118.27 80.6623C118.099 80.7831 117.958 80.9412 117.858 81.1246C117.847 81.1361 117.834 81.1448 117.82 81.1496C117.805 81.1545 117.789 81.1554 117.774 81.1523Z" fill="#263238"/>
<path d="M118.883 82.6729C118.833 83.1502 118.726 83.6196 118.562 84.0708C118.685 84.144 118.825 84.1827 118.968 84.1827C119.111 84.1827 119.251 84.144 119.374 84.0708L118.883 82.6729Z" fill="#DE5753"/>
<path d="M118.135 82.1383C118.218 82.3561 118.404 82.4868 118.531 82.4314C118.657 82.3759 118.729 82.1581 118.646 81.9403C118.562 81.7225 118.376 81.5918 118.25 81.6473C118.123 81.7027 118.056 81.9205 118.135 82.1383Z" fill="#263238"/>
<path d="M118.313 81.6354H117.77C117.77 81.6354 118.158 81.9363 118.313 81.6354Z" fill="#263238"/>
<path d="M126.019 84.1936C126.005 84.229 125.987 84.2624 125.964 84.2926C125.928 84.3599 125.888 84.4232 125.849 84.4906C125.617 84.9079 125.308 85.2774 124.938 85.5796C123.75 86.526 122.716 86.8111 121.818 86.5379L121.687 86.4943C120.352 85.9518 119.311 84.3559 118.483 82.2452C118.116 81.4193 117.885 80.5394 117.798 79.6396C117.798 79.6396 117.798 79.6079 117.798 79.6C117.798 79.592 117.798 79.5287 117.798 79.497C117.767 78.9813 117.865 78.466 118.084 77.9979C118.302 77.5298 118.634 77.1235 119.049 76.8161C119.404 76.5374 119.79 76.2997 120.198 76.1072C124.154 74.1787 128.003 80.4593 126.019 84.1936Z" fill="#E4897B"/>
<path opacity="0.2" d="M125.849 84.4906C125.617 84.9079 125.308 85.2774 124.938 85.5796C123.75 86.526 122.716 86.8111 121.818 86.5379C122.692 86.326 123.479 85.8488 124.071 85.1717C124.299 84.935 124.577 84.7514 124.884 84.6337C125.191 84.516 125.521 84.4672 125.849 84.4906Z" fill="black"/>
<path d="M117.778 79.6158C117.778 79.6158 118.883 82.5224 122.111 82.4709C122.111 82.4709 124.629 84.8469 126.328 84.0906C128.645 83.0649 129.12 78.8515 126.76 75.9092C123.695 72.0918 117.01 74.844 117.778 79.6158Z" fill="#263238"/>
<path d="M120.384 82.3046C120.178 81.8651 120.182 80.9661 120.907 80.7444C121.631 80.5226 122.887 82.0631 121.326 83.2669C121.105 83.4411 120.812 83.2154 120.384 82.3046Z" fill="#E4897B"/>
<path d="M121.251 74.3252C121.251 74.3252 118.257 74.9153 117.291 76.7012C116.159 78.7763 116.103 80.384 119.113 81.4532C119.113 81.4532 122.918 77.8892 124.558 77.4932C125.513 77.2562 126.487 77.0999 127.468 77.026C126.375 73.8619 122.459 73.0145 121.251 74.3252Z" fill="#263238"/>
<path d="M124.154 85.6548C124.154 85.6548 126.213 87.0804 126.748 89.4326L133.167 85.6865C133.167 85.6865 128.142 84.542 127.278 82.5977C127.278 82.5977 123.92 83.0135 124.154 85.6548Z" fill="#E4897B"/>
<path d="M130.53 101.079C130.53 101.079 122.214 92.9095 121.319 90.3434C121.319 90.3434 124.815 84.8984 131.805 84.6687C138.794 84.4391 143.55 97.7367 143.55 97.7367L130.53 101.079Z" fill="#35D0B4"/>
<path opacity="0.6" d="M143.55 97.7407L130.533 101.083C130.533 101.083 128.72 99.297 126.692 97.1229C126.067 96.4458 125.413 95.733 124.784 95.0281C123.132 93.155 121.675 91.3255 121.323 90.3315C121.323 90.3315 124.815 84.8865 131.805 84.6569C138.794 84.4272 143.55 97.7407 143.55 97.7407Z" fill="white"/>
<path d="M122.76 81.077C122.76 81.077 123.976 85.1162 128.245 86.4547C132.513 87.7932 131.44 92.1532 135.579 91.6384C137.78 91.3651 139.665 86.8864 132.913 82.9264C128.977 80.6256 130.506 73.062 122.15 73.7708C122.142 73.7748 123.877 78.9584 122.76 81.077Z" fill="#263238"/>
<path d="M126.906 162.649L124.926 162.198C125.223 152.298 126.653 140.327 127.916 131.333C128.114 129.924 128.312 128.593 128.494 127.35C128.585 126.76 128.668 126.193 128.751 125.647C129.147 122.95 129.512 120.82 129.73 119.501C129.892 118.539 129.983 118.012 129.983 118.012L137.111 119.75L136.6 121.548L134.917 127.488L134.727 128.165L133.61 132.082L131.718 138.747C131.836 148.809 126.906 162.649 126.906 162.649Z" fill="#E4897B"/>
<path d="M143.855 160.994L141.827 160.891C140.283 150.246 139.634 136.933 139.352 127.678C139.313 126.245 139.277 124.906 139.249 123.687C139.249 123.627 139.249 123.568 139.249 123.508C139.198 121.097 139.174 119.18 139.162 117.964C139.162 117.014 139.162 116.495 139.162 116.495L146.476 116.974L146.164 120.024L145.704 124.498L145.613 125.378L145.296 128.427L144.441 136.62C146.31 146.52 143.855 160.994 143.855 160.994Z" fill="#E4897B"/>
<path d="M144.615 160.598C144.615 160.344 141.487 160.542 141.487 160.542C141.487 160.542 139.566 162.495 137.701 162.918C135.836 163.342 136.881 164.479 138.964 164.479H144.112C145.601 164.494 144.675 163.231 144.615 160.598Z" fill="#263238"/>
<path d="M139.57 161.267C139.525 161.226 139.494 161.172 139.48 161.113C139.467 161.053 139.472 160.991 139.495 160.934C139.507 160.89 139.528 160.849 139.557 160.813C139.585 160.777 139.621 160.747 139.661 160.725C139.883 160.634 140.126 160.607 140.362 160.645C140.109 160.511 139.887 160.348 139.875 160.182C139.875 160.075 139.938 159.988 140.081 159.921C140.143 159.892 140.211 159.878 140.279 159.878C140.347 159.878 140.415 159.892 140.477 159.921C140.901 160.099 141.162 160.827 141.174 160.855C141.182 160.875 141.182 160.898 141.174 160.919V160.938C141.167 160.947 141.157 160.954 141.146 160.958C140.743 161.165 140.306 161.299 139.855 161.354C139.753 161.361 139.651 161.33 139.57 161.267ZM139.744 160.871C139.723 160.882 139.704 160.897 139.688 160.915C139.673 160.934 139.661 160.955 139.653 160.978C139.622 161.101 139.653 161.132 139.653 161.144C139.804 161.267 140.374 161.093 140.841 160.899C140.486 160.787 140.106 160.776 139.744 160.867V160.871ZM140.14 160.079C140.097 160.079 140.026 160.138 140.03 160.182C140.03 160.321 140.485 160.578 140.944 160.74C140.842 160.466 140.655 160.232 140.41 160.071C140.37 160.053 140.327 160.043 140.283 160.043C140.238 160.043 140.193 160.053 140.152 160.071L140.14 160.079Z" fill="#263238"/>
<path d="M127.908 160.598C127.908 160.344 124.784 160.542 124.784 160.542C124.784 160.542 122.863 162.495 120.998 162.918C119.133 163.342 120.174 164.479 122.257 164.479H127.405C128.898 164.494 127.975 163.231 127.908 160.598Z" fill="#263238"/>
<path d="M122.867 161.267C122.823 161.225 122.792 161.171 122.778 161.112C122.765 161.053 122.77 160.991 122.792 160.934C122.804 160.89 122.825 160.849 122.854 160.813C122.882 160.777 122.918 160.747 122.958 160.725C123.18 160.634 123.422 160.607 123.659 160.645C123.405 160.511 123.184 160.348 123.176 160.182C123.176 160.076 123.243 159.989 123.378 159.921C123.44 159.892 123.507 159.878 123.576 159.878C123.644 159.878 123.712 159.892 123.774 159.921C124.197 160.099 124.459 160.827 124.471 160.855C124.476 160.865 124.478 160.876 124.478 160.887C124.478 160.898 124.476 160.909 124.471 160.919C124.471 160.919 124.471 160.919 124.471 160.938L124.443 160.958C124.038 161.164 123.599 161.298 123.148 161.354C123.047 161.359 122.947 161.328 122.867 161.267ZM123.041 160.871C123.02 160.882 123.002 160.897 122.987 160.915C122.972 160.934 122.961 160.955 122.954 160.978C122.922 161.101 122.954 161.132 122.974 161.144C123.12 161.267 123.691 161.093 124.162 160.899C123.799 160.782 123.41 160.771 123.041 160.867V160.871ZM123.437 160.079C123.394 160.079 123.322 160.138 123.326 160.182C123.326 160.321 123.782 160.578 124.245 160.74C124.141 160.466 123.952 160.231 123.706 160.071C123.667 160.052 123.624 160.043 123.58 160.043C123.535 160.043 123.49 160.053 123.449 160.071L123.437 160.079Z" fill="#263238"/>
<path d="M128.843 120.99L130.53 109.11V101.071C134.977 97.7288 143.55 97.7288 143.55 97.7288C143.55 97.7288 150.135 106.865 146.936 121.885L138.667 123.073L138.141 120.269L137.103 123.073L128.843 120.99Z" fill="#263238"/>
<path opacity="0.2" d="M128.843 120.99L130.53 109.11V101.071C134.977 97.7288 143.55 97.7288 143.55 97.7288C143.55 97.7288 150.135 106.865 146.936 121.885L138.667 123.073L138.141 120.269L137.103 123.073L128.843 120.99Z" fill="white"/>
<path opacity="0.2" d="M138.141 120.313L139.725 115.367C139.725 115.367 141.396 114.86 143.542 111.541C143.55 111.541 143.178 117.188 138.141 120.313Z" fill="black"/>
<path opacity="0.2" d="M134.616 103.356L138.327 103.004C138.919 104.391 139.124 105.913 138.921 107.407L136.545 108.837L134.822 107.613C134.822 107.613 134.767 104.473 134.616 103.356Z" fill="black"/>
<path opacity="0.2" d="M143.55 102.449C144.048 103.673 144.416 104.946 144.647 106.247L145.962 106.805L146.67 105.922C146.67 105.922 146.191 103.336 145.38 102.069L143.55 102.449Z" fill="black"/>
<path d="M128.688 120.313L137.463 122.887L136.913 124.067L128.577 121.501L128.688 120.313Z" fill="#263238"/>
<path d="M138.327 122.716L138.473 123.801L147.078 122.716L147.209 121.35L138.327 122.716Z" fill="#263238"/>
<path d="M140.133 99.396C141.54 99.1583 142.963 99.0193 144.39 98.9802L143.859 98.105C142.471 98.0684 141.083 98.1505 139.709 98.3506L140.133 99.396Z" fill="#263238"/>
<path d="M132.24 100.473C131.104 100.964 130.45 101.332 130.45 101.332V102.414C131.089 102.091 131.729 101.797 132.371 101.53L132.24 100.473Z" fill="#263238"/>
<path d="M132.787 101.376C134.988 100.513 137.271 99.8774 139.602 99.4791L139.206 98.4258C136.947 98.8025 134.738 99.4376 132.624 100.319L132.787 101.376Z" fill="#263238"/>
<path d="M108.995 104.469L106.746 103.566L106.35 105.688C106.35 105.688 108.377 106.916 109.225 105.455L108.995 104.469Z" fill="#E4897B"/>
<path d="M105.629 103.697L104.908 105.336L106.366 105.688L106.746 103.566L105.629 103.697Z" fill="#E4897B"/>
<path d="M143.514 81.6552L143.249 79.2475L141.198 79.9128C141.198 79.9128 141.071 82.2888 142.762 82.3363L143.514 81.6552Z" fill="#E4897B"/>
<path d="M142.604 78.3248L140.818 78.4674L141.198 79.9128L143.249 79.2475L142.604 78.3248Z" fill="#E4897B"/>
<path opacity="0.2" d="M126.692 97.1348C126.067 96.4577 125.413 95.7449 124.784 95.04C124.542 93.5669 124.388 92.268 124.388 92.268C125.142 92.8276 125.747 93.5643 126.149 94.4131C126.551 95.262 126.737 96.1967 126.692 97.1348Z" fill="black"/>
<path d="M124.617 91.5869C123.71 95.2437 122.341 98.7701 120.542 102.081C118.76 105.467 111.985 105.875 108.579 105.962L108.421 104.235C110.472 103.752 116.848 102.481 117.719 100.632C119.141 97.4275 120.312 94.1174 121.22 90.7315L124.617 91.5789V91.5869Z" fill="#DC897C"/>
<path d="M122.677 88.601C120.74 89.8682 119.703 93.163 119.374 94.7747L123.398 97.7368L125.429 95.7568C126.253 91.2107 123.413 88.1219 122.677 88.601Z" fill="#35D0B4"/>
<path opacity="0.6" d="M122.677 88.601C120.74 89.8682 119.703 93.163 119.374 94.7747L123.398 97.7368L125.429 95.7568C126.253 91.2107 123.413 88.1219 122.677 88.601Z" fill="white"/>
<path d="M142.318 82.4274L139.443 82.7363C139.403 82.7374 139.363 82.7302 139.325 82.715C139.288 82.6997 139.254 82.6769 139.225 82.6479C139.197 82.6188 139.175 82.5843 139.161 82.5463C139.147 82.5084 139.14 82.4679 139.143 82.4274L138.968 76.3409C138.963 76.2548 138.989 76.1697 139.041 76.1013C139.093 76.0328 139.169 75.9857 139.253 75.9686L142.124 75.6637C142.165 75.662 142.206 75.6688 142.244 75.6838C142.281 75.6988 142.316 75.7216 142.344 75.7508C142.372 75.78 142.394 75.8148 142.408 75.853C142.422 75.8912 142.428 75.932 142.425 75.9726L142.6 82.0591C142.605 82.1441 142.58 82.2283 142.528 82.296C142.476 82.3637 142.402 82.4104 142.318 82.4274Z" fill="#263238"/>
<path opacity="0.6" d="M142.318 82.4274L139.443 82.7363C139.403 82.7374 139.363 82.7302 139.325 82.715C139.288 82.6997 139.254 82.6769 139.225 82.6479C139.197 82.6188 139.175 82.5843 139.161 82.5463C139.147 82.5084 139.14 82.4679 139.143 82.4274L138.968 76.3409C138.963 76.2548 138.989 76.1697 139.041 76.1013C139.093 76.0328 139.169 75.9857 139.253 75.9686L142.124 75.6637C142.165 75.662 142.206 75.6688 142.244 75.6838C142.281 75.6988 142.316 75.7216 142.344 75.7508C142.372 75.78 142.394 75.8148 142.408 75.853C142.422 75.8912 142.428 75.932 142.425 75.9726L142.6 82.0591C142.605 82.1441 142.58 82.2283 142.528 82.296C142.476 82.3637 142.402 82.4104 142.318 82.4274Z" fill="white"/>
<path d="M142.065 82.4551L139.194 82.76C139.153 82.7623 139.113 82.756 139.075 82.7415C139.037 82.727 139.002 82.7046 138.973 82.6758C138.944 82.647 138.922 82.6125 138.908 82.5745C138.893 82.5364 138.887 82.4957 138.889 82.4551L138.719 76.3646C138.711 76.2793 138.736 76.1943 138.788 76.1262C138.84 76.0581 138.916 76.0118 139 75.9963L141.871 75.6914C141.911 75.6897 141.952 75.6964 141.989 75.7112C142.027 75.726 142.061 75.7485 142.089 75.7772C142.117 75.8059 142.139 75.8402 142.154 75.878C142.168 75.9157 142.174 75.9561 142.172 75.9963L142.346 82.0868C142.353 82.1722 142.329 82.2572 142.277 82.3253C142.225 82.3934 142.149 82.4397 142.065 82.4551Z" fill="#263238"/>
<path opacity="0.7" d="M142.065 82.4551L139.194 82.76C139.153 82.7623 139.113 82.756 139.075 82.7415C139.037 82.727 139.002 82.7046 138.973 82.6758C138.944 82.647 138.922 82.6125 138.908 82.5745C138.893 82.5364 138.887 82.4957 138.889 82.4551L138.719 76.3646C138.711 76.2793 138.736 76.1943 138.788 76.1262C138.84 76.0581 138.916 76.0118 139 75.9963L141.871 75.6914C141.911 75.6897 141.952 75.6964 141.989 75.7112C142.027 75.726 142.061 75.7485 142.089 75.7772C142.117 75.8059 142.139 75.8402 142.154 75.878C142.168 75.9157 142.174 75.9561 142.172 75.9963L142.346 82.0868C142.353 82.1722 142.329 82.2572 142.277 82.3253C142.225 82.3934 142.149 82.4397 142.065 82.4551Z" fill="white"/>
<path d="M141.875 75.8102L141.123 75.8894L141.027 76.1231L139.863 76.2458L139.756 76.0359L139.004 76.1152C138.949 76.1265 138.901 76.1573 138.867 76.2017C138.834 76.2461 138.818 76.3012 138.822 76.3567L138.992 82.4432C138.99 82.4697 138.994 82.4962 139.004 82.521C139.013 82.5458 139.027 82.5684 139.046 82.5871C139.065 82.6059 139.087 82.6204 139.112 82.6297C139.137 82.6391 139.164 82.643 139.19 82.6412L142.061 82.3363C142.115 82.3258 142.164 82.2958 142.197 82.2521C142.231 82.2083 142.247 82.1537 142.243 82.0987L142.073 76.0082C142.074 75.9819 142.07 75.9557 142.06 75.9312C142.051 75.9066 142.036 75.8843 142.017 75.8657C141.999 75.8471 141.977 75.8326 141.952 75.823C141.927 75.8135 141.901 75.8091 141.875 75.8102Z" fill="#35D0B4"/>
<path opacity="0.8" d="M141.491 78.012L139.38 78.2377C139.354 78.2389 139.329 78.2346 139.305 78.2252C139.281 78.2159 139.259 78.2016 139.24 78.1834C139.222 78.1651 139.208 78.1433 139.199 78.1192C139.189 78.0952 139.185 78.0695 139.186 78.0437V77.4576C139.181 77.403 139.197 77.3485 139.23 77.3046C139.262 77.2607 139.31 77.2306 139.364 77.22L141.479 76.9943C141.505 76.9937 141.53 76.9985 141.554 77.0083C141.578 77.0181 141.6 77.0328 141.618 77.0515C141.635 77.0701 141.649 77.0922 141.658 77.1165C141.667 77.1407 141.671 77.1665 141.669 77.1923L141.689 77.7784C141.692 77.8353 141.673 77.8913 141.637 77.9349C141.6 77.9784 141.548 78.006 141.491 78.012Z" fill="white"/>
</svg>
