<svg width="15" height="15" viewBox="0 0 15 15" fill="none" xmlns="http://www.w3.org/2000/svg">
<g clip-path="url(#clip0_51_127)">
<path fill-rule="evenodd" clip-rule="evenodd" d="M1.71875 7.5C1.71875 4.30711 4.30711 1.71875 7.5 1.71875C8.55381 1.71875 9.54044 2.00027 10.3903 2.49189C10.6144 2.62152 10.9011 2.54494 11.0308 2.32086C11.1604 2.09676 11.0838 1.81001 10.8597 1.68039C9.871 1.10844 8.723 0.78125 7.5 0.78125C3.78934 0.78125 0.78125 3.78934 0.78125 7.5C0.78125 11.2107 3.78934 14.2188 7.5 14.2188C11.2107 14.2188 14.2188 11.2107 14.2188 7.5C14.2188 6.67356 14.0693 5.88094 13.7956 5.14842C13.705 4.90591 13.4349 4.78279 13.1924 4.87341C12.9499 4.96403 12.8268 5.23408 12.9174 5.47658C13.1525 6.10573 13.2812 6.78731 13.2812 7.5C13.2812 10.6929 10.6929 13.2812 7.5 13.2812C4.30711 13.2812 1.71875 10.6929 1.71875 7.5ZM13.4734 2.81358C13.6466 2.62116 13.631 2.32477 13.4386 2.15159C13.2462 1.9784 12.9498 1.994 12.7766 2.18642L7.94063 7.55975C7.66375 7.86737 7.195 7.90575 6.87187 7.64719L4.66784 5.88398C4.46569 5.72225 4.17071 5.75503 4.00899 5.95718C3.84726 6.15933 3.88004 6.45431 4.08219 6.61606L6.28619 8.37925C6.99719 8.948 8.02837 8.86369 8.63744 8.18694L13.4734 2.81358Z" fill="#35D0B4"/>
</g>
<defs>
<clipPath id="clip0_51_127">
<rect width="15" height="15" fill="white"/>
</clipPath>
</defs>
</svg>
