<svg width="24" height="24" viewBox="0 0 24 24" fill="none" xmlns="http://www.w3.org/2000/svg">
<path d="M24 23.0936H0V23.1113H24V23.0936Z" fill="#EBEBEB"/>
<path d="M7.32 23.5196H6.81696V23.5373H7.32V23.5196Z" fill="#EBEBEB"/>
<path d="M22.3766 23.9824H21.5198V24H22.3766V23.9824Z" fill="#EBEBEB"/>
<path d="M18.3307 23.5281H15.4915V23.5458H18.3307V23.5281Z" fill="#EBEBEB"/>
<path d="M11.2267 23.9302H9.05472V23.9478H11.2267V23.9302Z" fill="#EBEBEB"/>
<path d="M6.70462 23.8187H5.95198V23.8364H6.70462V23.8187Z" fill="#EBEBEB"/>
<path d="M20.4643 23.9302H19.3814V23.9478H20.4643V23.9302Z" fill="#EBEBEB"/>
<path d="M5.67216 23.8103H3.11664V23.8279H5.67216V23.8103Z" fill="#EBEBEB"/>
<path d="M11.376 19.9477H2.10768C2.03507 19.9475 1.96548 19.905 1.91418 19.8295C1.86289 19.754 1.83408 19.6516 1.83408 19.5449V0.399251C1.83471 0.293166 1.8638 0.191732 1.91503 0.11698C1.96625 0.0422283 2.03548 0.000196988 2.10768 1.52588e-05H11.376C11.4487 1.52588e-05 11.5184 0.0424491 11.5698 0.117982C11.6212 0.193514 11.6501 0.295959 11.6501 0.402778V19.5449C11.6501 19.6518 11.6212 19.7542 11.5698 19.8297C11.5184 19.9053 11.4487 19.9477 11.376 19.9477ZM2.10768 0.0141226C2.03825 0.0143094 1.97171 0.0549677 1.92267 0.127173C1.87362 0.199378 1.84608 0.297231 1.84608 0.399251V19.5449C1.84608 19.647 1.87362 19.7448 1.92267 19.817C1.97171 19.8892 2.03825 19.9299 2.10768 19.9301H11.376C11.4454 19.9297 11.5119 19.889 11.561 19.8169C11.6101 19.7447 11.6378 19.647 11.6381 19.5449V0.399251C11.6378 0.297223 11.6101 0.19948 11.561 0.127335C11.5119 0.0551896 11.4454 0.0144943 11.376 0.0141226H2.10768Z" fill="#EBEBEB"/>
<path d="M21.7589 19.9477H12.4901C12.4175 19.9473 12.3479 19.9048 12.2965 19.8293C12.2452 19.7539 12.2162 19.6516 12.216 19.5449V0.399251C12.2167 0.293102 12.2459 0.191668 12.2972 0.116936C12.3486 0.0422037 12.4178 0.000195006 12.4901 1.52588e-05H21.7589C21.831 0.000382365 21.9001 0.0424957 21.9512 0.117228C22.0023 0.191959 22.0314 0.293288 22.032 0.399251V19.5449C22.0321 19.5977 22.025 19.65 22.0113 19.6989C21.9977 19.7477 21.9776 19.792 21.9522 19.8294C21.9268 19.8668 21.8967 19.8965 21.8635 19.9168C21.8304 19.9371 21.7948 19.9476 21.7589 19.9477ZM12.4901 0.0141226C12.4206 0.0144943 12.3541 0.0551896 12.305 0.127335C12.2559 0.19948 12.2282 0.297223 12.228 0.399251V19.5449C12.2282 19.647 12.2559 19.7447 12.305 19.8169C12.3541 19.889 12.4206 19.9297 12.4901 19.9301H21.7589C21.8283 19.9297 21.8948 19.889 21.9439 19.8169C21.993 19.7447 22.0207 19.647 22.0209 19.5449V0.399251C22.0207 0.297223 21.993 0.19948 21.9439 0.127335C21.8948 0.0551896 21.8283 0.0144943 21.7589 0.0141226H12.4901Z" fill="#EBEBEB"/>
<path d="M9.7819 2.09H3.72238V15.4171H9.7819V2.09Z" fill="#E6E6E6"/>
<path d="M9.6475 2.09H3.58798V15.4171H9.6475V2.09Z" fill="#F5F5F5"/>
<path d="M9.40558 2.48924H3.82942V15.0186H9.40558V2.48924Z" fill="white"/>
<path d="M3.93167 2.48853H3.82991V15.0179H3.93167V2.48853Z" fill="#E6E6E6"/>
<path d="M9.54723 11.1306H3.68787V11.666H9.54723V11.1306Z" fill="#F5F5F5"/>
<path opacity="0.4" d="M9.54767 1.4848H3.33647V4.22585H9.54767V1.4848Z" fill="#F0F0F0"/>
<path d="M3.32449 1.42979H10.0445C10.0537 1.43045 10.0624 1.43607 10.0689 1.44557C10.0755 1.45507 10.0794 1.46778 10.08 1.48128C10.08 1.49587 10.0761 1.50986 10.069 1.52018C10.062 1.5305 10.0525 1.5363 10.0426 1.5363H3.32257C3.31273 1.53611 3.30333 1.53023 3.29641 1.51993C3.28949 1.50964 3.28561 1.49575 3.28561 1.48128C3.28635 1.467 3.2908 1.45368 3.29804 1.44409C3.30528 1.43451 3.31475 1.42938 3.32449 1.42979Z" fill="#E6E6E6"/>
<path d="M3.10127 1.48127C3.10118 1.5354 3.11201 1.58836 3.13239 1.63344C3.15278 1.67853 3.1818 1.71371 3.2158 1.73456C3.24979 1.7554 3.28723 1.76096 3.32338 1.75054C3.35952 1.74012 3.39275 1.71417 3.41886 1.676C3.44498 1.63782 3.4628 1.58913 3.47008 1.53606C3.47736 1.483 3.47377 1.42796 3.45976 1.3779C3.44575 1.32784 3.42196 1.285 3.39138 1.25481C3.36081 1.22463 3.32483 1.20844 3.28799 1.2083C3.26354 1.20821 3.23931 1.21519 3.21669 1.22886C3.19407 1.24253 3.1735 1.26261 3.15616 1.28796C3.13882 1.31331 3.12505 1.34343 3.11563 1.37659C3.10622 1.40976 3.10134 1.44533 3.10127 1.48127Z" fill="#E6E6E6"/>
<path d="M9.732 1.79022C9.74496 1.79024 9.75742 1.78293 9.76681 1.76979C9.7762 1.75666 9.78178 1.73871 9.7824 1.71969V1.55816C9.78178 1.53913 9.7762 1.52119 9.76681 1.50805C9.75742 1.49492 9.74496 1.4876 9.732 1.48762C9.72549 1.48714 9.71899 1.48861 9.71289 1.49194C9.70678 1.49527 9.70121 1.50039 9.69649 1.50699C9.69178 1.51359 9.68803 1.52153 9.68546 1.53033C9.6829 1.53912 9.68159 1.54859 9.68159 1.55816V1.72039C9.68159 1.7391 9.68665 1.75704 9.69565 1.77027C9.70466 1.7835 9.71686 1.79093 9.72959 1.79093L9.732 1.79022Z" fill="#E6E6E6"/>
<path d="M3.888 1.79023C3.90073 1.79023 3.91294 1.78279 3.92194 1.76957C3.93094 1.75634 3.936 1.7384 3.936 1.71969V1.55816C3.936 1.53945 3.93094 1.52151 3.92194 1.50829C3.91294 1.49506 3.90073 1.48763 3.888 1.48763C3.87527 1.48763 3.86306 1.49506 3.85406 1.50829C3.84505 1.52151 3.84 1.53945 3.84 1.55816V1.71687C3.84 1.73558 3.84505 1.75352 3.85406 1.76675C3.86306 1.77997 3.87527 1.7874 3.888 1.7874V1.79023Z" fill="#E6E6E6"/>
<path d="M8.94768 1.48127C8.94758 1.5354 8.95841 1.58836 8.9788 1.63344C8.99918 1.67853 9.02821 1.71371 9.0622 1.73456C9.0962 1.7554 9.13363 1.76096 9.16978 1.75054C9.20593 1.74012 9.23916 1.71417 9.26527 1.676C9.29138 1.63782 9.30921 1.58913 9.31648 1.53606C9.32376 1.483 9.32017 1.42796 9.30616 1.3779C9.29216 1.32784 9.26836 1.285 9.23779 1.25481C9.20721 1.22463 9.17123 1.20844 9.1344 1.2083C9.10994 1.20821 9.08571 1.21519 9.06309 1.22886C9.04047 1.24253 9.0199 1.26261 9.00257 1.28796C8.98523 1.31331 8.97146 1.34343 8.96204 1.37659C8.95262 1.40976 8.94774 1.44533 8.94768 1.48127Z" fill="#E6E6E6"/>
<path d="M20.603 17.0204H18.8501V22.7311H20.603V17.0204Z" fill="#E6E6E6"/>
<path d="M20.2666 22.7318H11.6227V23.0936H20.2666V22.7318Z" fill="#E6E6E6"/>
<path d="M18.8501 17.0211H11.2858V22.7318H18.8501V17.0211Z" fill="#F5F5F5"/>
<path d="M18.1613 17.7237H11.975V19.5964H18.1613V17.7237Z" fill="#E6E6E6"/>
<path d="M18.1613 20.1558H11.975V22.0285H18.1613V20.1558Z" fill="#E6E6E6"/>
<path d="M15.8558 18.532H14.2795C14.2368 18.532 14.2022 18.5829 14.2022 18.6456V18.6752C14.2022 18.7379 14.2368 18.7888 14.2795 18.7888H15.8558C15.8985 18.7888 15.9331 18.7379 15.9331 18.6752V18.6456C15.9331 18.5829 15.8985 18.532 15.8558 18.532Z" fill="#F5F5F5"/>
<path d="M15.8558 20.9634H14.2795C14.2368 20.9634 14.2022 21.0143 14.2022 21.077V21.1066C14.2022 21.1693 14.2368 21.2202 14.2795 21.2202H15.8558C15.8985 21.2202 15.9331 21.1693 15.9331 21.1066V21.077C15.9331 21.0143 15.8985 20.9634 15.8558 20.9634Z" fill="#F5F5F5"/>
<path d="M16.7602 16.2015C16.9744 16.2015 17.148 15.9463 17.148 15.6316C17.148 15.3168 16.9744 15.0616 16.7602 15.0616C16.546 15.0616 16.3723 15.3168 16.3723 15.6316C16.3723 15.9463 16.546 16.2015 16.7602 16.2015Z" fill="#F5F5F5"/>
<path d="M16.0603 16.0724C16.2737 16.0724 16.4467 15.8182 16.4467 15.5046C16.4467 15.191 16.2737 14.9368 16.0603 14.9368C15.8469 14.9368 15.6739 15.191 15.6739 15.5046C15.6739 15.8182 15.8469 16.0724 16.0603 16.0724Z" fill="#F5F5F5"/>
<path d="M14.1921 16.3348C14.4055 16.3348 14.5785 16.0806 14.5785 15.767C14.5785 15.4534 14.4055 15.1992 14.1921 15.1992C13.9787 15.1992 13.8057 15.4534 13.8057 15.767C13.8057 16.0806 13.9787 16.3348 14.1921 16.3348Z" fill="#F5F5F5"/>
<path d="M15.1882 16.5972C15.4016 16.5972 15.5746 16.343 15.5746 16.0294C15.5746 15.7158 15.4016 15.4616 15.1882 15.4616C14.9748 15.4616 14.8018 15.7158 14.8018 16.0294C14.8018 16.343 14.9748 16.5972 15.1882 16.5972Z" fill="#F5F5F5"/>
<path d="M17.7902 15.7148C17.7902 15.7148 17.7278 17.0211 15.3297 17.0211C12.9317 17.0211 12.8693 15.7148 12.8693 15.7148H17.7902Z" fill="#E6E6E6"/>
<path d="M9.624 17.1636H8.74896V22.7402H9.624V17.1636Z" fill="#E6E6E6"/>
<path d="M9.45552 22.7402H3.78V23.0936H9.45552V22.7402Z" fill="#E6E6E6"/>
<path d="M8.74849 17.1636H3.61201V22.7402H8.74849V17.1636Z" fill="#F5F5F5"/>
<path d="M8.4048 17.8499H3.95616V19.679H8.4048V17.8499Z" fill="#E6E6E6"/>
<path d="M8.4048 20.2249H3.95616V22.0539H8.4048V20.2249Z" fill="#E6E6E6"/>
<path d="M5.50657 18.0736H6.85393C6.89782 18.0732 6.93985 18.0475 6.97092 18.0019C7.002 17.9564 7.01964 17.8947 7.02001 17.8302C7.01989 17.7655 7.00235 17.7036 6.97123 17.6578C6.94011 17.6121 6.89794 17.5863 6.85393 17.5862H5.50657C5.46269 17.5867 5.42071 17.6126 5.38972 17.6583C5.35874 17.704 5.34122 17.7657 5.34097 17.8302C5.34122 17.8946 5.35875 17.9563 5.38975 18.0019C5.42076 18.0474 5.46273 18.0732 5.50657 18.0736Z" fill="#F5F5F5"/>
<path d="M5.50657 20.4485H6.85393C6.89794 20.4483 6.94011 20.4225 6.97123 20.3768C7.00235 20.3311 7.01989 20.2691 7.02001 20.2044C7.01964 20.14 7.002 20.0783 6.97092 20.0327C6.93985 19.9872 6.89782 19.9615 6.85393 19.9611H5.50657C5.46273 19.9615 5.42076 19.9872 5.38975 20.0328C5.35875 20.0783 5.34122 20.14 5.34097 20.2044C5.34122 20.2689 5.35874 20.3307 5.38972 20.3764C5.42071 20.422 5.46269 20.4479 5.50657 20.4485Z" fill="#F5F5F5"/>
<path d="M15.9355 3.31804H13.4232V10.833H15.9355V3.31804Z" fill="#EBEBEB"/>
<path d="M15.8813 3.31804H13.2216V10.833H15.8813V3.31804Z" fill="#F5F5F5"/>
<path d="M15.4939 3.88657H13.608V10.2645H15.4939V3.88657Z" fill="white"/>
<path d="M20.6438 7.31673H19.2681V9.64584H20.6438V7.31673Z" fill="#EBEBEB"/>
<path d="M20.4806 7.31673H18.9898V9.64584H20.4806V7.31673Z" fill="#F5F5F5"/>
<path d="M20.3558 7.50084H19.115V9.46246H20.3558V7.50084Z" fill="white"/>
<path d="M19.9454 7.97626H19.525C19.4645 7.97626 19.4155 8.04826 19.4155 8.13708V8.82622C19.4155 8.91504 19.4645 8.98704 19.525 8.98704H19.9454C20.0059 8.98704 20.0549 8.91504 20.0549 8.82622V8.13708C20.0549 8.04826 20.0059 7.97626 19.9454 7.97626Z" fill="#F0F0F0"/>
<path d="M19.535 4.07631H18.1594V6.40542H19.535V4.07631Z" fill="#EBEBEB"/>
<path d="M19.3723 4.07631H17.8814V6.40542H19.3723V4.07631Z" fill="#F5F5F5"/>
<path d="M19.2475 4.25969H18.0067V6.22131H19.2475V4.25969Z" fill="white"/>
<path d="M18.8371 4.73511H18.4166C18.3562 4.73511 18.3072 4.80711 18.3072 4.89593V5.58507C18.3072 5.67389 18.3562 5.74589 18.4166 5.74589H18.8371C18.8976 5.74589 18.9466 5.67389 18.9466 5.58507V4.89593C18.9466 4.80711 18.8976 4.73511 18.8371 4.73511Z" fill="#F0F0F0"/>
<path d="M17.4538 6.07097L7.09013 6.07364L7.09191 20.9857L17.4556 20.9831L17.4538 6.07097Z" fill="#35D0B4"/>
<path d="M17.1874 6.54755L7.35655 6.55008L7.35827 20.9853L17.1892 20.9828L17.1874 6.54755Z" fill="white"/>
<path opacity="0.5" d="M17.4538 6.07097L7.09013 6.07364L7.09191 20.9857L17.4556 20.9831L17.4538 6.07097Z" fill="white"/>
<path d="M17.4543 20.7741L17.4542 20.984L12.2317 20.9849L13.3601 19.3272L14.9142 17.0417L17.4543 20.7741Z" fill="#35D0B4"/>
<path opacity="0.5" d="M17.4543 20.7741L17.4542 20.984L12.2317 20.9849L13.3601 19.3272L14.9142 17.0417L17.4543 20.7741Z" fill="white"/>
<path d="M7.09052 20.9857L7.09059 19.5529L10.3015 14.8333L14.4882 20.9847L7.09052 20.9857Z" fill="#35D0B4"/>
<path opacity="0.5" d="M7.09052 20.9857L7.09059 19.5529L10.3015 14.8333L14.4882 20.9847L7.09052 20.9857Z" fill="white"/>
<path d="M13.8779 13.1861C14.7524 13.2699 15.5076 12.296 15.5646 11.0109C15.6216 9.7257 14.9589 8.61595 14.0843 8.53216C13.2098 8.44838 12.4546 9.42229 12.3976 10.7075C12.3406 11.9926 13.0033 13.1024 13.8779 13.1861Z" fill="#35D0B4"/>
<path opacity="0.5" d="M13.8779 13.1861C14.7524 13.2699 15.5076 12.296 15.5646 11.0109C15.6216 9.7257 14.9589 8.61595 14.0843 8.53216C13.2098 8.44838 12.4546 9.42229 12.3976 10.7075C12.3406 11.9926 13.0033 13.1024 13.8779 13.1861Z" fill="white"/>
</svg>
