<svg width="137" height="137" viewBox="0 0 137 137" fill="none" xmlns="http://www.w3.org/2000/svg">
<path d="M0.659367 105C0.659418 22.5 -8.34058 1.5 40.1594 0C13.9553 20.0918 7.15943 57.5 24.6594 93C29.8394 98.5681 28.4529 102.845 22.1594 111.5C26.6594 114 33.1594 111.5 40.1594 108.5C67.1594 125.5 109.659 126 136.659 101C136.659 120 128.159 135.5 105.159 135.5H30.6594C12.6594 135.5 1.02193 120.5 0.659367 105Z" fill="#2EC4A9"/>
<path d="M21.1595 111L0.659491 94.5C-1.84058 126.5 15.1595 139 45.1595 135.5L21.1595 111Z" fill="#35D0B4"/>
<path d="M43.2994 51.4C44.8194 51.4 46.1794 51.52 47.3794 51.76C48.6061 52 49.7128 52.36 50.6994 52.84L49.6594 56.28C48.7261 55.8267 47.7661 55.5067 46.7794 55.32C45.7928 55.1067 44.7928 55 43.7794 55C42.6594 55 41.5928 55.1733 40.5794 55.52C39.5928 55.8667 38.7128 56.4267 37.9394 57.2C37.1928 57.9467 36.5928 58.92 36.1394 60.12C35.7128 61.2933 35.4994 62.7333 35.4994 64.44C35.4994 67.4533 36.1661 69.76 37.4994 71.36C38.8594 72.96 40.7928 73.76 43.2994 73.76C44.8728 73.76 46.0994 73.5867 46.9794 73.24V67H42.6194V63.32H51.6194V75.88C50.5528 76.3333 49.3394 76.7067 47.9794 77C46.6194 77.2667 45.0594 77.4 43.2994 77.4C41.4861 77.4 39.7794 77.12 38.1794 76.56C36.6061 76 35.2328 75.1733 34.0594 74.08C32.8861 72.9867 31.9661 71.64 31.2994 70.04C30.6328 68.4133 30.2994 66.5467 30.2994 64.44C30.2994 62.3333 30.6328 60.4667 31.2994 58.84C31.9661 57.2133 32.8728 55.8533 34.0194 54.76C35.1928 53.64 36.5661 52.8 38.1394 52.24C39.7394 51.68 41.4594 51.4 43.2994 51.4ZM76.8791 51.4C78.6391 51.4 80.2658 51.6933 81.7591 52.28C83.2524 52.84 84.5324 53.68 85.5991 54.8C86.6924 55.8933 87.5458 57.2533 88.1591 58.88C88.7724 60.48 89.0791 62.3333 89.0791 64.44C89.0791 66.4933 88.7591 68.32 88.1191 69.92C87.5058 71.52 86.6391 72.88 85.5191 74C84.4258 75.0933 83.1191 75.9333 81.5991 76.52C80.1058 77.1067 78.4791 77.4 76.7191 77.4C74.9591 77.4 73.3324 77.12 71.8391 76.56C70.3458 76 69.0524 75.1733 67.9591 74.08C66.8924 72.9867 66.0524 71.64 65.4391 70.04C64.8258 68.4133 64.5191 66.5467 64.5191 64.44C64.5191 62.3867 64.8258 60.56 65.4391 58.96C66.0791 57.3333 66.9458 55.96 68.0391 54.84C69.1591 53.72 70.4658 52.8667 71.9591 52.28C73.4791 51.6933 75.1191 51.4 76.8791 51.4ZM69.7191 64.44C69.7191 66.0133 69.9058 67.3733 70.2791 68.52C70.6524 69.6667 71.1591 70.6267 71.7991 71.4C72.4658 72.1467 73.2258 72.7067 74.0791 73.08C74.9591 73.4533 75.8924 73.64 76.8791 73.64C77.8658 73.64 78.7858 73.4533 79.6391 73.08C80.4924 72.7067 81.2258 72.1467 81.8391 71.4C82.4791 70.6267 82.9724 69.6667 83.3191 68.52C83.6924 67.3733 83.8791 66.0133 83.8791 64.44C83.8791 62.84 83.6924 61.4533 83.3191 60.28C82.9458 59.1067 82.4258 58.1467 81.7591 57.4C81.1191 56.6267 80.3591 56.0667 79.4791 55.72C78.6258 55.3467 77.7058 55.16 76.7191 55.16C75.7324 55.16 74.8124 55.36 73.9591 55.76C73.1058 56.1333 72.3591 56.7067 71.7191 57.48C71.1058 58.2267 70.6124 59.1867 70.2391 60.36C69.8924 61.5333 69.7191 62.8933 69.7191 64.44ZM111.39 51.8C113.284 51.8 115.017 52.0533 116.59 52.56C118.164 53.0667 119.51 53.8267 120.63 54.84C121.777 55.8533 122.657 57.12 123.27 58.64C123.91 60.1333 124.23 61.88 124.23 63.88C124.23 66.2 123.857 68.2 123.11 69.88C122.364 71.5333 121.35 72.8933 120.07 73.96C118.79 75 117.297 75.7733 115.59 76.28C113.91 76.76 112.11 77 110.19 77H102.79V51.8H111.39ZM107.67 73.16H109.83C111.004 73.16 112.137 73.0267 113.23 72.76C114.35 72.4667 115.337 71.9733 116.19 71.28C117.044 70.5867 117.724 69.64 118.23 68.44C118.764 67.24 119.03 65.72 119.03 63.88C119.03 61.2133 118.27 59.1733 116.75 57.76C115.257 56.3467 113.23 55.64 110.67 55.64H107.67V73.16Z" fill="#35D0B4"/>
</svg>
