<svg width="20" height="18" viewBox="0 0 20 18" fill="none" xmlns="http://www.w3.org/2000/svg">
<path fill-rule="evenodd" clip-rule="evenodd" d="M10 2.52425L10.7651 1.70232C12.8777 -0.567398 16.3029 -0.567398 18.4155 1.70232C20.5282 3.97203 20.5282 7.65197 18.4155 9.92168L11.5301 17.3191C10.6851 18.227 9.31497 18.227 8.46992 17.3191L1.58448 9.92168C-0.528141 7.65197 -0.52814 3.97203 1.58448 1.70232C3.69711 -0.567399 7.12234 -0.567398 9.23497 1.70232L10 2.52425ZM15 2.25003C14.5858 2.25003 14.25 2.58582 14.25 3.00003C14.25 3.41424 14.5858 3.75003 15 3.75003C15.6904 3.75003 16.25 4.30967 16.25 5.00003C16.25 5.41424 16.5858 5.75003 17 5.75003C17.4142 5.75003 17.75 5.41424 17.75 5.00003C17.75 3.48125 16.5188 2.25003 15 2.25003Z" fill="#FF54D9"/>
</svg>
