<svg width="24" height="24" viewBox="0 0 24 24" fill="none" xmlns="http://www.w3.org/2000/svg">
<path d="M11.0717 4.0695C8.26334 4.49349 6.01734 6.81295 5.67964 9.79405L5.33476 12.8385C5.24906 13.595 4.94246 14.3069 4.45549 14.8801C3.42209 16.0964 4.26081 18 5.83014 18H18.1699C19.7392 18 20.5779 16.0964 19.5445 14.8801C19.0575 14.3069 18.7509 13.595 18.6652 12.8385L18.4373 10.8267M15 20C14.5633 21.1652 13.385 22 12 22C10.615 22 9.43668 21.1652 9 20M20 5.00002C20 6.65687 18.6569 8.00002 17 8.00002C15.3431 8.00002 14 6.65687 14 5.00002C14 3.34316 15.3431 2.00002 17 2.00002C18.6569 2.00002 20 3.34316 20 5.00002Z" stroke="#35D0B4" stroke-linecap="round"/>
</svg>
