<svg width="20" height="20" viewBox="0 0 20 20" fill="none" xmlns="http://www.w3.org/2000/svg">
<path d="M17.0833 11.25C17.0833 15.162 13.912 18.3333 10 18.3333C6.08798 18.3333 2.91666 15.162 2.91666 11.25C2.91666 7.33798 6.08798 4.16666 10 4.16666C13.912 4.16666 17.0833 7.33798 17.0833 11.25Z" stroke="black" stroke-opacity="0.4" stroke-width="1.5"/>
<path d="M12.3299 2.61312C12.6621 2.70707 13.0075 2.51396 13.1014 2.18181C13.1953 1.84967 13.0022 1.50426 12.6701 1.41031L12.3299 2.61312ZM7.3299 1.41031C6.99775 1.50426 6.80465 1.84967 6.89859 2.18181C6.99253 2.51396 7.33795 2.70707 7.6701 2.61312L7.3299 1.41031ZM10 2.29166C10.8086 2.29166 11.59 2.40385 12.3299 2.61312L12.6701 1.41031C11.8206 1.17004 10.9247 1.04166 10 1.04166V2.29166ZM7.6701 2.61312C8.41 2.40385 9.19142 2.29166 10 2.29166V1.04166C9.07525 1.04166 8.17943 1.17004 7.3299 1.41031L7.6701 2.61312Z" fill="black" fill-opacity="0.4"/>
<path d="M11.25 11.6667C11.25 12.357 10.6903 12.9167 10 12.9167C9.30967 12.9167 8.75 12.357 8.75 11.6667C8.75 10.9763 9.30967 10.4167 10 10.4167C10.6903 10.4167 11.25 10.9763 11.25 11.6667Z" stroke="black" stroke-opacity="0.4" stroke-width="1.5"/>
<path d="M10 10V7.5" stroke="black" stroke-opacity="0.4" stroke-width="1.5" stroke-linecap="round" stroke-linejoin="round"/>
</svg>
