<svg width="20" height="20" viewBox="0 0 20 20" fill="none" xmlns="http://www.w3.org/2000/svg">
<path fill-rule="evenodd" clip-rule="evenodd" d="M7.70827 3.95834C7.70827 2.69269 8.73429 1.66667 9.99994 1.66667C11.2656 1.66667 12.2916 2.69269 12.2916 3.95834V4.09638C14.2791 4.33826 16.1358 4.88998 17.7737 5.68817C18.084 5.83938 18.213 6.21351 18.0618 6.5238C17.9106 6.8341 17.5364 6.96306 17.2261 6.81184C15.1498 5.79999 12.6701 5.20834 9.99993 5.20834C7.32971 5.20834 4.85009 5.79999 2.77372 6.81184C2.46343 6.96306 2.0893 6.8341 1.93809 6.5238C1.78688 6.21351 1.91584 5.83938 2.22613 5.68817C3.86404 4.88998 5.72079 4.33825 7.70827 4.09638V3.95834ZM15.2211 15.2359C15.0965 16.9802 13.645 18.3317 11.8962 18.3317H8.10371C6.35491 18.3317 4.90344 16.9802 4.77884 15.2359L4.20532 7.20659C5.96976 6.59133 7.93225 6.24838 9.99998 6.24838C12.0677 6.24838 14.0302 6.59133 15.7946 7.20659L15.2211 15.2359ZM8.95831 9.16504C8.95831 8.81987 8.67849 8.54004 8.33331 8.54004C7.98813 8.54004 7.70831 8.81987 7.70831 9.16504V14.165C7.70831 14.5102 7.98813 14.79 8.33331 14.79C8.67849 14.79 8.95831 14.5102 8.95831 14.165V9.16504ZM11.6666 8.54004C12.0118 8.54004 12.2916 8.81987 12.2916 9.16504V14.165C12.2916 14.5102 12.0118 14.79 11.6666 14.79C11.3215 14.79 11.0416 14.5102 11.0416 14.165V9.16504C11.0416 8.81987 11.3215 8.54004 11.6666 8.54004Z" fill="#35D0B4" fill-opacity="0.52"/>
</svg>
